<?xml version="1.0" encoding="utf-8" standalone="no"?>
<!DOCTYPE svg PUBLIC "-//W3C//DTD SVG 1.1//EN"
  "http://www.w3.org/Graphics/SVG/1.1/DTD/svg11.dtd">
<svg xmlns:xlink="http://www.w3.org/1999/xlink" width="712.74375pt" height="207.500937pt" viewBox="0 0 712.74375 207.500937" xmlns="http://www.w3.org/2000/svg" version="1.1">
 <metadata>
  <rdf:RDF xmlns:dc="http://purl.org/dc/elements/1.1/" xmlns:cc="http://creativecommons.org/ns#" xmlns:rdf="http://www.w3.org/1999/02/22-rdf-syntax-ns#">
   <cc:Work>
    <dc:type rdf:resource="http://purl.org/dc/dcmitype/StillImage"/>
    <dc:date>2024-10-01T16:32:20.126050</dc:date>
    <dc:format>image/svg+xml</dc:format>
    <dc:creator>
     <cc:Agent>
      <dc:title>Matplotlib v3.9.2, https://matplotlib.org/</dc:title>
     </cc:Agent>
    </dc:creator>
   </cc:Work>
  </rdf:RDF>
 </metadata>
 <defs>
  <style type="text/css">*{stroke-linejoin: round; stroke-linecap: butt}</style>
 </defs>
 <g id="figure_1">
  <g id="patch_1">
   <path d="M 0 207.500937 
L 712.74375 207.500937 
L 712.74375 0 
L 0 0 
z
" style="fill: #ffffff"/>
  </g>
  <g id="axes_1">
   <g id="patch_2">
    <path d="M 36.44375 166.835 
L 424.40975 166.835 
L 424.40975 24.715 
L 36.44375 24.715 
z
" style="fill: #ffffff"/>
   </g>
   <g id="matplotlib.axis_1">
    <g id="xtick_1">
     <g id="line2d_1">
      <defs>
       <path id="mb60d2e2fbd" d="M 0 0 
L 0 3.5 
" style="stroke: #000000; stroke-width: 0.8"/>
      </defs>
      <g>
       <use xlink:href="#mb60d2e2fbd" x="36.44375" y="166.835" style="stroke: #000000; stroke-width: 0.8"/>
      </g>
     </g>
     <g id="text_1">
      <text style="font: 10px 'Helvetica', sans-serif; text-anchor: middle" x="36.44375" y="181.008437" transform="rotate(-0 36.44375 181.008437)">0</text>
     </g>
    </g>
    <g id="xtick_2">
     <g id="line2d_2">
      <g>
       <use xlink:href="#mb60d2e2fbd" x="84.9395" y="166.835" style="stroke: #000000; stroke-width: 0.8"/>
      </g>
     </g>
     <g id="text_2">
      <text style="font: 10px 'Helvetica', sans-serif; text-anchor: middle" x="84.9395" y="181.008437" transform="rotate(-0 84.9395 181.008437)">5</text>
     </g>
    </g>
    <g id="xtick_3">
     <g id="line2d_3">
      <g>
       <use xlink:href="#mb60d2e2fbd" x="133.43525" y="166.835" style="stroke: #000000; stroke-width: 0.8"/>
      </g>
     </g>
     <g id="text_3">
      <text style="font: 10px 'Helvetica', sans-serif; text-anchor: middle" x="133.43525" y="181.008437" transform="rotate(-0 133.43525 181.008437)">10</text>
     </g>
    </g>
    <g id="xtick_4">
     <g id="line2d_4">
      <g>
       <use xlink:href="#mb60d2e2fbd" x="181.931" y="166.835" style="stroke: #000000; stroke-width: 0.8"/>
      </g>
     </g>
     <g id="text_4">
      <text style="font: 10px 'Helvetica', sans-serif; text-anchor: middle" x="181.931" y="181.008437" transform="rotate(-0 181.931 181.008437)">15</text>
     </g>
    </g>
    <g id="xtick_5">
     <g id="line2d_5">
      <g>
       <use xlink:href="#mb60d2e2fbd" x="230.42675" y="166.835" style="stroke: #000000; stroke-width: 0.8"/>
      </g>
     </g>
     <g id="text_5">
      <text style="font: 10px 'Helvetica', sans-serif; text-anchor: middle" x="230.42675" y="181.008437" transform="rotate(-0 230.42675 181.008437)">20</text>
     </g>
    </g>
    <g id="xtick_6">
     <g id="line2d_6">
      <g>
       <use xlink:href="#mb60d2e2fbd" x="278.9225" y="166.835" style="stroke: #000000; stroke-width: 0.8"/>
      </g>
     </g>
     <g id="text_6">
      <text style="font: 10px 'Helvetica', sans-serif; text-anchor: middle" x="278.9225" y="181.008437" transform="rotate(-0 278.9225 181.008437)">25</text>
     </g>
    </g>
    <g id="xtick_7">
     <g id="line2d_7">
      <g>
       <use xlink:href="#mb60d2e2fbd" x="327.41825" y="166.835" style="stroke: #000000; stroke-width: 0.8"/>
      </g>
     </g>
     <g id="text_7">
      <text style="font: 10px 'Helvetica', sans-serif; text-anchor: middle" x="327.41825" y="181.008437" transform="rotate(-0 327.41825 181.008437)">30</text>
     </g>
    </g>
    <g id="xtick_8">
     <g id="line2d_8">
      <g>
       <use xlink:href="#mb60d2e2fbd" x="375.914" y="166.835" style="stroke: #000000; stroke-width: 0.8"/>
      </g>
     </g>
     <g id="text_8">
      <text style="font: 10px 'Helvetica', sans-serif; text-anchor: middle" x="375.914" y="181.008437" transform="rotate(-0 375.914 181.008437)">35</text>
     </g>
    </g>
    <g id="xtick_9">
     <g id="line2d_9">
      <g>
       <use xlink:href="#mb60d2e2fbd" x="424.40975" y="166.835" style="stroke: #000000; stroke-width: 0.8"/>
      </g>
     </g>
     <g id="text_9">
      <text style="font: 10px 'Helvetica', sans-serif; text-anchor: middle" x="424.40975" y="181.008437" transform="rotate(-0 424.40975 181.008437)">40</text>
     </g>
    </g>
    <g id="text_10">
     <text style="font: 14px 'Helvetica', sans-serif; text-anchor: middle" x="230.42675" y="197.299687" transform="rotate(-0 230.42675 197.299687)">Frequency (Hz)</text>
    </g>
   </g>
   <g id="matplotlib.axis_2">
    <g id="ytick_1">
     <g id="line2d_10">
      <defs>
       <path id="mf5f646236f" d="M 0 0 
L -3.5 0 
" style="stroke: #000000; stroke-width: 0.8"/>
      </defs>
      <g>
       <use xlink:href="#mf5f646236f" x="36.44375" y="160.377546" style="stroke: #000000; stroke-width: 0.8"/>
      </g>
     </g>
     <g id="text_11">
      <text style="font: 10px 'Helvetica', sans-serif; text-anchor: end" x="29.44375" y="163.964264" transform="rotate(-0 29.44375 163.964264)">0</text>
     </g>
    </g>
    <g id="ytick_2">
     <g id="line2d_11">
      <g>
       <use xlink:href="#mf5f646236f" x="36.44375" y="135.174232" style="stroke: #000000; stroke-width: 0.8"/>
      </g>
     </g>
     <g id="text_12">
      <text style="font: 10px 'Helvetica', sans-serif; text-anchor: end" x="29.44375" y="138.760951" transform="rotate(-0 29.44375 138.760951)">1000</text>
     </g>
    </g>
    <g id="ytick_3">
     <g id="line2d_12">
      <g>
       <use xlink:href="#mf5f646236f" x="36.44375" y="109.970919" style="stroke: #000000; stroke-width: 0.8"/>
      </g>
     </g>
     <g id="text_13">
      <text style="font: 10px 'Helvetica', sans-serif; text-anchor: end" x="29.44375" y="113.557638" transform="rotate(-0 29.44375 113.557638)">2000</text>
     </g>
    </g>
    <g id="ytick_4">
     <g id="line2d_13">
      <g>
       <use xlink:href="#mf5f646236f" x="36.44375" y="84.767605" style="stroke: #000000; stroke-width: 0.8"/>
      </g>
     </g>
     <g id="text_14">
      <text style="font: 10px 'Helvetica', sans-serif; text-anchor: end" x="29.44375" y="88.354324" transform="rotate(-0 29.44375 88.354324)">3000</text>
     </g>
    </g>
    <g id="ytick_5">
     <g id="line2d_14">
      <g>
       <use xlink:href="#mf5f646236f" x="36.44375" y="59.564292" style="stroke: #000000; stroke-width: 0.8"/>
      </g>
     </g>
     <g id="text_15">
      <text style="font: 10px 'Helvetica', sans-serif; text-anchor: end" x="29.44375" y="63.151011" transform="rotate(-0 29.44375 63.151011)">4000</text>
     </g>
    </g>
    <g id="ytick_6">
     <g id="line2d_15">
      <g>
       <use xlink:href="#mf5f646236f" x="36.44375" y="34.360979" style="stroke: #000000; stroke-width: 0.8"/>
      </g>
     </g>
     <g id="text_16">
      <text style="font: 10px 'Helvetica', sans-serif; text-anchor: end" x="29.44375" y="37.947697" transform="rotate(-0 29.44375 37.947697)">5000</text>
     </g>
    </g>
   </g>
   <g id="line2d_16">
    <path d="M 36.44375 103.544941 
L 36.605376 159.293144 
L 36.928627 154.794009 
L 37.090252 152.076824 
L 37.413503 156.066485 
L 37.575129 152.480097 
L 37.89838 142.954148 
L 38.060006 153.993746 
L 38.221631 137.97358 
L 38.544882 31.175 
L 38.706508 107.022142 
L 39.35301 149.177224 
L 39.676261 155.31187 
L 39.999512 142.394672 
L 40.322763 150.106033 
L 40.484389 132.977057 
L 40.80764 159.240723 
L 41.130891 143.379541 
L 41.454142 154.662864 
L 41.615768 148.51444 
L 41.939019 155.079859 
L 42.100645 157.924661 
L 42.26227 154.009905 
L 42.423896 159.19257 
L 42.747147 154.825863 
L 42.908772 159.022509 
L 43.070398 159.843075 
L 43.232024 158.147694 
L 43.393649 158.343361 
L 43.555275 157.530231 
L 43.7169 154.378071 
L 44.201777 158.126885 
L 44.363403 155.914287 
L 44.525028 157.006128 
L 44.848279 156.072512 
L 45.009905 158.075358 
L 45.17153 158.342223 
L 45.333156 156.236749 
L 45.494781 157.512053 
L 45.656407 155.603009 
L 45.818033 159.462254 
L 45.979658 153.47146 
L 46.141284 153.868339 
L 46.302909 155.21243 
L 46.464535 153.199053 
L 46.62616 157.656654 
L 46.787786 155.967695 
L 46.949412 156.483515 
L 47.272663 160.152463 
L 47.757539 154.493178 
L 47.919165 158.354018 
L 48.08079 156.958083 
L 48.242416 159.308109 
L 48.404042 158.544356 
L 48.565667 155.175621 
L 48.727293 157.866067 
L 49.050544 156.816264 
L 49.212169 158.568208 
L 49.373795 158.620878 
L 49.535421 157.239401 
L 49.858672 159.776346 
L 50.020297 158.840664 
L 50.181923 156.615112 
L 50.666799 159.883999 
L 50.828425 159.847555 
L 50.990051 158.456676 
L 51.151676 158.087864 
L 51.313302 158.571971 
L 51.474927 157.526644 
L 51.636553 158.068382 
L 51.798178 157.969971 
L 51.959804 159.47076 
L 52.12143 158.619183 
L 52.444681 159.458212 
L 52.606306 157.897661 
L 52.767932 158.37234 
L 52.929557 159.681034 
L 53.091183 158.335649 
L 53.414434 158.904821 
L 53.57606 157.362886 
L 53.737685 158.864404 
L 54.060936 159.860468 
L 54.222562 158.952198 
L 54.384187 158.975195 
L 54.545813 158.29365 
L 54.707439 159.750557 
L 54.869064 159.374907 
L 55.03069 159.457323 
L 55.192315 157.904937 
L 55.353941 159.162364 
L 55.515566 158.798198 
L 55.838817 159.774164 
L 56.000443 159.319298 
L 56.323694 159.498238 
L 56.48532 159.969167 
L 56.646945 158.850342 
L 56.808571 158.938601 
L 56.970196 159.199679 
L 57.131822 159.161016 
L 57.293448 159.710848 
L 57.455073 159.116873 
L 57.616699 159.937875 
L 57.778324 159.302183 
L 57.93995 159.667837 
L 58.101575 159.40173 
L 58.263201 159.818216 
L 58.586452 159.76297 
L 58.748078 159.220273 
L 58.909703 159.262561 
L 59.071329 160.10166 
L 59.39458 159.195404 
L 59.556205 159.664795 
L 59.717831 159.461582 
L 60.041082 160.181433 
L 60.202708 160.320048 
L 60.364333 159.465855 
L 60.525959 159.772183 
L 60.687584 159.668938 
L 61.010835 158.980376 
L 61.334087 160.123674 
L 61.495712 159.105685 
L 61.657338 160.05865 
L 61.818963 159.117152 
L 61.980589 159.428282 
L 62.30384 159.626709 
L 62.465466 159.055819 
L 62.627091 159.459845 
L 62.788717 159.433874 
L 63.111968 159.809011 
L 63.273593 160.17034 
L 63.596844 159.065589 
L 63.75847 160.081256 
L 64.243347 159.457951 
L 64.404972 159.977903 
L 64.566598 159.957759 
L 64.728223 160.266383 
L 65.051475 159.208574 
L 65.2131 160.339034 
L 65.374726 159.512559 
L 65.536351 159.754299 
L 65.859602 159.539457 
L 66.021228 159.540971 
L 66.182853 159.99651 
L 66.344479 159.416537 
L 66.66773 159.15881 
L 66.829356 160.069696 
L 67.314232 159.549753 
L 67.475858 159.738469 
L 67.637484 159.710186 
L 67.799109 160.150007 
L 68.283986 159.181257 
L 68.445611 159.356292 
L 68.607237 160.180009 
L 69.092114 159.581588 
L 69.253739 159.76123 
L 69.415365 160.247816 
L 69.57699 160.235521 
L 69.900241 159.691759 
L 70.061867 160.182205 
L 70.385118 159.781442 
L 70.546744 159.91374 
L 70.708369 159.578933 
L 70.869995 159.876952 
L 71.03162 159.660595 
L 71.193246 160.150039 
L 71.354871 159.507646 
L 71.516497 159.807311 
L 71.678123 159.649511 
L 71.839748 160.298658 
L 72.001374 159.978869 
L 72.162999 160.284564 
L 72.48625 159.936186 
L 72.647876 160.223443 
L 72.809502 159.940611 
L 72.971127 160.082359 
L 73.132753 159.681158 
L 73.294378 160.147481 
L 73.456004 159.77668 
L 73.617629 160.107311 
L 73.94088 159.56618 
L 74.102506 159.612928 
L 74.425757 160.325107 
L 74.910634 159.88484 
L 75.072259 160.158644 
L 75.233885 159.98993 
L 75.718762 159.929271 
L 75.880387 159.753334 
L 76.042013 159.923673 
L 76.203638 159.708977 
L 76.365264 160.195047 
L 76.526889 160.242065 
L 76.688515 159.829632 
L 76.850141 159.83041 
L 77.011766 160.272928 
L 77.335017 159.7363 
L 77.819894 159.703122 
L 77.98152 160.076141 
L 78.304771 160.141064 
L 78.466396 159.671173 
L 78.628022 159.959781 
L 79.274524 159.446129 
L 79.43615 159.992029 
L 79.597775 160.119929 
L 79.759401 159.978893 
L 79.921026 160.196877 
L 80.244277 159.481018 
L 80.405903 160.231496 
L 80.567529 160.172636 
L 80.89078 159.234335 
L 81.052405 159.909911 
L 81.214031 159.612795 
L 81.537282 160.109703 
L 81.860533 160.060872 
L 82.022159 159.721516 
L 82.183784 159.829918 
L 82.34541 160.143293 
L 82.507035 159.258358 
L 82.668661 159.172911 
L 82.830286 158.122674 
L 83.153538 159.55364 
L 83.315163 159.693217 
L 83.476789 159.445667 
L 84.123291 159.90954 
L 84.284916 159.602943 
L 84.446542 160.01651 
L 84.608168 159.93736 
L 84.769793 159.675851 
L 84.931419 156.620366 
L 85.093044 159.959389 
L 85.25467 159.870467 
L 85.577921 160.202592 
L 85.739547 159.889345 
L 85.901172 160.103267 
L 86.224423 160.144839 
L 86.547674 159.653247 
L 86.7093 159.933795 
L 87.032551 157.969693 
L 87.355802 159.605718 
L 87.517428 159.679608 
L 87.679053 159.522362 
L 87.840679 160.049264 
L 88.002304 159.764741 
L 88.487181 160.03404 
L 88.648807 159.85732 
L 88.810432 160.008978 
L 88.972058 159.420758 
L 89.133683 160.206885 
L 89.456934 159.725376 
L 89.780186 160.120774 
L 89.941811 159.82374 
L 90.103437 160.121831 
L 90.265062 159.991076 
L 90.426688 159.618174 
L 90.588313 159.99007 
L 90.749939 160.027041 
L 90.911565 159.730068 
L 91.234816 160.070011 
L 91.396441 159.848504 
L 91.558067 160.051444 
L 91.719692 159.838225 
L 92.042943 160.184219 
L 92.204569 159.998016 
L 92.52782 160.212048 
L 92.689446 160.109798 
L 92.851071 159.794234 
L 93.012697 160.089916 
L 93.174322 159.957785 
L 93.659199 160.063439 
L 93.820825 159.764866 
L 93.98245 160.32215 
L 94.144076 159.8489 
L 94.467327 160.062365 
L 94.628952 159.7649 
L 94.790578 160.103995 
L 95.113829 160.083356 
L 95.275455 159.98985 
L 95.43708 160.207416 
L 95.760331 160.148318 
L 95.921957 160.211259 
L 96.083583 159.999639 
L 96.406834 160.08876 
L 96.568459 159.955205 
L 96.89171 160.067632 
L 97.053336 160.170812 
L 97.699838 159.863692 
L 97.861464 159.987015 
L 98.023089 159.943378 
L 98.184715 160.039051 
L 98.34634 160.301352 
L 98.507966 159.922542 
L 98.669592 160.154468 
L 98.992843 159.886273 
L 99.316094 160.178616 
L 99.477719 160.118994 
L 99.639345 159.855262 
L 99.962596 160.037589 
L 100.285847 160.009332 
L 100.447473 160.235013 
L 100.770724 160.140458 
L 100.932349 160.273309 
L 101.255601 159.923014 
L 101.417226 160.152155 
L 101.902103 160.116366 
L 102.225354 159.915288 
L 102.386979 160.067151 
L 102.548605 160.015275 
L 102.871856 160.177551 
L 103.033482 160.086225 
L 103.195107 160.131057 
L 103.356733 160.025102 
L 103.518358 160.065848 
L 103.679984 160.285231 
L 103.84161 159.952512 
L 104.003235 160.257027 
L 104.326486 160.059777 
L 104.488112 160.2246 
L 104.972988 160.047462 
L 105.619491 160.241972 
L 105.942742 160.019955 
L 106.104367 160.073582 
L 106.265993 159.953804 
L 106.589244 160.213182 
L 106.75087 160.238603 
L 106.912495 160.132169 
L 107.074121 160.196316 
L 107.235746 160.022553 
L 107.720623 160.212412 
L 107.882249 160.329529 
L 108.367125 160.074489 
L 108.852002 160.175215 
L 109.013628 160.069076 
L 109.336879 160.263838 
L 109.66013 160.066268 
L 109.821755 160.131707 
L 109.983381 160.027286 
L 110.306632 160.210104 
L 110.468258 160.154978 
L 110.629883 160.295938 
L 110.953134 160.016292 
L 111.11476 160.256508 
L 111.276385 160.108585 
L 111.761262 160.260816 
L 111.922888 160.108839 
L 112.084513 160.187677 
L 112.407764 159.915252 
L 112.56939 160.186208 
L 112.892641 160.031592 
L 113.054267 160.25835 
L 113.862394 160.263102 
L 114.02402 160.281665 
L 114.185646 160.096851 
L 114.347271 160.265648 
L 114.670522 160.259698 
L 115.155399 160.094628 
L 115.47865 160.250322 
L 115.640276 159.911477 
L 115.801901 160.342867 
L 115.963527 160.304475 
L 116.125152 160.145272 
L 116.286778 160.31938 
L 116.448403 160.121147 
L 116.771655 160.261633 
L 117.579782 160.105314 
L 117.741408 160.265964 
L 118.064659 159.96211 
L 118.226285 160.078356 
L 118.38791 160.034263 
L 118.711161 160.233183 
L 119.034412 160.032142 
L 119.196038 160.228009 
L 120.165791 160.127021 
L 120.327417 160.266239 
L 121.458796 160.159705 
L 121.782047 160.225631 
L 122.105298 160.056274 
L 122.266924 160.185921 
L 122.428549 160.041523 
L 122.590175 160.233218 
L 122.7518 160.122085 
L 123.075051 160.308948 
L 123.236677 160.135742 
L 123.559928 160.319293 
L 123.721554 160.177586 
L 124.529682 160.272341 
L 124.691307 160.114109 
L 124.852933 160.325392 
L 125.014558 160.129137 
L 125.337809 160.214422 
L 125.499435 160.269115 
L 125.66106 160.021345 
L 125.822686 159.986302 
L 125.984312 160.249689 
L 126.630814 160.22366 
L 126.792439 160.279933 
L 126.954065 160.027049 
L 127.277316 160.307975 
L 127.600567 160.162709 
L 127.923818 160.058705 
L 128.085444 160.330485 
L 128.408695 160.224437 
L 128.570321 160.225111 
L 128.731946 159.865412 
L 128.893572 160.240607 
L 129.378448 159.871559 
L 129.540074 160.296389 
L 129.7017 159.971922 
L 130.024951 160.020361 
L 130.186576 160.15436 
L 130.348202 160.140211 
L 130.509827 159.9374 
L 130.671453 160.113922 
L 130.833078 160.09462 
L 130.994704 159.65327 
L 131.15633 159.574401 
L 131.317955 158.718633 
L 131.479581 159.511744 
L 131.641206 159.37556 
L 131.964457 159.659653 
L 132.287709 159.84031 
L 132.449334 160.141692 
L 132.61096 160.094861 
L 132.772585 159.872004 
L 132.934211 159.908616 
L 133.095836 160.109246 
L 133.257462 159.50675 
L 133.419087 156.939693 
L 133.580713 159.300889 
L 133.903964 160.163542 
L 134.227215 160.047077 
L 134.550466 160.256251 
L 134.873718 160.07237 
L 135.035343 159.834027 
L 135.196969 159.803346 
L 135.358594 158.595309 
L 135.52022 158.7534 
L 135.843471 159.630887 
L 136.005096 159.883544 
L 136.166722 159.910085 
L 136.328348 160.160793 
L 136.651599 160.159875 
L 136.813224 160.100427 
L 136.97485 160.216956 
L 137.136475 160.174323 
L 137.459727 159.622018 
L 137.621352 160.124249 
L 137.944603 159.965602 
L 138.106229 160.254933 
L 138.267854 159.917374 
L 138.42948 159.887506 
L 138.591105 160.289035 
L 139.560859 160.133237 
L 139.722484 160.354989 
L 140.045736 160.087207 
L 140.207361 160.235566 
L 141.015489 160.16529 
L 141.177114 160.325885 
L 141.33874 160.05976 
L 141.661991 160.307032 
L 141.823617 160.125369 
L 142.146868 160.13752 
L 142.308493 160.02383 
L 142.470119 160.19189 
L 142.631745 160.085805 
L 142.79337 160.231567 
L 143.116621 159.958226 
L 143.278247 160.218691 
L 143.439872 160.260643 
L 143.763123 160.176845 
L 143.924749 160.27011 
L 144.248 160.226037 
L 144.409626 160.260847 
L 144.571251 160.074447 
L 144.732877 160.208191 
L 145.70263 160.062161 
L 145.864256 160.181063 
L 146.025881 160.16069 
L 146.187507 159.998198 
L 146.510758 160.26147 
L 146.672384 160.285312 
L 146.834009 160.19574 
L 147.318886 160.273205 
L 147.642137 160.171483 
L 147.803762 160.230309 
L 147.965388 160.042128 
L 148.127014 160.185155 
L 148.61189 160.160927 
L 148.773516 160.273327 
L 149.096767 160.094617 
L 149.258393 160.285165 
L 149.581644 160.090818 
L 149.743269 160.324073 
L 150.06652 160.209094 
L 150.874648 160.056242 
L 151.036274 160.297763 
L 151.52115 160.177322 
L 151.682776 160.27429 
L 152.006027 160.079815 
L 152.490904 160.343966 
L 153.622283 160.202662 
L 153.783908 160.288096 
L 153.945534 160.211386 
L 154.107159 160.268254 
L 154.430411 160.175092 
L 154.592036 160.275522 
L 154.753662 160.071094 
L 154.915287 160.341438 
L 155.885041 160.263559 
L 156.046666 160.340501 
L 156.208292 160.150431 
L 156.369917 160.298834 
L 157.501296 160.19319 
L 159.117552 160.286547 
L 159.279177 160.120484 
L 159.602429 160.284861 
L 160.087305 160.241149 
L 160.895433 160.179556 
L 161.057059 160.345497 
L 161.38031 160.111399 
L 161.541935 160.347638 
L 161.865186 160.221049 
L 162.511689 160.355725 
L 162.673314 160.173293 
L 163.481442 160.263488 
L 164.28957 160.164606 
L 164.451195 160.296674 
L 164.774447 160.220779 
L 165.097698 160.36516 
L 165.420949 160.262039 
L 165.905825 160.11845 
L 166.229077 160.27704 
L 166.875579 160.110457 
L 167.037204 160.201725 
L 167.360456 160.159142 
L 168.976711 160.239076 
L 169.138337 160.336777 
L 169.461588 160.186957 
L 170.269716 160.300056 
L 170.592967 160.116626 
L 170.916218 160.266861 
L 171.401095 160.249034 
L 171.724346 160.242026 
L 172.209222 160.291847 
L 172.532474 160.289718 
L 173.01735 160.334705 
L 173.178976 160.115009 
L 173.340601 160.290497 
L 173.825478 160.195131 
L 173.987104 160.239976 
L 174.148729 160.039433 
L 174.795231 160.214679 
L 175.603359 160.366233 
L 175.92661 160.123892 
L 176.249861 160.153675 
L 176.896364 160.187652 
L 177.219615 160.009112 
L 177.38124 160.302001 
L 177.704492 159.995204 
L 178.512619 160.095804 
L 178.674245 160.133419 
L 178.83587 160.287085 
L 178.997496 160.082141 
L 179.159122 160.170079 
L 179.643998 159.701012 
L 179.805624 159.061906 
L 179.967249 159.660115 
L 180.128875 159.396947 
L 180.290501 159.711118 
L 180.452126 159.710791 
L 181.098628 160.214984 
L 181.421879 159.980037 
L 181.583505 160.048134 
L 181.745131 159.544017 
L 181.906756 157.936626 
L 182.230007 159.649489 
L 182.391633 160.040351 
L 182.714884 159.981711 
L 182.87651 160.230842 
L 183.361386 160.068132 
L 183.684637 159.775493 
L 183.846263 158.906578 
L 184.816016 160.280584 
L 184.977642 160.204434 
L 185.300893 160.246664 
L 185.947395 159.837043 
L 186.270646 160.094116 
L 186.432272 160.040287 
L 186.593897 160.277619 
L 186.755523 160.076235 
L 187.402025 160.194314 
L 189.018281 160.330747 
L 189.179906 160.169798 
L 189.664783 160.335367 
L 189.826409 160.101273 
L 190.14966 160.255155 
L 190.311285 160.136349 
L 190.472911 160.285486 
L 190.796162 160.065633 
L 190.957788 160.26489 
L 191.119413 160.17052 
L 191.281039 160.261684 
L 191.60429 160.05473 
L 191.765915 160.275399 
L 192.089167 160.218678 
L 192.250792 160.142446 
L 192.735669 160.266433 
L 193.05892 160.104393 
L 193.220546 160.269888 
L 194.675176 160.199359 
L 194.998427 160.226467 
L 195.321678 160.235035 
L 195.806555 160.261526 
L 196.129806 160.243376 
L 196.291431 160.314457 
L 196.614682 160.125911 
L 196.937933 160.255026 
L 197.099559 160.1682 
L 197.261185 160.356884 
L 197.584436 160.173347 
L 197.907687 160.298322 
L 198.230938 160.211261 
L 198.554189 160.343431 
L 199.200691 160.159499 
L 199.847194 160.253875 
L 200.33207 160.26727 
L 200.493696 160.183889 
L 200.655321 160.340894 
L 200.978573 160.253228 
L 201.140198 160.336104 
L 201.301824 160.188091 
L 201.625075 160.193439 
L 202.594828 160.366431 
L 202.756454 160.143821 
L 203.079705 160.31304 
L 203.24133 160.143995 
L 203.564582 160.36289 
L 203.726207 160.238878 
L 204.211084 160.282728 
L 209.867978 160.249863 
L 210.029604 160.35951 
L 210.676106 160.28903 
L 213.423741 160.255134 
L 213.585366 160.370179 
L 214.070243 160.269193 
L 215.201622 160.269853 
L 215.363248 160.159021 
L 215.848124 160.33985 
L 216.00975 160.200652 
L 216.333001 160.27433 
L 216.494627 160.226761 
L 216.817878 160.322081 
L 217.302754 160.221165 
L 217.46438 160.307997 
L 218.110882 160.244616 
L 218.272508 160.275042 
L 218.434133 160.13385 
L 218.757384 160.304905 
L 218.91901 160.183652 
L 219.242261 160.307494 
L 219.565512 160.298399 
L 221.181768 160.25375 
L 221.505019 160.36659 
L 221.989896 160.148804 
L 222.313147 160.301822 
L 222.798023 160.228809 
L 223.444526 160.305132 
L 223.929402 160.305151 
L 224.252654 160.301679 
L 224.575905 160.149671 
L 225.384032 160.290322 
L 225.707284 160.053862 
L 225.868909 160.296204 
L 226.030535 160.094571 
L 226.838663 160.212306 
L 227.000288 160.110372 
L 227.323539 160.307477 
L 227.485165 160.091239 
L 227.64679 160.235925 
L 227.970041 159.980731 
L 228.131667 159.934519 
L 228.293293 159.419766 
L 228.454918 159.665549 
L 228.616544 159.368486 
L 228.778169 159.849536 
L 229.424672 160.198174 
L 229.747923 160.160678 
L 229.909548 159.985053 
L 230.071174 160.088473 
L 230.232799 159.758222 
L 230.394425 158.753088 
L 230.55605 158.80229 
L 230.879302 160.09642 
L 231.040927 160.010787 
L 231.364178 160.23577 
L 232.172306 159.900186 
L 232.333932 159.311951 
L 232.495557 159.603843 
L 232.657183 159.45581 
L 233.142059 160.11535 
L 233.303685 160.321577 
L 233.465311 160.184195 
L 234.111813 160.170449 
L 234.435064 159.899308 
L 234.59669 160.160575 
L 234.919941 160.162462 
L 235.081566 160.307627 
L 235.243192 160.112966 
L 235.728068 160.325491 
L 235.889694 160.168015 
L 236.212945 160.348695 
L 236.374571 160.213984 
L 238.152452 160.350822 
L 238.314077 160.21134 
L 238.475703 160.358969 
L 238.798954 160.187679 
L 238.96058 160.302645 
L 239.283831 160.194178 
L 239.607082 160.264416 
L 241.061712 160.262263 
L 241.384963 160.245922 
L 241.546589 160.184461 
L 241.708214 160.316303 
L 242.193091 160.271857 
L 243.001219 160.265381 
L 243.486095 160.332168 
L 243.647721 160.211374 
L 243.809347 160.325799 
L 244.617474 160.261388 
L 244.940726 160.260848 
L 245.102351 160.233439 
L 245.425602 160.305672 
L 245.910479 160.282334 
L 246.072104 160.205827 
L 246.23373 160.311231 
L 246.556981 160.297739 
L 246.880232 160.270799 
L 247.365109 160.263147 
L 247.526735 160.204931 
L 247.68836 160.28631 
L 247.849986 160.225572 
L 248.173237 160.274937 
L 249.627867 160.283361 
L 250.112744 160.211993 
L 251.244122 160.246706 
L 251.890625 160.279005 
L 252.213876 160.238674 
L 253.183629 160.188895 
L 253.345255 160.313636 
L 253.668506 160.280657 
L 254.315008 160.191324 
L 254.638259 160.317739 
L 254.96151 160.240274 
L 255.284761 160.317784 
L 255.769638 160.313465 
L 256.092889 160.284357 
L 257.87077 160.262388 
L 258.194022 160.327777 
L 258.355647 160.25578 
L 258.678898 160.348071 
L 261.264907 160.272745 
L 261.588158 160.333764 
L 262.073035 160.31051 
L 262.881163 160.260565 
L 263.042788 160.227044 
L 263.204414 160.333456 
L 263.850916 160.209314 
L 264.335793 160.353517 
L 264.497419 160.156918 
L 264.982295 160.371852 
L 265.305546 160.267218 
L 266.113674 160.274128 
L 266.598551 160.306458 
L 266.921802 160.218489 
L 267.245053 160.33284 
L 267.406679 160.219047 
L 267.72993 160.27868 
L 268.214806 160.263664 
L 268.538058 160.286469 
L 269.022934 160.293158 
L 269.18456 160.355241 
L 269.669437 160.251587 
L 269.831062 160.362288 
L 270.154313 160.312331 
L 270.315939 160.323632 
L 270.477564 160.175869 
L 270.63919 160.318486 
L 271.608943 160.26494 
L 272.740322 160.275184 
L 273.063573 160.164877 
L 273.871701 160.301302 
L 274.033327 160.141128 
L 274.841455 160.246315 
L 275.00308 160.158526 
L 275.326331 160.272479 
L 276.134459 160.229341 
L 276.45771 160.114707 
L 276.619336 160.109936 
L 276.942587 159.693501 
L 277.104212 159.598284 
L 277.265838 160.016031 
L 277.427464 160.018622 
L 277.750715 160.257044 
L 278.235591 160.149454 
L 278.558842 160.208691 
L 278.882094 159.503998 
L 279.043719 159.003513 
L 279.205345 159.979915 
L 279.528596 160.143616 
L 280.013473 160.220024 
L 280.336724 160.122954 
L 280.498349 159.964663 
L 280.659975 160.075012 
L 280.8216 159.580249 
L 280.983226 159.791085 
L 281.144851 159.59642 
L 281.468103 160.070491 
L 281.791354 160.320266 
L 281.952979 160.173633 
L 282.27623 160.323249 
L 283.084358 160.143065 
L 283.245984 160.313119 
L 283.569235 160.304363 
L 283.73086 160.192459 
L 284.054112 160.340944 
L 284.862239 160.335776 
L 285.831993 160.349447 
L 286.155244 160.229521 
L 286.640121 160.33817 
L 286.963372 160.242697 
L 287.124997 160.289371 
L 287.286623 160.197622 
L 287.448248 160.349959 
L 287.7715 160.211879 
L 287.933125 160.278115 
L 288.418002 160.164531 
L 288.741253 160.313045 
L 289.22613 160.282197 
L 291.004011 160.365261 
L 291.165636 160.16931 
L 291.327262 160.318931 
L 291.812139 160.239105 
L 291.973764 160.344719 
L 292.13539 160.275349 
L 292.297015 160.348634 
L 292.620266 160.249434 
L 293.105143 160.336419 
L 293.428394 160.290937 
L 293.913271 160.274856 
L 294.398148 160.327895 
L 295.691152 160.267861 
L 296.014403 160.226926 
L 296.337654 160.31369 
L 296.822531 160.289457 
L 297.145782 160.337937 
L 298.115536 160.267568 
L 298.277161 160.217705 
L 298.600412 160.242622 
L 299.085289 160.318383 
L 299.40854 160.276621 
L 299.731791 160.292637 
L 302.479426 160.267714 
L 302.964302 160.337129 
L 303.449179 160.282117 
L 303.77243 160.355688 
L 304.742184 160.252375 
L 306.843316 160.328665 
L 307.004941 160.238915 
L 307.166567 160.349906 
L 307.651444 160.2972 
L 307.813069 160.321972 
L 307.974695 160.202837 
L 308.459572 160.260499 
L 308.944448 160.370142 
L 309.106074 160.290565 
L 309.429325 160.340718 
L 309.914202 160.275063 
L 310.237453 160.307674 
L 311.530457 160.225534 
L 311.853708 160.302427 
L 312.500211 160.290361 
L 312.823462 160.312018 
L 312.985087 160.143428 
L 313.308338 160.321867 
L 314.116466 160.29366 
L 314.278092 160.231917 
L 314.762968 160.354301 
L 315.247845 160.271952 
L 315.571096 160.294161 
L 315.894347 160.223342 
L 316.055973 160.352159 
L 317.187352 160.312405 
L 317.510603 160.323143 
L 317.672229 160.265611 
L 317.833854 160.347142 
L 318.157105 160.278948 
L 318.641982 160.31806 
L 318.965233 160.238717 
L 319.126859 160.352765 
L 319.45011 160.223943 
L 319.773361 160.33488 
L 320.419863 160.271233 
L 320.743114 160.375 
L 321.066365 160.310397 
L 321.227991 160.362068 
L 321.389617 160.202659 
L 322.036119 160.347971 
L 322.520995 160.201767 
L 324.622128 160.316741 
L 324.783753 160.165758 
L 325.107004 160.222604 
L 325.430256 159.874321 
L 325.591881 159.857666 
L 325.753507 160.182979 
L 325.915132 160.177554 
L 326.238383 160.334039 
L 326.884886 160.286161 
L 327.046511 160.344465 
L 327.369762 159.907274 
L 327.531388 159.346377 
L 327.693013 160.178027 
L 328.662767 160.23217 
L 329.63252 159.889938 
L 329.794146 160.177356 
L 329.955771 160.180496 
L 330.279022 160.309501 
L 330.763899 160.284716 
L 330.925525 160.350971 
L 331.572027 160.173059 
L 331.733653 160.321869 
L 333.188283 160.285876 
L 333.834785 160.320025 
L 336.744045 160.333297 
L 336.905671 160.23274 
L 337.713798 160.2921 
L 338.198675 160.299323 
L 340.623058 160.241686 
L 340.94631 160.297048 
L 342.562565 160.31143 
L 343.047442 160.253523 
L 343.370693 160.281261 
L 345.3102 160.307124 
L 346.603204 160.313876 
L 346.76483 160.225453 
L 347.088081 160.298858 
L 348.381085 160.328899 
L 348.865962 160.288457 
L 349.350839 160.240745 
L 350.805469 160.337926 
L 351.290346 160.280783 
L 352.260099 160.326928 
L 352.906601 160.282273 
L 353.229852 160.261565 
L 353.714729 160.291896 
L 353.876355 160.260468 
L 354.03798 160.356081 
L 354.361231 160.281984 
L 355.007734 160.370901 
L 355.49261 160.296685 
L 356.139112 160.295976 
L 356.94724 160.246109 
L 357.270491 160.282721 
L 357.593743 160.371102 
L 357.755368 160.217152 
L 357.916994 160.357934 
L 358.40187 160.320054 
L 358.563496 160.348885 
L 358.886747 160.253819 
L 359.694875 160.333667 
L 360.664628 160.254806 
L 360.987879 160.347554 
L 361.149505 160.366336 
L 361.472756 160.205474 
L 361.796007 160.293466 
L 362.119258 160.31713 
L 364.543642 160.36233 
L 364.866893 160.277357 
L 365.675021 160.26255 
L 365.836646 160.318924 
L 365.998272 160.247239 
L 366.321523 160.351876 
L 366.644774 160.26315 
L 367.129651 160.330018 
L 367.452902 160.27163 
L 367.776153 160.349162 
L 367.937778 160.282309 
L 368.26103 160.328937 
L 368.422655 160.229242 
L 368.745906 160.338151 
L 369.554034 160.355847 
L 369.71566 160.170413 
L 370.038911 160.340702 
L 370.362162 160.301882 
L 373.756299 160.150166 
L 373.917924 160.004257 
L 374.07955 160.063142 
L 374.241175 160.29275 
L 375.857431 160.243668 
L 376.019057 159.664707 
L 376.180682 160.247251 
L 376.98881 160.268605 
L 377.473687 160.209893 
L 377.635312 160.256037 
L 377.958563 160.102574 
L 378.120189 160.107847 
L 378.281814 160.280046 
L 378.928317 160.315718 
L 415.940571 160.291604 
L 416.263822 160.327842 
L 417.071949 160.293506 
L 417.718452 160.288114 
L 419.98121 160.298253 
L 421.43584 160.318358 
L 422.082342 160.341637 
L 422.567219 160.210714 
L 422.89047 160.344667 
L 424.183474 160.324834 
L 424.3451 160.270472 
L 424.506725 160.001017 
L 424.506725 160.001017 
" clip-path="url(#pbc63baaff7)" style="fill: none; stroke: #1f77b4; stroke-linecap: square"/>
   </g>
   <g id="patch_3">
    <path d="M 36.44375 166.835 
L 36.44375 24.715 
" style="fill: none; stroke: #000000; stroke-width: 0.8; stroke-linejoin: miter; stroke-linecap: square"/>
   </g>
   <g id="patch_4">
    <path d="M 36.44375 166.835 
L 424.40975 166.835 
" style="fill: none; stroke: #000000; stroke-width: 0.8; stroke-linejoin: miter; stroke-linecap: square"/>
   </g>
   <g id="text_17">
    <text style="font: 16px 'Helvetica', sans-serif; text-anchor: middle" x="230.42675" y="18.715" transform="rotate(-0 230.42675 18.715)">Fourier magnitude spectrum</text>
   </g>
  </g>
  <g id="axes_2">
   <g id="patch_5">
    <path d="M 447.71975 166.835 
L 698.59375 166.835 
L 698.59375 24.715 
L 447.71975 24.715 
z
" style="fill: #ffffff"/>
   </g>
   <g id="matplotlib.axis_3">
    <g id="xtick_10">
     <g id="line2d_17">
      <g>
       <use xlink:href="#mb60d2e2fbd" x="447.71975" y="166.835" style="stroke: #000000; stroke-width: 0.8"/>
      </g>
     </g>
     <g id="text_18">
      <text style="font: 10px 'Helvetica', sans-serif; text-anchor: middle" x="447.71975" y="181.008437" transform="rotate(-0 447.71975 181.008437)">0.0</text>
     </g>
    </g>
    <g id="xtick_11">
     <g id="line2d_18">
      <g>
       <use xlink:href="#mb60d2e2fbd" x="497.89455" y="166.835" style="stroke: #000000; stroke-width: 0.8"/>
      </g>
     </g>
     <g id="text_19">
      <text style="font: 10px 'Helvetica', sans-serif; text-anchor: middle" x="497.89455" y="181.008437" transform="rotate(-0 497.89455 181.008437)">0.2</text>
     </g>
    </g>
    <g id="xtick_12">
     <g id="line2d_19">
      <g>
       <use xlink:href="#mb60d2e2fbd" x="548.06935" y="166.835" style="stroke: #000000; stroke-width: 0.8"/>
      </g>
     </g>
     <g id="text_20">
      <text style="font: 10px 'Helvetica', sans-serif; text-anchor: middle" x="548.06935" y="181.008437" transform="rotate(-0 548.06935 181.008437)">0.4</text>
     </g>
    </g>
    <g id="xtick_13">
     <g id="line2d_20">
      <g>
       <use xlink:href="#mb60d2e2fbd" x="598.24415" y="166.835" style="stroke: #000000; stroke-width: 0.8"/>
      </g>
     </g>
     <g id="text_21">
      <text style="font: 10px 'Helvetica', sans-serif; text-anchor: middle" x="598.24415" y="181.008437" transform="rotate(-0 598.24415 181.008437)">0.6</text>
     </g>
    </g>
    <g id="xtick_14">
     <g id="line2d_21">
      <g>
       <use xlink:href="#mb60d2e2fbd" x="648.41895" y="166.835" style="stroke: #000000; stroke-width: 0.8"/>
      </g>
     </g>
     <g id="text_22">
      <text style="font: 10px 'Helvetica', sans-serif; text-anchor: middle" x="648.41895" y="181.008437" transform="rotate(-0 648.41895 181.008437)">0.8</text>
     </g>
    </g>
    <g id="xtick_15">
     <g id="line2d_22">
      <g>
       <use xlink:href="#mb60d2e2fbd" x="698.59375" y="166.835" style="stroke: #000000; stroke-width: 0.8"/>
      </g>
     </g>
     <g id="text_23">
      <text style="font: 10px 'Helvetica', sans-serif; text-anchor: middle" x="698.59375" y="181.008437" transform="rotate(-0 698.59375 181.008437)">1.0</text>
     </g>
    </g>
    <g id="text_24">
     <text style="font: 14px 'Helvetica', sans-serif; text-anchor: middle" x="573.15675" y="197.299687" transform="rotate(-0 573.15675 197.299687)">Frequency (Hz)</text>
    </g>
   </g>
   <g id="matplotlib.axis_4"/>
   <g id="line2d_23">
    <path d="M 447.71975 103.544941 
L 451.900287 159.293144 
L 456.080823 157.473876 
L 460.26136 154.794009 
L 464.441896 152.076824 
L 468.622433 153.758122 
L 472.802969 156.066485 
L 476.983506 152.480097 
L 481.164043 145.74394 
L 485.344579 142.954148 
L 489.525116 153.993746 
L 493.705652 137.97358 
L 497.886189 73.951451 
L 502.066726 31.175 
L 506.247262 107.022142 
L 510.427799 118.064048 
L 514.608335 125.423983 
L 518.788872 134.437446 
L 522.969408 149.177224 
L 527.149945 153.506251 
L 531.330482 155.31187 
L 535.511018 145.941778 
L 539.691555 142.394672 
L 543.872091 146.627681 
L 548.052628 150.106033 
L 552.233164 132.977057 
L 556.413701 145.636309 
L 560.594238 159.240723 
L 564.774774 151.35343 
L 568.955311 143.379541 
L 573.135847 148.704295 
L 577.316384 154.662864 
L 581.49692 148.51444 
L 585.677457 153.249742 
L 589.857994 155.079859 
L 594.03853 157.924661 
L 598.219067 154.009905 
L 602.399603 159.19257 
L 606.58014 157.285014 
L 610.760677 154.825863 
L 614.941213 159.022509 
L 619.12175 159.843075 
L 623.302286 158.147694 
L 627.482823 158.343361 
L 631.663359 157.530231 
L 635.843896 154.378071 
L 640.024433 155.596759 
L 644.204969 156.469027 
L 648.385506 158.126885 
L 652.566042 155.914287 
L 656.746579 157.006128 
L 660.927115 156.412449 
L 665.107652 156.072512 
L 669.288189 158.075358 
L 673.468725 158.342223 
L 677.649262 156.236749 
L 681.829798 157.512053 
L 686.010335 155.603009 
L 690.190871 159.462254 
L 694.371408 153.47146 
L 698.551945 153.868339 
L 702.732481 155.21243 
" clip-path="url(#pb311e2236c)" style="fill: none; stroke: #1f77b4; stroke-linecap: square"/>
   </g>
   <g id="line2d_24">
    <defs>
     <path id="m835424c59a" d="M 0 3 
C 0.795609 3 1.55874 2.683901 2.12132 2.12132 
C 2.683901 1.55874 3 0.795609 3 0 
C 3 -0.795609 2.683901 -1.55874 2.12132 -2.12132 
C 1.55874 -2.683901 0.795609 -3 0 -3 
C -0.795609 -3 -1.55874 -2.683901 -2.12132 -2.12132 
C -2.683901 -1.55874 -3 -0.795609 -3 0 
C -3 0.795609 -2.683901 1.55874 -2.12132 2.12132 
C -1.55874 2.683901 -0.795609 3 0 3 
z
" style="stroke: #ff0000"/>
    </defs>
    <g clip-path="url(#pb311e2236c)">
     <use xlink:href="#m835424c59a" x="502.066726" y="31.175" style="fill: #ff0000; stroke: #ff0000"/>
    </g>
   </g>
   <g id="line2d_25">
    <path d="M 502.066726 166.835 
L 502.066726 24.715 
" clip-path="url(#pb311e2236c)" style="fill: none; stroke-dasharray: 3.7,1.6; stroke-dashoffset: 0; stroke: #808080"/>
   </g>
   <g id="patch_6">
    <path d="M 447.71975 166.835 
L 698.59375 166.835 
" style="fill: none; stroke: #000000; stroke-width: 0.8; stroke-linejoin: miter; stroke-linecap: square"/>
   </g>
   <g id="text_25">
    <text style="font: 12px 'Helvetica', sans-serif; text-anchor: start" x="514.610426" y="31.175" transform="rotate(-0 514.610426 31.175)">0.217Hz</text>
   </g>
  </g>
 </g>
 <defs>
  <clipPath id="pbc63baaff7">
   <rect x="36.44375" y="24.715" width="387.966" height="142.12"/>
  </clipPath>
  <clipPath id="pb311e2236c">
   <rect x="447.71975" y="24.715" width="250.874" height="142.12"/>
  </clipPath>
 </defs>
</svg>
