<?xml version="1.0" encoding="utf-8" standalone="no"?>
<!DOCTYPE svg PUBLIC "-//W3C//DTD SVG 1.1//EN"
  "http://www.w3.org/Graphics/SVG/1.1/DTD/svg11.dtd">
<svg xmlns:xlink="http://www.w3.org/1999/xlink" width="928.505312pt" height="207.631562pt" viewBox="0 0 928.505312 207.631562" xmlns="http://www.w3.org/2000/svg" version="1.1">
 <metadata>
  <rdf:RDF xmlns:dc="http://purl.org/dc/elements/1.1/" xmlns:cc="http://creativecommons.org/ns#" xmlns:rdf="http://www.w3.org/1999/02/22-rdf-syntax-ns#">
   <cc:Work>
    <dc:type rdf:resource="http://purl.org/dc/dcmitype/StillImage"/>
    <dc:date>2024-10-01T16:23:32.953665</dc:date>
    <dc:format>image/svg+xml</dc:format>
    <dc:creator>
     <cc:Agent>
      <dc:title>Matplotlib v3.9.2, https://matplotlib.org/</dc:title>
     </cc:Agent>
    </dc:creator>
   </cc:Work>
  </rdf:RDF>
 </metadata>
 <defs>
  <style type="text/css">*{stroke-linejoin: round; stroke-linecap: butt}</style>
 </defs>
 <g id="figure_1">
  <g id="patch_1">
   <path d="M 0 207.631562 
L 928.505312 207.631562 
L 928.505312 0 
L 0 0 
z
" style="fill: #ffffff"/>
  </g>
  <g id="axes_1">
   <g id="patch_2">
    <path d="M 43.015313 167.11 
L 739.801312 167.11 
L 739.801312 24.99 
L 43.015313 24.99 
z
" style="fill: #ffffff"/>
   </g>
   <g id="matplotlib.axis_1">
    <g id="xtick_1">
     <g id="line2d_1">
      <defs>
       <path id="m7f5f389b05" d="M 0 0 
L 0 3.5 
" style="stroke: #000000; stroke-width: 0.8"/>
      </defs>
      <g>
       <use xlink:href="#m7f5f389b05" x="74.687403" y="167.11" style="stroke: #000000; stroke-width: 0.8"/>
      </g>
     </g>
     <g id="text_1">
      <text style="font: 10px 'Helvetica', sans-serif; text-anchor: middle" x="74.687403" y="181.283437" transform="rotate(-0 74.687403 181.283437)">0</text>
     </g>
    </g>
    <g id="xtick_2">
     <g id="line2d_2">
      <g>
       <use xlink:href="#m7f5f389b05" x="180.26104" y="167.11" style="stroke: #000000; stroke-width: 0.8"/>
      </g>
     </g>
     <g id="text_2">
      <text style="font: 10px 'Helvetica', sans-serif; text-anchor: middle" x="180.26104" y="181.283437" transform="rotate(-0 180.26104 181.283437)">10</text>
     </g>
    </g>
    <g id="xtick_3">
     <g id="line2d_3">
      <g>
       <use xlink:href="#m7f5f389b05" x="285.834676" y="167.11" style="stroke: #000000; stroke-width: 0.8"/>
      </g>
     </g>
     <g id="text_3">
      <text style="font: 10px 'Helvetica', sans-serif; text-anchor: middle" x="285.834676" y="181.283437" transform="rotate(-0 285.834676 181.283437)">20</text>
     </g>
    </g>
    <g id="xtick_4">
     <g id="line2d_4">
      <g>
       <use xlink:href="#m7f5f389b05" x="391.408312" y="167.11" style="stroke: #000000; stroke-width: 0.8"/>
      </g>
     </g>
     <g id="text_4">
      <text style="font: 10px 'Helvetica', sans-serif; text-anchor: middle" x="391.408312" y="181.283437" transform="rotate(-0 391.408312 181.283437)">30</text>
     </g>
    </g>
    <g id="xtick_5">
     <g id="line2d_5">
      <g>
       <use xlink:href="#m7f5f389b05" x="496.981949" y="167.11" style="stroke: #000000; stroke-width: 0.8"/>
      </g>
     </g>
     <g id="text_5">
      <text style="font: 10px 'Helvetica', sans-serif; text-anchor: middle" x="496.981949" y="181.283437" transform="rotate(-0 496.981949 181.283437)">40</text>
     </g>
    </g>
    <g id="xtick_6">
     <g id="line2d_6">
      <g>
       <use xlink:href="#m7f5f389b05" x="602.555585" y="167.11" style="stroke: #000000; stroke-width: 0.8"/>
      </g>
     </g>
     <g id="text_6">
      <text style="font: 10px 'Helvetica', sans-serif; text-anchor: middle" x="602.555585" y="181.283437" transform="rotate(-0 602.555585 181.283437)">50</text>
     </g>
    </g>
    <g id="xtick_7">
     <g id="line2d_7">
      <g>
       <use xlink:href="#m7f5f389b05" x="708.129222" y="167.11" style="stroke: #000000; stroke-width: 0.8"/>
      </g>
     </g>
     <g id="text_7">
      <text style="font: 10px 'Helvetica', sans-serif; text-anchor: middle" x="708.129222" y="181.283437" transform="rotate(-0 708.129222 181.283437)">60</text>
     </g>
    </g>
    <g id="text_8">
     <text style="font: 14px 'Helvetica', sans-serif; text-anchor: middle" x="391.408312" y="197.513437" transform="rotate(-0 391.408312 197.513437)">Time (sec)</text>
    </g>
   </g>
   <g id="matplotlib.axis_2">
    <g id="ytick_1">
     <g id="line2d_8">
      <defs>
       <path id="ma0aa23d5ca" d="M 0 0 
L -3.5 0 
" style="stroke: #000000; stroke-width: 0.8"/>
      </defs>
      <g>
       <use xlink:href="#ma0aa23d5ca" x="43.015313" y="130.13255" style="stroke: #000000; stroke-width: 0.8"/>
      </g>
     </g>
     <g id="text_9">
      <text style="font: 10px 'Helvetica', sans-serif; text-anchor: end" x="36.015313" y="133.719269" transform="rotate(-0 36.015313 133.719269)">−2</text>
     </g>
    </g>
    <g id="ytick_2">
     <g id="line2d_9">
      <g>
       <use xlink:href="#ma0aa23d5ca" x="43.015313" y="91.839189" style="stroke: #000000; stroke-width: 0.8"/>
      </g>
     </g>
     <g id="text_10">
      <text style="font: 10px 'Helvetica', sans-serif; text-anchor: end" x="36.015313" y="95.425908" transform="rotate(-0 36.015313 95.425908)">0</text>
     </g>
    </g>
    <g id="ytick_3">
     <g id="line2d_10">
      <g>
       <use xlink:href="#ma0aa23d5ca" x="43.015313" y="53.545828" style="stroke: #000000; stroke-width: 0.8"/>
      </g>
     </g>
     <g id="text_11">
      <text style="font: 10px 'Helvetica', sans-serif; text-anchor: end" x="36.015313" y="57.132547" transform="rotate(-0 36.015313 57.132547)">2</text>
     </g>
    </g>
    <g id="text_12">
     <text style="font: 14px 'Helvetica', sans-serif; text-anchor: middle" x="17.51625" y="96.05" transform="rotate(-90 17.51625 96.05)">Gauge pressure (cmH20)</text>
    </g>
   </g>
   <g id="line2d_11">
    <path d="M 74.687403 144.012162 
L 74.898551 146.271622 
L 75.004124 145.244595 
L 75.109698 147.140644 
L 75.215272 145.560603 
L 75.531993 151.612162 
L 75.74314 150.585135 
L 75.848713 152.386383 
L 75.954287 151.122349 
L 76.059861 152.639189 
L 76.165434 151.705528 
L 76.376582 153.666216 
L 76.587729 153.05 
L 76.693303 156.172162 
L 76.90445 155.514865 
L 77.010023 154.319779 
L 77.115597 154.693243 
L 77.326744 156.541892 
L 77.432318 155.981695 
L 77.537892 156.541892 
L 77.643465 155.608231 
L 77.749039 156.439189 
L 77.854613 155.686036 
L 78.06576 159.047838 
L 78.382481 156.254324 
L 78.488054 159.098048 
L 78.804775 156.541892 
L 79.015923 156.576126 
L 79.22707 156.952703 
L 79.332643 154.693243 
L 79.438217 156.665135 
L 79.754938 154.128378 
L 79.860512 155.283784 
L 80.177233 153.101351 
L 80.282806 154.058354 
L 80.38838 156.09 
L 80.493953 155.994144 
L 80.705101 153.871622 
L 80.810674 155.925676 
L 81.021822 154.282432 
L 81.127395 153.05 
L 81.232969 155.346806 
L 81.444116 153.666216 
L 81.655263 152.73048 
L 81.760837 153.42921 
L 81.866411 155.32526 
L 81.971984 154.002334 
L 82.077558 155.925676 
L 82.288705 154.311776 
L 82.394279 156.859337 
L 82.605426 155.514865 
L 82.711 155.514865 
L 82.816573 159.622973 
L 83.027721 154.795946 
L 83.238868 155.925676 
L 83.344442 155.609667 
L 83.450015 153.727838 
L 83.555589 154.094144 
L 83.661163 152.211261 
L 83.766736 152.947297 
L 83.977883 150.024939 
L 84.083457 149.968919 
L 84.294604 148.325676 
L 84.400178 148.777568 
L 84.505752 147.401351 
L 84.611325 148.222973 
L 84.716899 147.435586 
L 84.822473 148.804955 
L 85.350341 144.628378 
L 85.455914 144.628378 
L 85.561488 145.141892 
L 85.667062 143.601351 
L 85.772635 144.505135 
L 85.983783 142.424939 
L 86.089356 142.985135 
L 86.300503 141.341892 
L 86.406077 141.341892 
L 86.511651 142.289917 
L 86.828372 140.725676 
L 86.933945 140.171081 
L 87.145093 142.368919 
L 87.250666 142.368919 
L 87.35624 143.30258 
L 87.567387 142.25688 
L 87.672961 141.804054 
L 87.778534 142.317568 
L 87.989682 140.725676 
L 88.095255 140.165479 
L 88.200829 141.117813 
L 88.51755 137.439189 
L 88.623123 136.412162 
L 88.728697 138.279484 
L 88.834271 137.85 
L 89.045418 135.795946 
L 89.150992 135.795946 
L 89.256565 134.152703 
L 89.362139 135.385135 
L 89.573286 132.746466 
L 89.995581 130.100614 
L 90.417875 122.371236 
L 90.523449 122.81139 
L 90.629023 121.212162 
L 90.734596 121.588739 
L 90.84017 121.246396 
L 91.156891 119.158108 
L 91.262464 120.091769 
L 91.473612 119.158108 
L 91.579185 118.644595 
L 92.107053 112.585135 
L 92.318201 109.788462 
L 93.057216 105.30258 
L 93.268363 104.331572 
L 93.373937 103.958108 
L 93.585084 102.314865 
L 93.690658 102.314865 
L 94.007379 100.671622 
L 94.429673 95.536486 
L 94.957542 95.49914 
L 95.168689 95.125676 
L 95.274263 94.92027 
L 95.48541 93.893243 
L 95.590983 93.090295 
L 95.696557 89.168919 
L 95.802131 91.202432 
L 95.907704 89.318305 
L 96.013278 90.812162 
L 96.329999 88.758108 
L 96.435573 88.758108 
L 96.963441 85.060811 
L 97.069014 85.092412 
L 97.174588 85.40842 
L 97.385735 87.053243 
L 97.596883 87.170885 
L 97.702456 87.731081 
L 98.019177 86.181204 
L 98.230324 89.785135 
L 98.335898 89.785135 
L 98.441472 90.1586 
L 99.074913 87.170885 
L 99.919503 80.952703 
L 100.13065 75.84039 
L 100.236223 79.925676 
L 100.447371 78.693243 
L 100.552944 77.386118 
L 100.658518 77.597748 
L 100.869665 76.564496 
L 101.080813 75.375156 
L 101.397533 73.558108 
L 101.503107 73.558108 
L 101.819828 71.354668 
L 102.030975 69.319287 
L 102.242123 59.29955 
L 102.45327 67.395946 
L 103.086712 64.370885 
L 103.509006 60.269958 
L 103.61458 60.585967 
L 103.825727 59.590541 
L 103.931301 59.403808 
L 104.036874 58.335285 
L 104.142448 53.59955 
L 104.248022 39.05 
L 104.353595 41.72027 
L 104.564743 56.623574 
L 104.77589 57.536486 
L 104.987037 56.550541 
L 105.092611 56.879189 
L 105.620479 54.364114 
L 105.726053 53.839189 
L 105.831626 54.25 
L 106.042773 52.401351 
L 106.148347 52.401351 
L 106.253921 50.018649 
L 106.465068 31.45 
L 106.570642 37.612162 
L 106.781789 51.785135 
L 106.887363 52.401351 
L 107.09851 53.839189 
L 107.626378 55.893243 
L 107.731952 56.92027 
L 107.837525 56.845577 
L 107.943099 56.550541 
L 108.048673 56.826904 
L 108.154246 55.893243 
L 108.25982 56.92027 
L 108.365393 55.40774 
L 108.576541 40.077027 
L 108.787688 56.035447 
L 108.893262 56.509459 
L 109.104409 55.14009 
L 109.209983 56.509459 
L 109.42113 55.02422 
L 109.526703 55.814241 
L 109.632277 54.866216 
L 109.737851 56.509459 
L 109.843424 55.277027 
L 109.948998 55.807658 
L 110.054572 54.951802 
L 110.371293 57.433784 
L 110.476866 56.92027 
L 110.688013 40.344054 
L 111.004734 57.433784 
L 111.110308 56.92027 
L 111.215882 56.981892 
L 111.321455 57.536486 
L 111.427029 57.468018 
L 111.532603 57.022973 
L 111.74375 57.536486 
L 111.849323 57.536486 
L 111.954897 57.022973 
L 112.166044 57.947297 
L 112.482765 57.947297 
L 112.588339 56.92027 
L 112.799486 42.728624 
L 113.116207 59.419369 
L 113.221781 58.563514 
L 113.432928 59.522072 
L 113.538502 59.086364 
L 113.749649 59.590541 
L 113.960796 59.641892 
L 114.171943 60.617568 
L 114.277517 60.206757 
L 114.383091 60.366517 
L 114.488664 61.644595 
L 114.594238 61.38317 
L 114.699812 58.918305 
L 114.910959 45.52027 
L 115.122106 63.119779 
L 115.333253 64.931081 
L 115.861122 67.395946 
L 116.072269 69.898157 
L 116.177843 70.271622 
L 116.38899 72.607157 
L 116.600137 73.367918 
L 116.705711 74.904655 
L 116.811284 73.506757 
L 117.022432 65.775526 
L 117.339153 74.533784 
L 117.5503 73.968919 
L 117.655873 73.603754 
L 117.867021 73.968919 
L 117.972594 73.968919 
L 118.183742 74.995946 
L 118.289315 74.9503 
L 118.500463 74.585135 
L 118.71161 74.622482 
L 118.922757 75.180811 
L 119.133904 69.980631 
L 119.345052 78.282432 
L 119.450625 78.319779 
L 119.556199 78.693243 
L 119.767346 78.282432 
L 119.87292 78.282432 
L 120.084067 77.666216 
L 120.189641 78.194402 
L 120.295214 77.754247 
L 120.506362 78.323514 
L 120.611935 78.655897 
L 120.717509 78.282432 
L 120.928656 79.1414 
L 121.03423 78.077027 
L 121.245377 73.688821 
L 121.456524 80.000369 
L 121.773245 81.075946 
L 122.089966 84.033784 
L 122.406687 85.060811 
L 122.828982 85.098157 
L 122.934555 85.471622 
L 123.040129 86.261642 
L 123.145702 85.759189 
L 123.35685 83.697666 
L 123.567997 87.731081 
L 124.307013 87.731081 
L 124.623733 88.696486 
L 124.729307 88.203514 
L 124.940454 88.758108 
L 125.046028 88.758108 
L 125.151602 89.168919 
L 125.257175 88.907494 
L 125.362749 87.731081 
L 125.468323 87.845195 
L 125.67947 89.673096 
L 125.785043 89.230541 
L 125.996191 89.785135 
L 126.101764 89.785135 
L 126.207338 89.661892 
L 126.312912 89.271622 
L 126.735206 91.521744 
L 126.946353 92.866216 
L 127.157501 92.866216 
L 127.263074 93.482432 
L 127.368648 93.413964 
L 127.579795 92.866216 
L 127.790943 94.509459 
L 128.424384 98.617568 
L 128.846679 104.317568 
L 129.1634 109.093243 
L 130.007989 129.291441 
L 130.747004 137.85 
L 130.852578 138.167445 
L 131.063725 140.109459 
L 131.169299 140.109459 
L 131.274873 140.613636 
L 131.380446 140.165479 
L 131.48602 140.725676 
L 131.802741 144.505135 
L 131.908314 143.627027 
L 132.119462 145.244595 
L 132.225035 145.285676 
L 132.64733 147.059009 
L 132.752903 147.914865 
L 132.858477 146.55172 
L 132.964051 149.352703 
L 133.069624 147.658108 
L 133.175198 149.854805 
L 133.386345 148.864865 
L 133.491919 148.467879 
L 133.703066 149.215766 
L 133.914213 150.585135 
L 134.125361 150.037387 
L 134.336508 150.585135 
L 134.442082 150.585135 
L 134.653229 149.352703 
L 134.758803 149.284234 
L 134.864376 148.941892 
L 134.96995 148.982973 
L 135.075523 149.311622 
L 135.181097 149.17012 
L 135.286671 150.521933 
L 135.392244 148.151871 
L 135.814539 151.612162 
L 136.025686 149.968919 
L 136.13126 149.968919 
L 136.236833 148.136071 
L 136.447981 149.968919 
L 136.553554 150.030541 
L 136.659128 150.585135 
L 136.764702 150.338649 
L 136.975849 148.941892 
L 137.081423 148.685135 
L 137.186996 148.045577 
L 137.29257 149.352703 
L 137.398143 149.240663 
L 137.503717 148.941892 
L 137.609291 149.240663 
L 137.820438 150.679938 
L 138.031585 151.332064 
L 138.137159 150.659828 
L 138.242733 151.201351 
L 138.348306 152.821772 
L 138.45388 151.294717 
L 138.559453 152.562162 
L 138.665027 152.207838 
L 138.770601 152.359091 
L 138.981748 150.927477 
L 139.192895 152.741892 
L 139.298469 153.57285 
L 139.404043 152.639189 
L 139.509616 153.483634 
L 139.61519 152.117775 
L 139.720763 152.591788 
L 139.826337 154.17973 
L 139.931911 153.666216 
L 140.037484 154.528919 
L 140.248632 152.169691 
L 140.459779 154.17973 
L 140.565353 153.666216 
L 140.670926 153.953784 
L 140.882073 150.743139 
L 140.987647 151.53316 
L 141.304368 149.968919 
L 141.409942 150.529115 
L 141.621089 148.428378 
L 141.726663 148.941892 
L 141.832236 148.008231 
L 141.93781 148.222973 
L 142.043383 148.017568 
L 142.148957 148.713664 
L 142.360104 146.887838 
L 142.465678 147.504054 
L 142.571252 146.777235 
L 142.676825 147.800751 
L 142.782399 147.116066 
L 142.887972 147.914865 
L 142.993546 147.686637 
L 143.204693 145.655405 
L 143.310267 145.532162 
L 143.415841 144.740418 
L 143.626988 141.436694 
L 143.732562 141.752703 
L 143.943709 137.85 
L 144.366003 133.836694 
L 144.999445 129.09226 
L 145.105019 129.382733 
L 145.949608 123.759189 
L 146.055182 124.530249 
L 147.005344 114.187297 
L 147.110918 113.632703 
L 147.533212 107.963514 
L 147.74436 105.022482 
L 148.272228 97.323514 
L 148.588949 95.536486 
L 149.011243 95.49914 
L 149.539112 93.665015 
L 149.750259 89.435946 
L 149.961406 93.599807 
L 150.278127 94.509459 
L 150.700422 92.024054 
L 150.911569 93.893243 
L 151.017143 93.81855 
L 151.439437 92.352703 
L 152.3896 83.417568 
L 152.495173 83.828378 
L 152.706321 82.801351 
L 152.917468 76.043514 
L 153.023042 79.869656 
L 153.234189 78.17973 
L 154.501073 66.286757 
L 154.606646 66.04027 
L 154.71222 66.107494 
L 154.817793 64.258845 
L 155.028941 51.086757 
L 155.345662 63.792015 
L 155.451235 62.671622 
L 155.556809 63.050832 
L 155.979103 60.617568 
L 156.084677 61.233784 
L 156.190251 61.101737 
L 156.295824 60.661583 
L 156.401398 60.771622 
L 156.506972 61.233784 
L 156.612545 61.028378 
L 156.929266 57.433784 
L 157.140413 46.193544 
L 157.351561 60.617568 
L 157.562708 60.206757 
L 157.879429 60.138288 
L 157.985003 59.693243 
L 158.090576 60.206757 
L 158.19615 59.590541 
L 158.407297 60.206757 
L 158.512871 59.964005 
L 158.618444 60.360811 
L 158.829592 59.590541 
L 158.935165 59.478501 
L 159.040739 57.984644 
L 159.251886 44.111776 
L 159.35746 48.660039 
L 159.568607 60.206757 
L 159.674181 60.28145 
L 160.413196 63.105255 
L 160.51877 61.815766 
L 160.624343 62.671622 
L 160.941064 61.233784 
L 161.046638 60.494324 
L 161.152212 55.071622 
L 161.257785 42.747297 
L 161.363359 43.312162 
L 161.68008 61.131081 
L 161.891227 60.617568 
L 162.102374 60.617568 
L 162.207948 61.569902 
L 162.419095 61.233784 
L 162.524669 61.233784 
L 162.630243 61.370721 
L 162.735816 61.325075 
L 162.84139 60.206757 
L 162.946963 60.288919 
L 163.158111 60.617568 
L 163.263684 57.611179 
L 163.369258 48.087838 
L 163.474832 48.255897 
L 163.685979 60.434985 
L 164.0027 62.384054 
L 164.319421 64.285521 
L 164.424994 63.287838 
L 164.636142 64.156861 
L 164.847289 63.287838 
L 164.952863 63.287838 
L 165.16401 64.212162 
L 165.269583 63.835586 
L 165.375157 61.872823 
L 165.586304 51.46769 
L 165.797452 64.674324 
L 166.008599 63.287838 
L 166.114172 63.719189 
L 166.219746 63.430042 
L 166.32532 63.904054 
L 166.430893 63.441892 
L 166.747614 64.869459 
L 166.853188 64.391892 
L 167.169909 65.958108 
L 167.275483 65.958108 
L 167.381056 65.547297 
L 167.48663 63.123514 
L 167.697777 51.168919 
L 167.908924 66.574324 
L 168.120072 67.395946 
L 168.64794 67.395946 
L 168.753513 69.039189 
L 168.859087 68.217568 
L 168.964661 68.340811 
L 169.070234 68.721744 
L 169.175808 68.273587 
L 169.386955 68.833784 
L 169.492529 68.696847 
L 169.598103 65.796718 
L 169.703676 57.72722 
L 169.80925 60.148069 
L 170.020397 68.945823 
L 170.442692 70.887838 
L 170.548265 70.719779 
L 170.653839 70.374324 
L 171.181707 72.690841 
L 171.498428 76.228378 
L 171.604002 76.15991 
L 171.709575 74.687838 
L 171.920723 69.804791 
L 172.026296 76.228378 
L 172.13187 76.091441 
L 172.343017 75.612162 
L 172.765312 75.673784 
L 172.976459 76.31967 
L 173.504327 77.666216 
L 173.715474 77.666216 
L 173.821048 77.255405 
L 174.032195 72.068919 
L 174.243342 78.323514 
L 174.560063 79.309459 
L 174.665637 79.371081 
L 174.876784 79.925676 
L 175.193505 80.952703 
L 175.299079 81.027396 
L 175.510226 82.185135 
L 175.826947 83.417568 
L 175.932521 82.830695 
L 176.038094 79.309459 
L 176.143668 79.83231 
L 176.354815 85.933784 
L 176.460389 85.548649 
L 176.882683 87.731081 
L 176.988257 87.848456 
L 177.621699 89.897174 
L 177.93842 91.428378 
L 178.043993 90.935405 
L 178.255141 89.548129 
L 178.571862 92.866216 
L 178.677435 93.003153 
L 179.09973 95.125676 
L 179.733172 95.048649 
L 179.838745 94.509459 
L 179.944319 94.621499 
L 180.049892 95.069656 
L 180.26104 94.509459 
L 180.472187 94.940811 
L 180.683334 94.509459 
L 181.316776 94.509459 
L 181.527923 95.125676 
L 181.739071 95.536486 
L 181.950218 95.613514 
L 182.161365 96.152703 
L 182.478086 96.221171 
L 182.900381 98.617568 
L 183.005954 98.686036 
L 183.217102 100.548378 
L 183.74497 109.242629 
L 185.117427 134.22973 
L 185.434148 137.490541 
L 185.645295 139.801351 
L 186.595458 147.914865 
L 186.701032 147.914865 
L 186.806605 148.143093 
L 187.123326 149.784054 
L 187.2289 149.240663 
L 187.334473 149.398348 
L 187.440047 150.872703 
L 187.651194 149.352703 
L 187.862342 152.707658 
L 188.284636 154.035946 
L 188.39021 153.689039 
L 188.495783 155.247838 
L 188.601357 154.282432 
L 188.812504 156.110541 
L 189.023652 155.346806 
L 189.129225 157.62027 
L 189.340373 155.925676 
L 189.657093 155.925676 
L 189.973814 156.665135 
L 190.079388 159.436241 
L 190.290535 158.185135 
L 190.396109 158.527477 
L 190.607256 159.494595 
L 190.818403 156.336486 
L 190.923977 158.031081 
L 191.240698 154.487838 
L 191.346272 155.813636 
L 191.451845 155.606156 
L 191.557419 155.925676 
L 191.768566 154.875826 
L 191.87414 156.672604 
L 192.085287 152.684835 
L 192.190861 152.756564 
L 192.296434 153.366008 
L 192.402008 154.875826 
L 192.613155 150.995946 
L 192.824302 151.488919 
L 193.03545 149.352703 
L 193.141023 149.352703 
L 193.352171 149.840541 
L 193.457744 148.941892 
L 193.563318 149.033183 
L 193.774465 149.90045 
L 193.880039 152.091441 
L 193.985613 150.995946 
L 194.091186 152.365315 
L 194.302333 156.418649 
L 194.513481 158.259828 
L 194.724628 159.622973 
L 194.830202 159.180561 
L 194.935775 158.287838 
L 195.041349 159.143694 
L 195.35807 156.037715 
L 196.202659 141.847505 
L 196.308233 142.497297 
L 196.51938 138.404595 
L 196.730527 135.683907 
L 197.047248 133.587838 
L 197.258395 131.01 
L 197.469543 127.405925 
L 197.575116 127.57973 
L 197.891837 122.855405 
L 198.630853 109.788462 
L 198.842 106.441646 
L 199.792163 95.424447 
L 200.108883 94.509459 
L 200.214457 94.646396 
L 200.320031 95.125676 
L 200.425604 94.957617 
L 200.636752 94.509459 
L 200.847899 94.509459 
L 201.059046 93.893243 
L 201.16462 93.893243 
L 201.270193 94.057568 
L 201.375767 94.468378 
L 201.481341 93.893243 
L 201.692488 94.355405 
L 201.903635 93.482432 
L 202.009209 88.942973 
L 202.114782 90.504054 
L 202.959372 82.185135 
L 203.064945 81.97973 
L 203.381666 80.359309 
L 203.592813 77.922973 
L 203.803961 81.363514 
L 204.015108 81.281351 
L 204.120682 81.034865 
L 204.226255 81.260811 
L 204.754123 78.154054 
L 205.176418 74.37973 
L 205.493139 72.839189 
L 205.704286 67.053604 
L 205.915433 72.680467 
L 206.021007 72.818649 
L 206.126581 72.64312 
L 206.232154 72.850601 
L 206.443302 72.531081 
L 206.865596 67.327477 
L 207.287891 65.341892 
L 207.393464 65.250601 
L 207.499038 64.931081 
L 207.604612 62.517568 
L 207.815759 53.086036 
L 208.026906 62.808559 
L 208.13248 63.767117 
L 208.343627 61.831327 
L 208.449201 62.543243 
L 208.660348 61.233784 
L 208.765922 61.233784 
L 208.871495 60.754505 
L 208.977069 61.065725 
L 209.188216 60.514865 
L 209.29379 60.258108 
L 209.399363 60.337469 
L 209.610511 59.265315 
L 209.821658 40.624775 
L 209.927232 42.815766 
L 210.138379 58.263306 
L 210.243952 58.933243 
L 210.4551 58.132162 
L 210.982968 60.526276 
L 211.088542 60.33 
L 211.405262 61.507658 
L 211.510836 61.233784 
L 211.61641 61.345823 
L 211.721983 61.27113 
L 211.827557 57.507143 
L 211.933131 45.006757 
L 212.038704 50.21036 
L 212.249852 62.603153 
L 212.355425 62.97973 
L 212.460999 62.671622 
L 212.566573 62.774324 
L 212.883293 63.904054 
L 212.988867 64.006757 
L 213.305588 64.725676 
L 213.516735 64.314865 
L 213.622309 64.543093 
L 213.727883 65.085135 
L 213.833456 64.417568 
L 213.93903 61.422072 
L 214.150177 54.227177 
L 214.361324 65.958108 
L 214.466898 66.214865 
L 214.678045 67.395946 
L 215.628208 67.395946 
L 215.733782 67.827297 
L 215.944929 68.833784 
L 216.050502 66.861892 
L 216.26165 60.206757 
L 216.578371 71.914865 
L 216.683944 72.068919 
L 217.000665 73.558108 
L 217.106239 73.681351 
L 217.634107 76.043514 
L 217.739681 75.797027 
L 217.950828 76.228378 
L 218.056402 76.303071 
L 218.161975 75.954505 
L 218.267549 70.850491 
L 218.373123 71.896192 
L 218.58427 77.51683 
L 218.689843 77.640541 
L 218.795417 78.045426 
L 218.900991 77.724903 
L 219.323285 78.693243 
L 219.428859 78.647598 
L 219.640006 78.282432 
L 219.851153 78.333784 
L 219.956727 78.539189 
L 220.167874 78.528919 
L 220.379022 72.804955 
L 220.484595 73.763514 
L 220.590169 79.181081 
L 220.801316 78.282432 
L 221.012463 78.57 
L 221.223611 77.94009 
L 221.540332 79.437838 
L 221.962626 83.540811 
L 222.279347 85.471622 
L 222.384921 85.455821 
L 222.596068 83.286855 
L 222.912789 89.405925 
L 223.862952 97.077027 
L 224.496393 109.409252 
L 225.446556 130.866216 
L 225.763277 135.777273 
L 226.185572 141.204955 
L 226.291145 140.611562 
L 226.502293 143.026216 
L 226.607866 143.806757 
L 226.71344 143.532883 
L 227.241308 146.198263 
L 227.346882 147.826834 
L 227.452455 147.134324 
L 227.558029 147.410688 
L 227.663603 148.531081 
L 227.769176 148.485435 
L 227.87475 148.513964 
L 227.980323 149.198649 
L 228.191471 148.101597 
L 228.402618 149.85688 
L 228.508192 148.448919 
L 228.719339 150.585135 
L 228.930486 152.415111 
L 229.03606 151.910934 
L 229.141633 152.068619 
L 229.247207 153.498157 
L 229.352781 153.358108 
L 229.458354 153.834275 
L 229.563928 153.386118 
L 229.880649 156.772973 
L 230.091796 154.405676 
L 230.19737 154.556306 
L 230.408517 156.998348 
L 230.514091 156.257484 
L 230.619664 157.158108 
L 230.725238 159.143694 
L 230.830812 158.778529 
L 230.936385 160.307658 
L 231.147533 157.97973 
L 231.253106 158.86982 
L 231.35868 158.778529 
L 231.464253 159.684595 
L 231.569827 157.680958 
L 231.675401 159.109459 
L 231.780974 157.568919 
L 231.992122 158.801351 
L 232.097695 157.275483 
L 232.203269 158.082432 
L 232.308843 157.856486 
L 232.414416 158.938288 
L 232.51999 157.849017 
L 232.625563 157.961057 
L 232.836711 160.65 
L 233.047858 158.932064 
L 233.153432 158.820025 
L 233.259005 158.534324 
L 233.364579 156.952703 
L 233.470153 157.304826 
L 233.575726 157.243694 
L 233.892447 154.213964 
L 233.998021 155.122727 
L 234.103594 153.535504 
L 234.209168 155.280116 
L 234.420315 152.331081 
L 234.525889 151.929607 
L 234.84261 148.23231 
L 235.053757 149.352703 
L 235.159331 148.736486 
L 235.264904 147.014241 
L 235.476052 147.750541 
L 235.581625 147.634767 
L 235.687199 148.140811 
L 235.898346 143.806757 
L 236.00392 144.460319 
L 236.426214 138.055405 
L 236.637362 136.412162 
L 236.954083 135.347789 
L 237.059656 134.504826 
L 237.16523 134.911123 
L 237.270803 134.460811 
L 237.376377 134.563514 
L 237.481951 133.433784 
L 237.587524 133.844595 
L 237.904245 130.706456 
L 238.220966 127.168919 
L 238.32654 126.415766 
L 238.643261 122.239189 
L 240.965881 95.967838 
L 241.282602 94.509459 
L 241.388175 94.372523 
L 241.704896 92.523874 
L 241.81047 88.384644 
L 241.916043 88.758108 
L 242.232764 84.780713 
L 243.288501 74.995946 
L 243.394074 74.831622 
L 243.710795 68.012162 
L 243.921943 72.941892 
L 244.027516 72.804955 
L 244.555384 74.253326 
L 244.872105 75.232952 
L 244.977679 75.612162 
L 245.2944 74.508108 
L 245.505547 73.649399 
L 245.716694 64.771321 
L 245.822268 67.153194 
L 245.927842 70.421007 
L 246.244563 68.217568 
L 246.561283 67.395946 
L 246.983578 67.395946 
L 247.089152 67.190541 
L 247.300299 66.368919 
L 247.61702 66.30045 
L 247.828167 55.482432 
L 247.933741 58.283415 
L 248.039314 65.192506 
L 248.144888 64.931081 
L 248.250462 64.684595 
L 248.567183 63.472703 
L 248.672756 63.719189 
L 248.77833 63.518919 
L 248.883903 63.904054 
L 249.200624 62.671622 
L 249.411772 63.164595 
L 249.517345 62.794865 
L 249.622919 63.133784 
L 249.728493 62.096486 
L 249.93964 46.752703 
L 250.045213 48.413063 
L 250.361934 62.671622 
L 250.467508 62.671622 
L 250.573082 62.522236 
L 250.995376 60.891441 
L 251.206523 62.260811 
L 251.312097 62.443393 
L 251.628818 63.493243 
L 251.734392 63.411081 
L 251.839965 62.671622 
L 252.156686 50.963514 
L 252.367833 62.902703 
L 252.473407 62.97973 
L 252.684554 62.522236 
L 252.895702 62.717267 
L 253.212423 61.644595 
L 253.317996 61.473423 
L 253.529143 60.925676 
L 253.634717 61.302252 
L 253.740291 61.074024 
L 253.845864 61.924693 
L 253.951438 61.192703 
L 254.162585 45.268182 
L 254.268159 47.933784 
L 254.479306 62.8957 
L 254.690453 63.287838 
L 255.112748 64.314865 
L 255.218322 64.314865 
L 255.429469 64.931081 
L 255.535042 64.314865 
L 255.957337 65.341892 
L 256.062911 64.52027 
L 256.274058 49.450983 
L 256.590779 65.701351 
L 256.696353 65.547297 
L 257.013073 66.728378 
L 257.118647 66.574324 
L 257.329794 67.395946 
L 258.174383 67.395946 
L 258.385531 60.953686 
L 258.491104 61.370721 
L 258.702252 68.217568 
L 258.807825 68.441646 
L 259.441267 72.257207 
L 259.546841 72.171622 
L 259.652414 72.531081 
L 259.969135 71.914865 
L 260.180283 72.531081 
L 260.285856 72.3 
L 260.602577 65.843994 
L 260.919298 72.941892 
L 261.130445 74.585135 
L 261.236019 74.749459 
L 261.975034 77.666216 
L 262.397329 78.693243 
L 262.608476 73.147297 
L 262.71405 74.603808 
L 262.925197 79.72027 
L 263.030771 79.583333 
L 263.347492 80.336486 
L 263.558639 80.336486 
L 263.769786 80.131081 
L 263.87536 80.336486 
L 264.086507 80.131081 
L 264.297654 80.336486 
L 264.508802 80.336486 
L 264.614375 79.446396 
L 264.719949 76.695209 
L 264.825523 76.782973 
L 265.03667 81.856486 
L 265.142243 81.363514 
L 265.247817 81.692162 
L 265.881259 86.498649 
L 266.725848 95.166757 
L 267.042569 101.356306 
L 268.626173 136.16941 
L 268.942894 139.883514 
L 269.259615 144.422973 
L 269.576336 146.086757 
L 269.68191 146.333243 
L 269.893057 148.941892 
L 270.104204 148.072869 
L 270.209778 148.501737 
L 270.420925 149.838206 
L 270.526499 149.315356 
L 270.632072 149.763514 
L 270.737646 149.576781 
L 271.159941 152.022973 
L 271.265514 152.022973 
L 271.371088 151.833368 
L 271.582235 154.025676 
L 271.687809 153.481351 
L 271.898956 151.817568 
L 272.215677 152.228378 
L 272.532398 154.008559 
L 272.637972 153.578185 
L 272.743545 154.795946 
L 272.849119 154.094144 
L 273.060266 155.617568 
L 273.16584 155.514865 
L 273.271413 155.104054 
L 273.376987 155.216093 
L 273.482561 155.104054 
L 273.588134 155.925676 
L 273.799282 154.67042 
L 273.904855 154.487838 
L 274.010429 153.306757 
L 274.221576 154.647598 
L 274.432723 152.515946 
L 274.643871 151.833368 
L 274.749444 151.735405 
L 274.960592 152.022973 
L 275.171739 151.761548 
L 275.382886 153.152703 
L 275.699607 156.582973 
L 275.910754 155.223874 
L 276.121902 157.281351 
L 276.333049 154.357125 
L 276.544196 155.104054 
L 276.64977 156.747297 
L 276.755343 156.29914 
L 276.860917 156.68861 
L 276.966491 156.541892 
L 277.072064 156.131081 
L 277.388785 157.961057 
L 277.599932 156.313664 
L 277.81108 157.753784 
L 277.916653 159.083784 
L 278.233374 156.205774 
L 278.338948 156.295405 
L 278.444522 156.149754 
L 278.550095 156.233784 
L 279.077963 151.817568 
L 279.183537 151.074948 
L 279.394684 146.565058 
L 279.500258 146.785135 
L 279.711405 144.166216 
L 280.239273 135.487838 
L 281.717304 101.801351 
L 282.034025 95.372162 
L 282.245173 93.37973 
L 282.878614 85.060811 
L 282.984188 85.214865 
L 283.300909 86.498649 
L 283.512056 85.289039 
L 283.723203 79.001351 
L 284.039924 83.417568 
L 284.462219 84.239189 
L 284.567792 84.07113 
L 284.77894 82.801351 
L 284.990087 82.185135 
L 285.306808 83.349099 
L 285.517955 84.033784 
L 285.623529 84.033784 
L 285.729103 82.801351 
L 285.94025 79.227297 
L 286.045823 81.911261 
L 286.256971 80.952703 
L 286.573692 80.952703 
L 286.890413 79.583333 
L 287.10156 79.925676 
L 287.418281 79.062973 
L 287.735002 76.598108 
L 287.946149 68.491441 
L 288.157296 73.558108 
L 288.26287 72.759309 
L 288.685164 69.732432 
L 289.107459 65.136486 
L 289.213032 64.931081 
L 289.318606 65.316216 
L 289.529753 66.368919 
L 289.635327 66.368919 
L 289.740901 66.245676 
L 289.846474 65.187838 
L 290.057622 49.217568 
L 290.163195 51.990541 
L 290.374343 63.904054 
L 290.479916 63.679975 
L 290.58549 63.082432 
L 290.691063 63.219369 
L 290.796637 64.109459 
L 290.902211 63.744294 
L 291.113358 65.159309 
L 291.218932 64.931081 
L 291.430079 63.390541 
L 291.641226 61.918468 
L 291.7468 61.952703 
L 291.852373 61.644595 
L 291.957947 61.868673 
L 292.063521 58.827606 
L 292.274668 50.141892 
L 292.485815 59.932883 
L 292.696963 57.947297 
L 292.90811 58.739575 
L 293.224831 61.084398 
L 293.330404 61.644595 
L 293.858272 58.563514 
L 293.963846 58.768919 
L 294.06942 57.604955 
L 294.280567 40.898649 
L 294.597288 59.898649 
L 294.914009 58.563514 
L 295.019583 58.317027 
L 295.23073 57.719069 
L 295.441877 57.947297 
L 295.969745 58.824939 
L 296.180893 58.152703 
L 296.39204 44.772008 
L 296.497613 49.32027 
L 296.708761 58.936978 
L 297.025482 60.925676 
L 297.131055 60.897666 
L 297.55335 61.952703 
L 297.658923 61.952703 
L 297.870071 61.233784 
L 297.975644 61.233784 
L 298.292365 61.829459 
L 298.397939 59.102703 
L 298.503512 49.936486 
L 298.925807 62.443393 
L 299.453675 64.594963 
L 299.559249 64.742793 
L 299.87597 65.958108 
L 300.298264 66.985135 
L 300.403838 66.6 
L 300.614985 56.677518 
L 300.720559 58.614865 
L 300.931706 66.398263 
L 301.354001 68.998108 
L 301.565148 69.020516 
L 301.776295 69.860811 
L 301.881869 69.860811 
L 302.304163 71.052162 
L 302.515311 72.274324 
L 302.726458 64.828378 
L 302.832032 64.931081 
L 303.043179 73.22199 
L 304.310063 79.72027 
L 304.52121 80.952703 
L 304.626783 80.952703 
L 304.837931 77.334407 
L 304.943504 77.768919 
L 305.049078 81.363514 
L 305.260225 80.952703 
L 305.365799 81.158108 
L 305.68252 83.787297 
L 305.893667 85.129279 
L 306.527109 91.382733 
L 306.84383 95.096332 
L 307.160551 98.886175 
L 307.371698 101.63018 
L 309.16645 128.059009 
L 310.222186 139.303638 
L 310.32776 139.767117 
L 310.961202 145.244595 
L 311.066775 145.4658 
L 311.172349 144.751622 
L 311.277922 144.957027 
L 311.383496 147.0639 
L 311.48907 146.528378 
L 311.911364 151.304054 
L 312.122512 149.688821 
L 312.228085 150.995946 
L 312.439233 150.242793 
L 312.544806 151.304054 
L 312.65038 151.145332 
L 312.755953 151.26982 
L 312.861527 150.01 
L 313.072674 152.935886 
L 313.178248 152.365315 
L 313.494969 153.274079 
L 313.600543 153.930309 
L 313.81169 152.022973 
L 314.022837 152.981532 
L 314.128411 152.926757 
L 314.233984 153.05 
L 314.445132 154.693243 
L 314.656279 154.282432 
L 314.761853 153.597748 
L 314.867426 153.618815 
L 315.078573 154.298233 
L 315.289721 153.095646 
L 315.606442 155.309459 
L 315.712015 155.432703 
L 315.817589 153.460811 
L 316.028736 155.309459 
L 316.13431 155.172523 
L 316.239883 155.514865 
L 316.451031 154.008559 
L 316.662178 156.210083 
L 317.084473 154.487838 
L 317.29562 155.743093 
L 317.401193 154.145495 
L 317.506767 154.775405 
L 317.612341 156.485872 
L 317.717914 155.697447 
L 317.929062 153.135586 
L 318.034635 154.308108 
L 318.140209 153.666216 
L 318.245783 154.898649 
L 318.45693 152.825921 
L 318.562503 152.821772 
L 318.668077 151.509459 
L 318.879224 152.022973 
L 318.984798 152.022973 
L 319.195945 153.392342 
L 319.301519 153.330098 
L 319.407092 152.863268 
L 319.61824 153.890295 
L 319.723813 154.226413 
L 319.934961 155.104054 
L 320.251682 151.851802 
L 320.462829 150.995946 
L 320.673976 147.983333 
L 320.885123 149.660811 
L 320.990697 149.36982 
L 321.518565 144.354505 
L 321.624139 144.713964 
L 321.729713 144.171922 
L 322.046433 141.095405 
L 322.468728 139.105255 
L 322.785449 134.974324 
L 322.996596 133.782973 
L 323.946759 117.822973 
L 325.213642 95.844595 
L 325.635937 93.893243 
L 325.741511 93.893243 
L 325.847084 93.687838 
L 326.058232 88.598348 
L 326.163805 90.665444 
L 326.374953 89.271622 
L 326.5861 88.141892 
L 327.008394 88.141892 
L 327.113968 87.936486 
L 327.852983 84.718468 
L 328.064131 79.309459 
L 328.169704 79.309459 
L 328.275278 84.444595 
L 328.697573 82.409214 
L 328.803146 82.185135 
L 329.331014 79.593867 
L 329.436588 79.583333 
L 329.542162 79.925676 
L 329.647735 79.645577 
L 329.858882 78.693243 
L 329.964456 78.506511 
L 330.175603 72.633784 
L 330.386751 77.346697 
L 331.020193 73.649399 
L 331.336913 72.531081 
L 331.442487 72.222973 
L 331.653634 71.298649 
L 331.759208 71.650772 
L 331.864782 71.555405 
L 332.075929 71.011081 
L 332.287076 62.507297 
L 332.39265 64.599272 
L 332.498223 69.244595 
L 332.920518 67.395946 
L 333.026092 67.149459 
L 333.237239 66.368919 
L 333.342812 66.368919 
L 333.55396 67.156306 
L 333.659533 67.190541 
L 333.765107 67.395946 
L 333.870681 67.122072 
L 333.976254 67.313784 
L 334.081828 67.122072 
L 334.187402 66.471622 
L 334.398549 53.941892 
L 334.609696 64.588739 
L 334.820843 63.567936 
L 334.926417 63.904054 
L 335.243138 62.8957 
L 335.454285 62.935714 
L 335.87658 61.644595 
L 335.982153 61.986937 
L 336.087727 61.891081 
L 336.193301 62.014324 
L 336.298874 61.924693 
L 336.510022 49.114865 
L 336.615595 49.594144 
L 336.826743 61.490541 
L 337.143463 61.980713 
L 337.776905 63.904054 
L 337.882479 63.904054 
L 337.988052 63.63018 
L 338.093626 63.727992 
L 338.304773 63.287838 
L 338.410347 62.466216 
L 338.621494 47.702703 
L 338.727068 51.785135 
L 338.938215 64.075225 
L 339.149362 64.314865 
L 339.36051 63.904054 
L 339.466083 63.904054 
L 339.993952 64.931081 
L 340.099525 64.931081 
L 340.310673 65.341892 
L 340.416246 65.068018 
L 340.52182 65.170721 
L 340.732967 56.27471 
L 340.944114 67.219884 
L 341.155262 67.395946 
L 341.894277 67.395946 
L 342.105424 68.217568 
L 342.210998 67.724595 
L 342.527719 69.057862 
L 342.633292 68.32027 
L 342.84444 58.460811 
L 343.161161 70.60774 
L 343.372308 71.149263 
L 343.583455 72.531081 
L 343.794602 73.215766 
L 343.900176 73.404054 
L 344.216897 74.585135 
L 344.322471 74.585135 
L 344.428044 74.215405 
L 344.533618 74.305037 
L 344.744765 74.585135 
L 344.955913 67.918796 
L 345.061486 69.524693 
L 345.272633 75.612162 
L 345.483781 75.612162 
L 346.011649 76.947297 
L 346.32837 77.666216 
L 346.433943 77.666216 
L 346.750664 78.693243 
L 346.856238 78.693243 
L 347.067385 72.941892 
L 347.384106 80.952703 
L 347.48968 80.952703 
L 347.700827 81.363514 
L 348.017548 81.363514 
L 348.228695 82.57027 
L 348.545416 84.776403 
L 348.967711 86.087838 
L 349.178858 81.774324 
L 349.390005 85.718108 
L 349.495579 85.225135 
L 349.601152 85.334685 
L 350.234594 88.039189 
L 350.340168 88.141892 
L 350.868036 89.990541 
L 351.079183 91.428378 
L 351.290331 89.990541 
L 351.501478 92.866216 
L 351.712625 93.482432 
L 351.818199 93.482432 
L 351.923772 93.739189 
L 352.029346 93.653604 
L 352.557214 94.167117 
L 352.768362 94.509459 
L 352.979509 94.201351 
L 353.190656 94.509459 
L 353.29623 94.509459 
L 353.401803 94.098649 
L 353.612951 94.663514 
L 353.824098 94.509459 
L 353.929672 94.509459 
L 354.140819 93.893243 
L 354.246393 93.893243 
L 354.45754 94.509459 
L 354.774261 94.509459 
L 355.302129 96.152703 
L 355.513276 96.152703 
L 356.041144 97.82529 
L 356.357865 101.219369 
L 357.096881 114.022973 
L 358.047043 128.954366 
L 358.680485 134.537838 
L 358.997206 137.85 
L 359.10278 137.85 
L 359.419501 141.304545 
L 359.630648 141.095405 
L 359.841795 142.060811 
L 359.947369 142.163514 
L 360.158516 144.012162 
L 360.26409 144.716409 
L 360.369663 144.286036 
L 360.475237 144.460319 
L 360.686384 145.815165 
L 360.791958 146.682432 
L 360.897532 146.4957 
L 361.003105 147.812162 
L 361.108679 147.693659 
L 361.214252 147.298649 
L 361.530973 149.475946 
L 361.636547 150.300728 
L 361.847694 148.941892 
L 362.058842 149.583784 
L 362.164415 148.69914 
L 362.375563 149.968919 
L 362.58671 149.352703 
L 362.903431 151.332064 
L 363.009004 151.041592 
L 363.114578 151.26982 
L 363.220152 150.9586 
L 363.431299 151.864969 
L 363.642446 150.893243 
L 363.74802 150.995946 
L 363.853593 151.348069 
L 363.959167 150.727339 
L 364.064741 151.064414 
L 364.275888 150.328378 
L 364.381462 150.813363 
L 364.487035 149.393784 
L 364.592609 149.558108 
L 364.803756 151.612162 
L 364.90933 151.201351 
L 365.014903 151.444103 
L 365.226051 151.041592 
L 365.437198 152.947297 
L 365.542772 151.985627 
L 365.648345 152.125676 
L 365.753919 152.639189 
L 365.965066 152.022973 
L 366.176213 152.885676 
L 366.387361 150.697174 
L 366.492934 150.872703 
L 366.598508 150.197147 
L 366.809655 148.736486 
L 366.915229 148.69914 
L 367.020803 148.079189 
L 367.23195 148.325676 
L 367.337523 148.068919 
L 367.443097 148.829853 
L 367.548671 148.394144 
L 367.654244 148.713664 
L 367.865392 147.298649 
L 367.970965 147.940541 
L 368.076539 147.672113 
L 368.182113 146.990541 
L 368.287686 148.680467 
L 368.604407 146.271622 
L 368.921128 146.271622 
L 369.026702 145.860811 
L 369.132275 144.970721 
L 369.237849 145.281941 
L 369.55457 142.20086 
L 369.765717 143.171867 
L 369.976864 141.187838 
L 370.082438 141.341892 
L 370.293585 139.063759 
L 370.399159 138.158108 
L 370.610306 139.082432 
L 371.032601 136.822973 
L 371.771616 127.168919 
L 372.088337 124.478108 
L 372.193911 124.031818 
L 372.405058 121.622973 
L 372.721779 123.266216 
L 372.932926 122.476195 
L 373.0385 121.959091 
L 373.355221 119.275483 
L 373.883089 115.292752 
L 374.305383 111.729279 
L 374.410957 111.558108 
L 375.044399 106.012162 
L 375.994562 95.353904 
L 376.733577 93.893243 
L 376.944724 93.893243 
L 377.050298 93.665015 
L 377.261445 92.181532 
L 377.472592 88.484234 
L 378.528329 78.385135 
L 378.739476 72.715946 
L 378.84505 73.614128 
L 379.056197 76.365315 
L 379.584065 73.681351 
L 379.795212 73.558108 
L 380.428654 70.57973 
L 380.639802 69.491081 
L 380.850949 60.138288 
L 381.062096 67.395946 
L 381.16767 67.395946 
L 381.378817 66.985135 
L 381.484391 67.272703 
L 381.589964 67.076426 
L 381.695538 67.283907 
L 381.801112 67.108378 
L 382.223406 67.395946 
L 382.540127 67.395946 
L 382.645701 67.10251 
L 382.751274 66.353119 
L 382.962422 54.523874 
L 383.173569 66.192857 
L 383.279142 66.80027 
L 383.384716 65.834865 
L 383.49029 65.995455 
L 383.595863 65.752703 
L 383.807011 64.931081 
L 384.018158 64.931081 
L 384.229305 65.341892 
L 384.440452 64.931081 
L 384.546026 65.229853 
L 384.6516 65.054324 
L 384.757173 65.290541 
L 384.862747 65.057484 
L 385.073894 51.693844 
L 385.179468 55.174324 
L 385.390615 64.931081 
L 385.601763 65.341892 
L 385.81291 64.931081 
L 385.918483 65.296246 
L 386.024057 65.033784 
L 386.129631 65.192506 
L 386.551925 67.139189 
L 386.657499 66.985135 
L 386.868646 67.395946 
L 386.97422 67.395946 
L 387.185367 56.663514 
L 387.396514 65.958108 
L 387.502088 65.547297 
L 387.607662 65.804054 
L 387.818809 64.931081 
L 388.029956 65.341892 
L 388.452251 64.314865 
L 388.557824 64.725676 
L 388.663398 64.561351 
L 388.874545 63.904054 
L 389.085692 64.314865 
L 389.29684 52.036186 
L 389.507987 65.790049 
L 389.613561 65.958108 
L 389.719134 65.565971 
L 389.930282 65.958108 
L 390.141429 65.341892 
L 390.352576 65.341892 
L 390.45815 65.04312 
L 390.669297 65.341892 
L 390.774871 65.711622 
L 390.880444 65.62199 
L 390.986018 65.341892 
L 391.091592 65.834865 
L 391.197165 65.509951 
L 391.408312 52.894324 
L 391.61946 65.88964 
L 391.830607 66.368919 
L 391.936181 66.368919 
L 392.147328 66.985135 
L 392.358475 67.395946 
L 392.78077 67.395946 
L 392.991917 68.628378 
L 393.203064 67.395946 
L 393.308638 67.395946 
L 393.519785 58.717568 
L 393.730932 69.495646 
L 394.258801 71.207357 
L 394.364374 70.887838 
L 394.469948 71.181274 
L 394.575522 70.990541 
L 394.681095 70.439681 
L 394.786669 70.631081 
L 394.997816 71.298649 
L 395.314537 71.298649 
L 395.420111 70.666632 
L 395.631258 62.096486 
L 395.842405 72.531081 
L 396.053553 72.941892 
L 396.159126 72.941892 
L 396.2647 73.421171 
L 396.475847 74.585135 
L 396.686994 75.543694 
L 396.792568 75.107985 
L 397.003715 76.228378 
L 397.214862 76.639189 
L 397.320436 76.639189 
L 397.42601 77.079344 
L 397.531583 76.623389 
L 397.742731 69.116216 
L 397.953878 77.05 
L 398.165025 77.563514 
L 398.270599 78.159189 
L 398.376172 77.834275 
L 399.009614 79.309459 
L 399.115188 79.740811 
L 399.326335 79.309459 
L 399.431909 79.309459 
L 399.643056 79.925676 
L 399.854203 75.292643 
L 400.065351 81.295045 
L 400.170924 81.055405 
L 400.593219 83.417568 
L 400.698792 83.87973 
L 400.90994 83.417568 
L 401.015513 83.417568 
L 401.437808 85.214865 
L 401.754529 87.594144 
L 401.965676 86.211081 
L 402.176823 88.758108 
L 402.387971 88.758108 
L 403.23256 91.428378 
L 403.443707 91.428378 
L 403.654854 91.839189 
L 403.866002 91.839189 
L 404.077149 91.017568 
L 404.288296 92.455405 
L 404.39387 92.455405 
L 404.605017 92.866216 
L 404.710591 92.866216 
L 404.816164 93.297568 
L 404.921738 93.051081 
L 405.132885 93.482432 
L 405.449606 93.482432 
L 405.660753 93.893243 
L 405.766327 93.893243 
L 405.871901 93.594472 
L 405.977474 93.77 
L 406.083048 93.653604 
L 406.188622 93.775869 
L 406.294195 94.3414 
L 406.399769 94.03018 
L 406.505342 94.440991 
L 406.610916 94.005283 
L 406.822063 94.509459 
L 407.033211 94.509459 
L 407.349932 95.485135 
L 407.772226 97.795946 
L 407.983373 100.260811 
L 408.088947 101.175799 
L 408.405668 106.194745 
L 408.616815 109.606757 
L 409.989273 134.02199 
L 410.20042 135.64656 
L 410.411567 136.740811 
L 410.517141 138.137568 
L 410.622714 137.918468 
L 410.833862 139.287838 
L 411.045009 139.082432 
L 411.36173 140.040991 
L 411.467303 139.647297 
L 411.572877 140.669656 
L 411.678451 140.52027 
L 411.995172 142.802553 
L 412.100745 142.522973 
L 412.206319 141.218649 
L 412.417466 142.312899 
L 412.734187 144.180221 
L 412.945334 143.395946 
L 413.156482 143.395946 
L 413.473203 145.281941 
L 413.578776 144.775097 
L 413.68435 146.322973 
L 414.001071 145.326757 
L 414.106644 146.559189 
L 414.212218 145.991523 
L 414.317792 146.439681 
L 414.423365 147.572523 
L 414.528939 147.522727 
L 414.634513 147.858845 
L 414.740086 148.710811 
L 414.84566 147.663814 
L 414.951233 147.983333 
L 415.162381 150.215405 
L 415.373528 148.941892 
L 415.584675 150.122973 
L 415.901396 149.520762 
L 416.00697 149.065135 
L 416.112543 150.21997 
L 416.218117 149.48964 
L 416.429264 152.639189 
L 416.640412 149.124474 
L 416.745985 150.448198 
L 417.062706 146.939189 
L 417.16828 149.506757 
L 417.379427 147.914865 
L 417.590574 149.652911 
L 417.696148 152.022973 
L 417.907295 150.676426 
L 418.012869 150.585135 
L 418.118443 151.304054 
L 418.224016 150.334084 
L 418.32959 151.794745 
L 418.435163 151.252703 
L 418.540737 151.475225 
L 418.646311 149.670147 
L 418.857458 151.180811 
L 418.963032 148.919069 
L 419.174179 150.9586 
L 419.385326 148.12027 
L 419.4909 149.065135 
L 419.702047 147.914865 
L 419.913194 147.914865 
L 420.018768 149.065135 
L 420.335489 146.066216 
L 420.441062 146.641351 
L 420.546636 146.394865 
L 420.65221 147.01855 
L 420.968931 150.585135 
L 421.180078 152.410961 
L 421.496799 151.119189 
L 421.602373 150.995946 
L 422.024667 146.55172 
L 422.130241 145.121351 
L 422.341388 139.339189 
L 422.446962 139.735995 
L 422.552535 139.339189 
L 422.763682 135.967117 
L 422.869256 136.412162 
L 423.397124 132.007357 
L 423.502698 131.14009 
L 423.608272 131.575799 
L 423.924992 128.401351 
L 425.719744 109.5414 
L 426.142039 105.55 
L 426.45876 103.62199 
L 426.564333 102.688329 
L 426.881054 98.300123 
L 427.197775 95.613514 
L 427.408923 95.125676 
L 427.62007 95.125676 
L 428.147938 93.482432 
L 428.359085 90.195946 
L 428.464659 89.853604 
L 428.886953 85.174925 
L 429.203674 83.047838 
L 429.414822 78.213964 
L 429.731542 80.336486 
L 429.837116 80.016967 
L 429.94269 80.19955 
L 430.048263 80.028378 
L 430.259411 78.693243 
L 430.470558 77.722236 
L 430.787279 75.858649 
L 430.892853 75.612162 
L 431.104 73.558108 
L 431.315147 71.504054 
L 431.526294 62.37285 
L 431.843015 71.298649 
L 432.054163 70.271622 
L 432.370883 70.271622 
L 432.582031 68.833784 
L 432.793178 67.395946 
L 432.898752 67.122072 
L 433.109899 67.395946 
L 433.42662 66.368919 
L 433.637767 54.903563 
L 433.848914 65.136486 
L 433.954488 65.25973 
L 434.165635 64.370885 
L 434.271209 65.15516 
L 434.482356 64.931081 
L 434.58793 64.931081 
L 434.799077 66.317568 
L 435.010224 66.368919 
L 435.115798 66.095045 
L 435.326945 66.368919 
L 435.538093 66.368919 
L 435.74924 55.872703 
L 435.960387 65.958108 
L 436.277108 64.391892 
L 436.382682 64.741476 
L 436.593829 64.314865 
L 436.699402 63.978747 
L 436.804976 62.808559 
L 436.91055 63.175799 
L 437.121697 62.260811 
L 437.227271 62.603153 
L 437.332844 62.37285 
L 437.438418 62.548378 
L 437.543992 62.384054 
L 437.649565 61.721622 
L 437.860712 47.522973 
L 438.07186 61.233784 
L 438.283007 62.137568 
L 438.599728 60.617568 
L 439.022022 62.568919 
L 439.655464 65.204955 
L 439.761038 64.931081 
L 439.972185 51.702973 
L 440.183332 64.314865 
L 440.288906 64.314865 
L 440.39448 64.819042 
L 440.500053 64.438108 
L 440.711201 65.218649 
L 440.816774 65.022372 
L 441.027922 65.958108 
L 441.133495 65.444595 
L 441.344643 65.958108 
L 441.55579 65.958108 
L 441.766937 66.368919 
L 441.872511 66.368919 
L 442.083658 54.884889 
L 442.294805 66.985135 
L 442.400379 67.283907 
L 442.505953 67.134521 
L 442.7171 67.395946 
L 443.772836 67.395946 
L 443.87841 68.068182 
L 443.983983 67.487237 
L 444.195131 58.358108 
L 444.406278 69.912162 
L 444.511852 70.271622 
L 444.617425 69.372973 
L 444.934146 70.759459 
L 445.250867 69.860811 
L 445.356441 69.004955 
L 445.462014 69.198949 
L 445.673162 68.833784 
L 445.884309 69.860811 
L 446.095456 69.860811 
L 446.306603 60.914264 
L 446.517751 69.552703 
L 446.728898 71.247297 
L 446.834472 71.760811 
L 447.045619 73.927838 
L 447.256766 73.968919 
L 447.467913 74.995946 
L 447.573487 74.653604 
L 447.679061 74.995946 
L 447.890208 73.968919 
L 448.206929 74.995946 
L 448.418076 68.030835 
L 448.629223 76.382432 
L 448.734797 76.259979 
L 448.945944 77.186937 
L 449.157092 76.639189 
L 449.368239 77.255405 
L 449.473813 77.255405 
L 450.318402 79.925676 
L 450.529549 75.612162 
L 450.740696 82.801351 
L 450.84627 82.801351 
L 451.479712 85.060811 
L 451.585285 84.444595 
L 451.902006 85.434275 
L 452.00758 85.060811 
L 452.218727 86.087838 
L 452.324301 86.423956 
L 452.429874 86.17 
L 452.535448 81.888438 
L 452.641022 82.657568 
L 452.852169 87.114865 
L 452.957742 87.114865 
L 453.16889 88.141892 
L 453.274463 88.141892 
L 453.485611 88.758108 
L 453.591184 88.229923 
L 454.013479 89.661892 
L 454.224626 89.785135 
L 454.3302 89.785135 
L 454.541347 90.195946 
L 454.646921 88.901892 
L 454.752494 89.934521 
L 454.963642 93.631818 
L 455.069215 93.594472 
L 455.280363 93.893243 
L 455.49151 93.482432 
L 455.597083 93.482432 
L 455.808231 93.893243 
L 456.65282 93.893243 
L 456.758393 93.54112 
L 456.969541 93.893243 
L 457.391835 93.893243 
L 457.497409 94.432432 
L 457.602982 94.005283 
L 458.025277 95.125676 
L 458.341998 95.125676 
L 458.553145 94.509459 
L 458.764293 94.509459 
L 458.97544 93.482432 
L 459.186587 95.022973 
L 459.292161 94.571081 
L 459.608882 92.968919 
L 459.714455 93.328378 
L 459.925603 92.866216 
L 460.031176 92.866216 
L 460.13675 92.496486 
L 460.347897 92.866216 
L 460.453471 92.866216 
L 461.403633 97.385135 
L 462.776091 120.595946 
L 463.198385 128.812162 
L 463.303959 129.857862 
L 463.409533 132.418168 
L 463.515106 132.16027 
L 463.726253 136.060039 
L 463.831827 136.731682 
L 464.570842 146.22027 
L 464.78199 148.325676 
L 464.887563 147.535655 
L 465.309858 152.803514 
L 465.521005 151.182678 
L 465.837726 153.666216 
L 465.9433 152.639189 
L 466.048873 153.012654 
L 466.154447 154.18763 
L 466.260021 152.022973 
L 466.576742 154.693243 
L 466.787889 155.834384 
L 466.999036 154.581204 
L 467.10461 156.541892 
L 467.315757 155.514865 
L 467.421331 155.514865 
L 467.738052 156.541892 
L 467.843625 155.686036 
L 467.949199 155.88003 
L 468.054772 155.514865 
L 468.26592 156.915356 
L 468.371493 156.028378 
L 468.582641 153.666216 
L 468.793788 155.925676 
L 468.899362 155.583333 
L 469.004935 154.528919 
L 469.216082 155.514865 
L 469.321656 155.514865 
L 469.42723 155.77629 
L 469.532803 154.282432 
L 469.638377 155.514865 
L 469.849524 153.529279 
L 470.377393 150.155651 
L 470.482966 152.342492 
L 470.58854 149.352703 
L 470.694113 152.091441 
L 470.905261 151.612162 
L 471.116408 152.022973 
L 471.221982 152.947297 
L 471.327555 152.209705 
L 471.433129 154.693243 
L 471.644276 153.05 
L 471.74985 153.05 
L 471.855423 152.67079 
L 471.960997 152.986798 
L 472.066571 152.684835 
L 472.172144 150.995946 
L 472.383292 152.587838 
L 472.488865 153.05 
L 472.594439 150.585135 
L 472.700013 150.9586 
L 472.805586 150.626216 
L 472.91116 149.660811 
L 473.016733 150.995946 
L 473.122307 150.585135 
L 473.227881 151.440991 
L 473.333454 150.02027 
L 473.439028 150.533784 
L 473.544602 147.812162 
L 473.755749 150.653604 
L 473.861323 149.535285 
L 473.966896 149.85688 
L 474.07247 151.612162 
L 474.178043 150.756306 
L 474.283617 152.022973 
L 474.389191 151.089312 
L 474.494764 151.438358 
L 474.600338 149.700312 
L 474.705912 150.813363 
L 474.811485 147.914865 
L 474.917059 150.14009 
L 475.444927 145.244595 
L 475.550501 146.738452 
L 475.656074 146.425676 
L 475.761648 144.993544 
L 475.867222 146.089039 
L 476.183943 140.912408 
L 476.289516 140.725676 
L 476.606237 134.614865 
L 477.450826 124.447297 
L 477.5564 124.293243 
L 477.767547 120.315848 
L 477.978694 118.373833 
L 478.295415 114.155019 
L 478.612136 111.729279 
L 479.034431 106.422973 
L 479.351152 103.456006 
L 479.773446 99.302252 
L 480.301314 95.074324 
L 480.723609 93.516667 
L 480.829182 93.859009 
L 481.04033 93.482432 
L 481.568198 89.168919 
L 481.673772 89.131572 
L 481.990492 88.278829 
L 482.20164 85.745495 
L 482.412787 88.141892 
L 482.835082 86.162531 
L 483.890818 79.421499 
L 484.101965 77.442138 
L 484.313113 69.203514 
L 484.52426 74.995946 
L 484.735407 73.470077 
L 485.052128 71.914865 
L 485.368849 69.895045 
L 485.474423 69.860811 
L 485.68557 69.244595 
L 485.896717 68.833784 
L 486.213438 65.958108 
L 486.424585 53.12027 
L 486.741306 64.314865 
L 486.84688 64.314865 
L 486.952453 64.707002 
L 487.058027 63.287838 
L 487.163601 63.848034 
L 487.480322 62.671622 
L 487.691469 62.671622 
L 487.797043 62.306456 
L 488.00819 63.848034 
L 488.113763 63.287838 
L 488.324911 63.904054 
L 488.536058 50.073423 
L 488.747205 63.236486 
L 488.958352 62.671622 
L 489.1695 62.671622 
L 489.380647 61.644595 
L 489.591794 62.260811 
L 489.697368 61.644595 
L 489.802942 62.671622 
L 490.014089 62.260811 
L 490.119663 62.260811 
L 490.225236 61.644595 
L 490.436383 62.260811 
L 490.647531 47.471622 
L 490.858678 62.260811 
L 490.964252 61.404955 
L 491.069825 61.644595 
L 491.175399 62.204791 
L 491.386546 61.644595 
L 491.597693 61.644595 
L 491.703267 61.279429 
L 492.019988 62.260811 
L 492.442282 65.27869 
L 492.547856 64.962682 
L 492.759003 52.127477 
L 492.970151 64.314865 
L 493.075724 64.852079 
L 493.181298 64.062058 
L 493.286872 64.280631 
L 493.392445 63.938288 
L 493.498019 64.251663 
L 493.603592 63.935655 
L 493.81474 65.341892 
L 493.920313 65.341892 
L 494.025887 64.968428 
L 494.131461 65.267199 
L 494.237034 64.965315 
L 494.448182 65.341892 
L 494.659329 64.314865 
L 494.870476 51.769335 
L 495.187197 65.341892 
L 495.292771 65.024447 
L 495.398344 65.958108 
L 495.503918 65.444595 
L 495.715065 66.331572 
L 495.926212 65.41036 
L 496.13736 66.368919 
L 496.348507 66.368919 
L 496.454081 65.958108 
L 496.559654 66.30045 
L 496.665228 65.958108 
L 496.770802 64.464251 
L 496.981949 52.401351 
L 497.29867 66.368919 
L 497.404243 66.368919 
L 497.615391 66.985135 
L 497.826538 67.048337 
L 498.037685 67.395946 
L 498.671127 67.395946 
L 498.776701 68.874865 
L 498.882274 68.833784 
L 499.093422 59.217076 
L 499.304569 69.860811 
L 499.410143 69.860811 
L 499.726863 72.531081 
L 499.832437 72.531081 
L 500.043584 73.558108 
L 500.254732 73.934685 
L 500.360305 73.592342 
L 500.571453 73.968919 
L 500.677026 73.968919 
L 500.888173 74.585135 
L 500.993747 74.249017 
L 501.204894 67.982819 
L 501.416042 76.091441 
L 501.521615 75.680631 
L 501.732763 76.601843 
L 501.838336 76.228378 
L 501.94391 76.265725 
L 502.155057 76.639189 
L 502.260631 76.639189 
L 502.471778 78.323514 
L 502.577352 78.805283 
L 502.788499 79.957277 
L 502.894072 80.273285 
L 503.10522 80.952703 
L 503.316367 77.113202 
L 503.527514 82.801351 
L 503.738662 83.417568 
L 503.844235 83.417568 
L 504.055383 84.444595 
L 504.26653 84.539397 
L 504.688824 86.040437 
L 504.794398 86.087838 
L 505.005545 86.461302 
L 505.111119 86.087838 
L 505.216693 86.27457 
L 505.42784 83.52027 
L 505.638987 87.731081 
L 505.744561 87.170885 
L 506.061282 88.710707 
L 506.166855 88.789709 
L 506.272429 89.105717 
L 506.483576 89.785135 
L 506.905871 89.785135 
L 507.011444 89.224939 
L 507.328165 90.718796 
L 507.433739 89.785135 
L 507.644886 91.801843 
L 507.856033 92.866216 
L 507.961607 92.954247 
L 508.067181 93.394402 
L 508.278328 92.537568 
L 508.383902 92.742973 
L 508.595049 92.455405 
L 509.228491 92.455405 
L 509.439638 92.866216 
L 509.545212 92.831982 
L 509.650785 92.48964 
L 509.967506 94.509459 
L 510.600948 97.906549 
L 510.706522 100.199189 
L 510.812095 99.758709 
L 511.656684 110.12027 
L 511.973405 115.460811 
L 512.078979 116.394472 
L 512.606847 126.496683 
L 512.712421 126.901892 
L 512.923568 129.428378 
L 513.029142 129.428378 
L 513.451436 133.521815 
L 513.55701 134.101351 
L 513.662583 133.97012 
L 513.873731 137.439189 
L 514.084878 136.822973 
L 514.401599 141.57012 
L 514.507173 141.382973 
L 514.612746 140.109459 
L 514.71832 142.231982 
L 514.823893 140.862613 
L 515.035041 142.858732 
L 515.562909 148.325676 
L 515.668483 147.35 
L 515.774056 147.863514 
L 515.87963 147.36027 
L 515.985203 149.147297 
L 516.090777 147.914865 
L 516.196351 150.585135 
L 516.301924 148.941892 
L 516.513072 151.612162 
L 516.829793 153.563514 
L 517.252087 155.850983 
L 517.357661 155.60045 
L 517.568808 156.541892 
L 517.885529 154.282432 
L 517.991103 154.282432 
L 518.20225 155.925676 
L 518.307823 155.514865 
L 518.413397 156.952703 
L 518.730118 151.612162 
L 518.941265 156.048919 
L 519.152413 154.693243 
L 519.469133 153.666216 
L 519.574707 151.122349 
L 519.680281 152.386383 
L 519.785854 155.514865 
L 519.891428 152.340418 
L 519.997002 153.337568 
L 520.102575 152.257722 
L 520.208149 153.431467 
L 520.419296 153.05 
L 520.52487 153.05 
L 520.736017 151.057568 
L 520.841591 152.570721 
L 520.947164 152.135012 
L 521.052738 152.553604 
L 521.263885 151.51736 
L 521.369459 151.043347 
L 521.475032 151.903153 
L 521.68618 150.537734 
L 521.897327 150.024939 
L 522.108474 150.585135 
L 522.319622 148.973493 
L 522.425195 150.790541 
L 522.636342 149.968919 
L 523.058637 147.195946 
L 523.269784 145.706757 
L 523.375358 148.613243 
L 523.480932 148.086036 
L 523.586505 149.797748 
L 523.797653 148.325676 
L 523.903226 149.352703 
L 524.0088 148.979238 
L 524.219947 149.352703 
L 524.431094 147.955946 
L 524.536668 147.914865 
L 524.642242 147.298649 
L 524.958962 143.880116 
L 525.064536 143.439961 
L 525.275683 139.678108 
L 525.381257 141.218649 
L 525.909125 136.412162 
L 526.014699 135.843347 
L 526.120272 136.31736 
L 526.225846 135.907985 
L 526.33142 136.343694 
L 526.542567 134.847921 
L 526.648141 133.275061 
L 526.753714 134.768919 
L 526.964862 131.071622 
L 527.070435 131.071622 
L 527.387156 127.691769 
L 528.442893 117.035586 
L 529.81535 96.152703 
L 529.920923 96.091081 
L 530.132071 95.125676 
L 530.237644 95.125676 
L 530.554365 93.893243 
L 530.97666 93.893243 
L 531.082233 91.895209 
L 531.187807 92.455405 
L 531.398954 89.168919 
L 531.504528 88.758108 
L 532.032396 84.999189 
L 532.454691 82.236486 
L 532.665838 79.446396 
L 532.876985 72.064251 
L 533.088133 77.666216 
L 533.193706 77.255405 
L 533.29928 76.321744 
L 533.404853 76.564496 
L 534.566163 72.941892 
L 534.671737 72.941892 
L 534.777311 71.59742 
L 534.988458 63.63018 
L 535.199605 72.278274 
L 535.305179 71.014241 
L 535.410753 70.826216 
L 535.833047 68.833784 
L 535.938621 68.833784 
L 536.149768 67.395946 
L 536.677636 67.364345 
L 536.78321 67.048337 
L 536.888783 62.637387 
L 536.994357 51.168919 
L 537.099931 52.36027 
L 537.416652 65.341892 
L 537.522225 64.931081 
L 537.627799 65.896486 
L 537.838946 65.341892 
L 538.050093 65.958108 
L 538.155667 66.323273 
L 538.261241 66.026577 
L 538.366814 66.368919 
L 538.472388 66.327838 
L 538.894683 64.781695 
L 539.000256 63.287838 
L 539.211403 47.471622 
L 539.528124 62.753784 
L 539.739272 63.287838 
L 539.844845 63.349459 
L 539.950419 63.842432 
L 540.055993 63.401952 
L 540.26714 64.314865 
L 540.372713 64.314865 
L 540.689434 65.341892 
L 540.795008 65.341892 
L 541.006155 66.368919 
L 541.111729 65.136486 
L 541.322876 54.25 
L 541.534023 67.395946 
L 541.850744 66.368919 
L 541.956318 66.430541 
L 542.061892 66.871021 
L 542.167465 66.026577 
L 542.378613 66.923514 
L 542.484186 66.445946 
L 542.695333 66.985135 
L 542.800907 66.985135 
L 542.906481 66.368919 
L 543.117628 67.395946 
L 543.223202 66.462285 
L 543.434349 54.866216 
L 543.539923 67.395946 
L 543.645496 67.3586 
L 543.962217 65.995455 
L 544.067791 66.368919 
L 544.173364 66.003754 
L 544.278938 66.30045 
L 544.384512 65.958108 
L 544.490085 66.334685 
L 544.701233 65.397912 
L 545.123527 67.395946 
L 545.334674 67.395946 
L 545.545822 57.536486 
L 545.756969 67.395946 
L 545.968116 66.430541 
L 546.07369 66.923514 
L 546.179263 66.430541 
L 546.284837 66.933784 
L 546.495984 66.368919 
L 546.812705 66.471622 
L 547.023852 67.395946 
L 547.235 67.395946 
L 547.340573 67.134521 
L 547.446147 64.856388 
L 547.551721 53.839189 
L 547.657294 54.25 
L 547.974015 67.395946 
L 548.079589 67.395946 
L 548.185163 68.833784 
L 548.290736 68.217568 
L 548.39631 68.268919 
L 548.818604 69.816795 
L 549.029752 69.974925 
L 549.240899 70.956306 
L 549.452046 71.298649 
L 549.55762 68.895405 
L 549.663193 60.244103 
L 549.768767 60.617568 
L 549.979914 71.247297 
L 550.085488 70.887838 
L 550.191062 70.925184 
L 550.507782 71.914865 
L 550.824503 71.970885 
L 551.035651 72.531081 
L 551.141224 72.594283 
L 551.352372 72.941892 
L 551.457945 72.993243 
L 551.669093 73.558108 
L 551.88024 67.281832 
L 551.985813 74.585135 
L 552.091387 74.523514 
L 552.196961 74.030541 
L 552.408108 74.995946 
L 552.513682 74.995946 
L 552.935976 78.282432 
L 553.04155 78.282432 
L 553.252697 79.822973 
L 553.358271 79.971321 
L 553.569418 80.336486 
L 553.674992 80.007838 
L 553.780565 77.666216 
L 553.886139 72.531081 
L 553.991712 73.558108 
L 554.308433 80.336486 
L 554.414007 80.336486 
L 554.941875 82.75 
L 555.047449 82.862973 
L 555.575317 85.060811 
L 555.680891 85.471622 
L 555.786464 86.498649 
L 555.892038 86.367936 
L 556.103185 83.89158 
L 556.314332 87.794283 
L 556.736627 88.758108 
L 556.842201 88.860811 
L 557.053348 89.168919 
L 557.264495 89.168919 
L 557.581216 88.193243 
L 557.68679 88.141892 
L 557.792363 88.244595 
L 557.897937 88.758108 
L 558.003511 88.141892 
L 558.214658 85.060811 
L 558.320232 89.168919 
L 558.425805 88.795455 
L 558.636953 89.168919 
L 558.742526 89.168919 
L 558.953673 90.195946 
L 559.059247 90.35 
L 560.326131 96.892162 
L 560.537278 101.045086 
L 561.065146 108.682432 
L 561.698588 117.1497 
L 562.120882 124.293243 
L 562.226456 125.114865 
L 562.543177 129.652457 
L 562.859898 133.741892 
L 563.071045 135.761712 
L 563.282193 137.336486 
L 563.387766 136.822973 
L 563.598913 139.082432 
L 563.915634 143.30258 
L 564.021208 142.368919 
L 564.549076 145.562039 
L 564.760223 144.628378 
L 564.865797 145.244595 
L 564.971371 147.264414 
L 565.182518 146.271622 
L 565.393665 145.45 
L 565.604812 146.928919 
L 565.710386 147.257568 
L 565.81596 146.981204 
L 566.027107 148.941892 
L 566.132681 148.381695 
L 566.238254 146.645086 
L 566.343828 148.493735 
L 566.449402 147.504054 
L 566.766123 149.232883 
L 566.871696 148.034685 
L 567.082843 149.056006 
L 567.188417 149.797748 
L 567.399564 148.157617 
L 567.505138 151.977327 
L 567.610712 151.126658 
L 567.716285 149.128624 
L 567.821859 150.995946 
L 568.033006 149.307057 
L 568.13858 149.113063 
L 568.244153 149.968919 
L 568.560874 147.853243 
L 568.666448 147.35 
L 568.772022 147.863514 
L 568.877595 147.535655 
L 569.29989 149.968919 
L 569.405463 149.968919 
L 569.511037 150.562312 
L 569.616611 152.496985 
L 569.722184 152.022973 
L 569.933332 148.592703 
L 570.038905 150.90258 
L 570.250053 148.941892 
L 570.355626 150.516667 
L 570.4612 149.968919 
L 570.672347 150.174324 
L 570.777921 148.568428 
L 570.883494 150.995946 
L 571.094642 147.298649 
L 571.305789 149.311622 
L 571.411363 149.106216 
L 571.516936 150.461892 
L 571.62251 149.475946 
L 571.728083 150.585135 
L 571.833657 150.533784 
L 571.939231 150.02027 
L 572.044804 150.585135 
L 572.150378 151.988739 
L 572.572673 150.585135 
L 572.78382 149.147297 
L 572.889393 149.85688 
L 573.417262 146.429626 
L 573.94513 141.435258 
L 574.050703 142.368919 
L 574.156277 140.109459 
L 574.261851 140.588739 
L 574.684145 135.982678 
L 574.789719 136.309459 
L 575.212013 133.827477 
L 575.528734 132.098649 
L 575.634308 132.098649 
L 576.162176 126.141892 
L 576.373323 126.141892 
L 576.584471 124.340644 
L 576.901192 123.266216 
L 577.217913 118.644595 
L 577.323486 119.158108 
L 578.379222 98.617568 
L 578.695943 95.262613 
L 578.907091 95.064054 
L 579.012664 94.565479 
L 579.223812 95.125676 
L 579.434959 93.893243 
L 579.75168 93.855897 
L 579.857253 93.482432 
L 580.068401 91.264054 
L 580.385122 88.104545 
L 580.701842 87.114865 
L 580.807416 87.037838 
L 581.018563 86.087838 
L 581.124137 86.019369 
L 581.229711 84.986118 
L 581.440858 81.106757 
L 581.652005 84.41036 
L 581.863152 82.801351 
L 581.968726 82.801351 
L 582.496594 80.336486 
L 582.602168 80.336486 
L 583.23561 84.033784 
L 583.341183 83.787297 
L 583.552331 82.409214 
L 583.763478 87.228979 
L 583.974625 88.799189 
L 584.185772 89.168919 
L 584.291346 89.10045 
L 584.502493 88.05973 
L 584.713641 87.114865 
L 585.452656 79.062973 
L 585.663803 73.208919 
L 585.874951 76.593544 
L 586.297245 74.921253 
L 586.613966 73.740691 
L 586.825113 72.941892 
L 586.930687 72.818649 
L 587.352982 70.887838 
L 587.564129 67.51006 
L 587.775276 55.40343 
L 587.986423 66.933784 
L 588.197571 66.327838 
L 588.303144 65.958108 
L 588.408718 66.003754 
L 588.514292 66.30045 
L 588.619865 65.958108 
L 588.725439 66.286757 
L 589.147733 64.931081 
L 589.253307 65.304545 
L 589.464454 64.263514 
L 589.570028 63.904054 
L 589.675602 61.901351 
L 589.886749 49.114865 
L 590.097896 62.260811 
L 590.20347 63.827027 
L 590.309043 63.524844 
L 590.520191 64.314865 
L 590.731338 64.931081 
L 590.836912 65.25973 
L 591.048059 64.376486 
L 591.153633 64.828378 
L 591.36478 63.904054 
L 591.575927 63.801351 
L 591.681501 63.287838 
L 591.787074 63.904054 
L 591.998222 49.962162 
L 592.209369 62.335504 
L 592.314943 62.630541 
L 592.420516 62.306456 
L 592.631663 63.287838 
L 592.737237 63.219369 
L 592.842811 62.794865 
L 592.948384 63.287838 
L 593.053958 63.159459 
L 593.159532 62.497817 
L 593.476253 64.931081 
L 593.581826 63.390541 
L 593.6874 64.314865 
L 593.792973 64.220062 
L 593.898547 63.904054 
L 594.109694 51.57973 
L 594.320842 64.314865 
L 594.531989 64.314865 
L 594.743136 65.085135 
L 594.84871 64.402896 
L 595.059857 64.931081 
L 595.165431 64.931081 
L 595.271004 64.314865 
L 595.482152 64.931081 
L 595.587725 64.383333 
L 595.904446 65.65 
L 596.01002 63.339189 
L 596.221167 54.496486 
L 596.432314 65.958108 
L 596.643462 65.958108 
L 596.749035 65.528624 
L 596.960182 66.929115 
L 597.17133 65.528624 
L 597.382477 66.536978 
L 597.593624 67.053604 
L 597.804772 67.395946 
L 597.910345 67.601351 
L 598.015919 68.908477 
L 598.121493 66.346096 
L 598.227066 57.844595 
L 598.33264 61.138981 
L 598.438213 69.244595 
L 598.543787 69.073423 
L 598.754934 68.217568 
L 598.860508 68.32027 
L 598.966082 69.244595 
L 599.071655 69.153303 
L 599.388376 68.388739 
L 599.705097 70.271622 
L 599.810671 70.271622 
L 599.916244 70.442793 
L 600.127392 71.616093 
L 600.232965 68.980502 
L 600.338539 61.507658 
L 600.444113 62.192342 
L 600.65526 73.053931 
L 601.499849 76.844595 
L 601.710996 77.666216 
L 601.81657 77.803153 
L 602.027717 78.693243 
L 602.238864 78.61855 
L 602.344438 78.039681 
L 602.555585 73.147297 
L 602.872306 79.309459 
L 603.611322 79.309459 
L 603.822469 79.925676 
L 604.033616 79.925676 
L 604.244763 80.952703 
L 604.350337 80.952703 
L 604.455911 80.656006 
L 604.667058 77.82027 
L 604.772632 81.363514 
L 604.878205 81.317868 
L 604.983779 81.027396 
L 605.089353 81.523273 
L 605.3005 83.479189 
L 605.511647 85.348378 
L 605.722794 87.114865 
L 605.828368 87.170885 
L 606.039515 88.100811 
L 606.250663 87.731081 
L 606.46181 87.731081 
L 606.567383 87.548498 
L 606.672957 86.087838 
L 606.778531 86.648034 
L 606.989678 89.322973 
L 607.200825 90.195946 
L 607.306399 90.264414 
L 607.728693 92.455405 
L 607.834267 92.537568 
L 608.573283 95.125676 
L 608.678856 95.125676 
L 608.78443 95.237715 
L 608.995577 95.536486 
L 609.101151 95.648526 
L 609.312298 96.152703 
L 609.417872 96.22973 
L 610.262461 100.842793 
L 610.790329 105.578529 
L 611.10705 109.195946 
L 611.318197 112.305037 
L 611.634918 115.964988 
L 611.951639 119.733243 
L 612.373933 124.909459 
L 612.479507 125.279189 
L 612.690654 126.758108 
L 612.796228 126.94484 
L 613.535243 133.125676 
L 613.640817 131.944595 
L 613.957538 133.673423 
L 614.168685 131.790541 
L 614.907701 137.85 
L 615.013274 138.004054 
L 615.329995 139.082432 
L 615.541143 139.236486 
L 615.646716 138.655821 
L 615.75229 138.945495 
L 615.857863 138.004054 
L 616.174584 139.082432 
L 616.385732 139.185135 
L 616.491305 138.466216 
L 616.596879 138.637387 
L 616.702453 139.322072 
L 616.808026 139.194472 
L 617.230321 140.488669 
L 617.335894 141.752703 
L 617.547042 139.816023 
L 617.652615 141.615766 
L 617.969336 139.678108 
L 618.07491 141.264865 
L 618.180483 140.725676 
L 618.286057 140.931081 
L 618.391631 141.478829 
L 618.497204 141.453931 
L 618.602778 140.186486 
L 618.813925 142.368919 
L 619.025073 141.187838 
L 619.130646 140.854054 
L 619.23622 141.6579 
L 619.341793 141.341892 
L 619.552941 139.493243 
L 619.658514 139.9414 
L 619.869662 138.694444 
L 620.080809 139.605283 
L 620.186383 140.016093 
L 620.291956 139.082432 
L 620.503103 139.493243 
L 620.608677 139.719189 
L 620.714251 141.429923 
L 620.819824 139.9414 
L 621.136545 142.026577 
L 621.242119 140.383333 
L 621.347692 141.005774 
L 621.453266 140.457069 
L 621.769987 144.194745 
L 621.875561 145.398649 
L 621.981134 144.628378 
L 622.086708 144.705405 
L 622.297855 145.244595 
L 622.403429 145.182973 
L 622.72015 142.891769 
L 622.825723 145.107658 
L 622.931297 144.32027 
L 623.036871 145.244595 
L 623.142444 145.107658 
L 623.353592 144.012162 
L 623.459165 144.012162 
L 623.564739 143.827297 
L 623.670313 143.395946 
L 623.775886 143.472973 
L 623.88146 143.844103 
L 624.092607 142.985135 
L 624.198181 143.10251 
L 624.409328 143.806757 
L 624.514902 143.213363 
L 624.620475 143.869958 
L 624.831622 142.848198 
L 625.570638 135.795946 
L 625.676212 136.335135 
L 625.887359 135.385135 
L 625.992933 135.777273 
L 626.098506 136.617568 
L 626.415227 133.800579 
L 626.520801 133.629853 
L 626.731948 132.392085 
L 626.837522 133.125676 
L 627.154243 130.198649 
L 627.259816 130.063268 
L 627.576537 127.505037 
L 627.682111 128.935405 
L 627.893258 127.785135 
L 628.104405 128.127477 
L 628.315552 127.086757 
L 628.5267 125.805774 
L 628.737847 124.293243 
L 628.843421 124.293243 
L 628.948994 125.092042 
L 629.054568 124.461302 
L 629.160142 124.535995 
L 629.476863 121.02543 
L 630.110304 114.228378 
L 630.638173 105.82543 
L 630.84932 102.976727 
L 631.060467 100.625976 
L 631.271614 99.364496 
L 631.693909 95.998649 
L 632.327351 92.866216 
L 632.538498 87.731081 
L 632.644072 87.607838 
L 632.960793 85.214865 
L 633.594234 80.829459 
L 634.016529 78.282432 
L 634.227676 71.181274 
L 634.438823 76.091441 
L 634.649971 74.37973 
L 635.072265 72.082924 
L 635.388986 69.860811 
L 635.49456 69.737568 
L 636.022428 67.3503 
L 636.128002 64.383333 
L 636.233575 55.14009 
L 636.339149 58.279106 
L 636.444723 65.870077 
L 636.550296 65.565971 
L 636.761443 65.958108 
L 636.867017 65.790049 
L 637.078164 65.229853 
L 637.183738 65.022372 
L 637.289312 65.085135 
L 637.394885 64.391892 
L 637.500459 64.777027 
L 637.711606 63.962741 
L 637.81718 63.858408 
L 637.922753 63.524844 
L 638.028327 63.904054 
L 638.133901 63.719189 
L 638.239474 61.551229 
L 638.450622 52.830835 
L 638.556195 64.828378 
L 638.661769 63.955405 
L 638.767343 64.202826 
L 638.872916 63.986216 
L 639.189637 64.725676 
L 639.295211 64.52027 
L 639.506358 64.931081 
L 639.717505 65.229853 
L 639.928652 63.472703 
L 640.1398 64.165479 
L 640.245373 63.226216 
L 640.350947 58.387452 
L 640.456521 47.530309 
L 640.562094 47.54009 
L 640.773242 62.363514 
L 640.878815 62.671622 
L 640.984389 62.603153 
L 641.195536 62.260811 
L 641.30111 62.312162 
L 641.617831 64.314865 
L 641.828978 64.040991 
L 641.934552 64.314865 
L 642.145699 63.493243 
L 642.251273 64.240172 
L 642.356846 63.767117 
L 642.46242 59.293844 
L 642.567993 47.163514 
L 642.673567 48.181204 
L 642.884714 62.671622 
L 642.990288 62.58033 
L 643.095862 62.568919 
L 643.307009 64.314865 
L 643.412583 64.314865 
L 643.518156 64.468919 
L 643.729303 65.565971 
L 643.834877 65.67801 
L 643.940451 65.022372 
L 644.151598 65.341892 
L 644.362745 65.341892 
L 644.468319 65.085135 
L 644.679466 50.681081 
L 644.78504 52.438698 
L 644.996187 65.958108 
L 645.312908 66.04027 
L 645.524055 66.368919 
L 645.629629 66.368919 
L 645.94635 66.985135 
L 646.051923 66.985135 
L 646.474218 67.694717 
L 646.579792 67.971081 
L 646.685365 66.210915 
L 646.896513 60.206757 
L 647.213233 69.244595 
L 647.318807 69.367838 
L 647.529954 69.860811 
L 647.635528 69.952102 
L 648.057823 70.887838 
L 648.26897 70.887838 
L 648.374543 70.999877 
L 648.585691 71.298649 
L 648.691264 71.298649 
L 648.796838 69.809459 
L 648.902412 64.657207 
L 649.007985 64.856388 
L 649.219133 71.914865 
L 649.43028 70.962531 
L 649.747001 71.914865 
L 650.169295 71.914865 
L 650.274869 72.051802 
L 650.486016 72.633784 
L 650.697163 73.198649 
L 650.802737 73.923273 
L 650.908311 71.914865 
L 651.013884 65.598649 
L 651.225032 71.216486 
L 651.330605 74.995946 
L 651.436179 74.927477 
L 651.541753 74.585135 
L 651.858473 74.995946 
L 651.964047 74.995946 
L 652.175194 76.228378 
L 652.491915 76.228378 
L 652.597489 76.365315 
L 652.808636 77.666216 
L 652.91421 77.666216 
L 653.019783 76.402183 
L 653.125357 73.284234 
L 653.230931 73.712162 
L 653.442078 79.072453 
L 653.547652 79.001351 
L 653.758799 79.925676 
L 653.969946 80.000369 
L 654.181093 80.336486 
L 654.392241 80.336486 
L 654.497814 80.521351 
L 654.708962 81.08964 
L 654.920109 82.801351 
L 655.025683 82.616486 
L 655.342403 77.666216 
L 655.553551 83.828378 
L 655.764698 83.417568 
L 656.081419 83.417568 
L 656.39814 84.033784 
L 656.609287 84.115946 
L 657.137155 86.087838 
L 657.242729 85.403153 
L 657.453876 83.622973 
L 657.665023 86.498649 
L 657.770597 86.311916 
L 657.981744 85.471622 
L 658.087318 85.656486 
L 658.404039 86.772523 
L 658.615186 88.372973 
L 659.037481 89.785135 
L 659.143054 89.785135 
L 659.248628 89.561057 
L 659.354202 88.68964 
L 659.565349 86.786216 
L 659.776496 89.785135 
L 659.88207 89.843822 
L 660.304364 91.043243 
L 660.409938 91.191372 
L 660.515512 90.949099 
L 660.726659 91.428378 
L 660.832233 91.487066 
L 661.465674 94.509459 
L 661.571248 94.646396 
L 661.782395 96.152703 
L 661.887969 96.152703 
L 662.099116 97.847297 
L 662.310263 99.38317 
L 662.626984 102.109459 
L 663.366 111.953119 
L 663.999442 118.418649 
L 664.421736 123.973724 
L 664.632883 125.782432 
L 664.949604 129.017568 
L 665.055178 129.274324 
L 665.266325 130.660811 
L 665.371899 130.940909 
L 665.477473 131.687838 
L 665.583046 131.498233 
L 665.794193 130.954247 
L 666.110914 133.125676 
L 666.216488 133.194144 
L 666.427635 134.084234 
L 666.533209 134.645676 
L 666.638783 134.426577 
L 666.84993 136.412162 
L 666.955503 136.412162 
L 667.061077 136.591892 
L 667.272224 138.58033 
L 667.377798 137.500811 
L 667.483372 138.928378 
L 667.588945 138.568919 
L 667.694519 139.082432 
L 667.800093 138.774324 
L 668.116813 136.651802 
L 668.222387 137.85 
L 668.327961 137.439189 
L 668.433534 136.052703 
L 668.750255 138.242138 
L 668.855829 138.081081 
L 668.961403 138.186118 
L 669.066976 138.671622 
L 669.17255 140.109459 
L 669.278123 139.916892 
L 669.383697 139.275 
L 669.489271 139.493243 
L 669.700418 141.304545 
L 669.805992 140.285521 
L 669.911565 140.725676 
L 670.017139 140.479189 
L 670.228286 139.013964 
L 670.33386 139.835586 
L 670.439433 139.730249 
L 670.756154 141.41036 
L 670.967302 140.52027 
L 671.178449 140.438108 
L 671.284022 139.231818 
L 671.49517 139.724324 
L 671.600743 139.362531 
L 671.706317 138.466216 
L 671.811891 138.686293 
L 671.917464 139.317181 
L 672.023038 140.725676 
L 672.234185 140.221499 
L 672.339759 140.664054 
L 672.65648 139.381204 
L 672.762053 139.185135 
L 672.867627 139.310661 
L 673.184348 138.466216 
L 673.289922 138.651081 
L 673.501069 139.310661 
L 673.712216 137.986937 
L 674.028937 139.082432 
L 674.240084 139.493243 
L 674.345658 139.904054 
L 674.556805 141.506216 
L 674.662379 141.615766 
L 674.873526 141.068018 
L 675.084673 142.492162 
L 675.190247 142.483033 
L 675.295821 142.649017 
L 675.401394 142.163514 
L 675.506968 142.41 
L 675.612542 141.41036 
L 675.718115 143.115848 
L 675.823689 142.763929 
L 675.929263 143.067297 
L 676.034836 141.999189 
L 676.14041 142.848198 
L 676.351557 141.999189 
L 676.457131 141.547297 
L 676.668278 139.698649 
L 676.879425 140.931081 
L 677.196146 138.447543 
L 677.30172 139.37 
L 677.512867 137.667417 
L 677.724014 135.96027 
L 677.829588 136.138288 
L 678.040735 134.389709 
L 678.146309 134.645676 
L 678.674177 131.687838 
L 678.885324 130.660811 
L 679.202045 128.812162 
L 679.413193 126.473701 
L 679.62434 125.731081 
L 679.835487 124.175869 
L 680.152208 123.004791 
L 680.363355 123.54009 
L 680.574502 122.855405 
L 680.78565 123.031467 
L 680.891223 122.28027 
L 680.996797 123.11683 
L 681.207944 122.608919 
L 681.524665 120.664414 
L 681.630239 121.433368 
L 681.735813 121.006757 
L 681.841386 121.193489 
L 681.94696 122.054324 
L 682.052533 121.854054 
L 682.158107 122.239189 
L 682.369254 121.436241 
L 683.319417 117.083514 
L 683.424991 117.33 
L 683.530564 116.898649 
L 683.741712 117.309459 
L 685.008595 110.068919 
L 685.43089 105.519189 
L 686.169905 96.328764 
L 686.486626 94.509459 
L 686.5922 94.509459 
L 686.697773 94.386216 
L 687.014494 92.981757 
L 687.225642 93.366892 
L 687.331215 92.578649 
L 687.436789 92.729279 
L 687.647936 92.455405 
L 687.75351 92.523874 
L 687.964657 93.482432 
L 688.175804 93.77 
L 688.492525 92.679484 
L 688.703673 91.993243 
L 688.91482 92.866216 
L 689.231541 93.877443 
L 689.337114 94.281231 
L 689.548262 92.729279 
L 689.864983 91.715946 
L 690.392851 88.018649 
L 691.026293 83.193489 
L 691.23744 79.530665 
L 691.343013 82.185135 
L 691.448587 81.950386 
L 691.659734 81.363514 
L 691.976455 81.363514 
L 692.082029 81.158108 
L 692.39875 79.477518 
L 692.715471 77.666216 
L 692.821044 77.512162 
L 693.032192 76.639189 
L 693.137765 75.26982 
L 693.243339 71.885521 
L 693.348913 71.930665 
L 693.56006 76.639189 
L 693.771207 77.087346 
L 693.982354 76.474865 
L 694.193502 75.92027 
L 694.72137 72.717813 
L 695.143664 70.047543 
L 695.460385 61.439189 
L 695.777106 70.168919 
L 695.988253 69.860811 
L 696.516122 70.663759 
L 696.727269 69.952102 
L 696.832843 69.963514 
L 697.255137 68.194745 
L 697.571858 58.495045 
L 697.783005 67.167718 
L 698.2053 65.958108 
L 698.522021 66.368919 
L 698.733168 66.368919 
L 698.838742 66.574324 
L 699.049889 67.395946 
L 699.261036 67.395946 
L 699.36661 66.985135 
L 699.577757 55.071622 
L 699.788904 67.395946 
L 701.478083 67.395946 
L 701.68923 58.255405 
L 702.005951 67.241892 
L 702.428245 66.368919 
L 702.744966 66.368919 
L 703.167261 67.395946 
L 703.272834 67.395946 
L 703.483982 67.852402 
L 703.589555 67.395946 
L 703.695129 65.684234 
L 703.800703 59.898649 
L 703.906276 62.087006 
L 704.117423 67.395946 
L 704.750865 67.395946 
L 704.962013 66.985135 
L 705.278733 67.395946 
L 705.595454 67.395946 
L 705.701028 67.036486 
L 705.912175 53.531081 
L 706.017749 56.13973 
L 706.33447 67.395946 
L 706.440043 67.711954 
L 706.651191 69.057862 
L 706.756764 68.970721 
L 707.073485 69.860811 
L 707.390206 69.860811 
L 707.601353 70.271622 
L 707.812501 69.860811 
L 708.023648 61.881601 
L 708.129222 62.671622 
" clip-path="url(#p6aed99d789)" style="fill: none; stroke: #1f77b4; stroke-linecap: square"/>
   </g>
   <g id="line2d_12">
    <path d="M 43.015313 91.839189 
L 739.801312 91.839189 
" clip-path="url(#p6aed99d789)" style="fill: none; stroke-dasharray: 3.7,1.6; stroke-dashoffset: 0; stroke: #808080"/>
   </g>
   <g id="patch_3">
    <path d="M 43.015313 167.11 
L 43.015313 24.99 
" style="fill: none; stroke: #000000; stroke-width: 0.8; stroke-linejoin: miter; stroke-linecap: square"/>
   </g>
   <g id="patch_4">
    <path d="M 43.015313 167.11 
L 739.801312 167.11 
" style="fill: none; stroke: #000000; stroke-width: 0.8; stroke-linejoin: miter; stroke-linecap: square"/>
   </g>
   <g id="text_13">
    <text style="font: 16px 'Helvetica', sans-serif; text-anchor: middle" x="391.408312" y="18.99" transform="rotate(-0 391.408312 18.99)">Respiratory pressure (normal breathing)</text>
   </g>
  </g>
  <g id="axes_2">
   <g id="patch_5">
    <path d="M 769.031312 167.11 
L 921.305312 167.11 
L 921.305312 24.99 
L 769.031312 24.99 
z
" style="fill: #ffffff"/>
   </g>
   <g id="matplotlib.axis_3">
    <g id="xtick_8">
     <g id="line2d_13">
      <g>
       <use xlink:href="#m7f5f389b05" x="775.952858" y="167.11" style="stroke: #000000; stroke-width: 0.8"/>
      </g>
     </g>
     <g id="text_14">
      <text style="font: 10px 'Helvetica', sans-serif; text-anchor: middle" x="775.952858" y="181.283437" transform="rotate(-0 775.952858 181.283437)">0</text>
     </g>
    </g>
    <g id="xtick_9">
     <g id="line2d_14">
      <g>
       <use xlink:href="#m7f5f389b05" x="822.096494" y="167.11" style="stroke: #000000; stroke-width: 0.8"/>
      </g>
     </g>
     <g id="text_15">
      <text style="font: 10px 'Helvetica', sans-serif; text-anchor: middle" x="822.096494" y="181.283437" transform="rotate(-0 822.096494 181.283437)">2</text>
     </g>
    </g>
    <g id="xtick_10">
     <g id="line2d_15">
      <g>
       <use xlink:href="#m7f5f389b05" x="868.240131" y="167.11" style="stroke: #000000; stroke-width: 0.8"/>
      </g>
     </g>
     <g id="text_16">
      <text style="font: 10px 'Helvetica', sans-serif; text-anchor: middle" x="868.240131" y="181.283437" transform="rotate(-0 868.240131 181.283437)">4</text>
     </g>
    </g>
    <g id="xtick_11">
     <g id="line2d_16">
      <g>
       <use xlink:href="#m7f5f389b05" x="914.383767" y="167.11" style="stroke: #000000; stroke-width: 0.8"/>
      </g>
     </g>
     <g id="text_17">
      <text style="font: 10px 'Helvetica', sans-serif; text-anchor: middle" x="914.383767" y="181.283437" transform="rotate(-0 914.383767 181.283437)">6</text>
     </g>
    </g>
    <g id="text_18">
     <text style="font: 14px 'Helvetica', sans-serif; text-anchor: middle" x="845.168312" y="197.513437" transform="rotate(-0 845.168312 197.513437)">Time (sec)</text>
    </g>
   </g>
   <g id="matplotlib.axis_4">
    <g id="ytick_4">
     <g id="line2d_17">
      <g>
       <use xlink:href="#ma0aa23d5ca" x="769.031312" y="130.923276" style="stroke: #000000; stroke-width: 0.8"/>
      </g>
     </g>
     <g id="text_19">
      <text style="font: 10px 'Helvetica', sans-serif; text-anchor: end" x="762.031312" y="134.509995" transform="rotate(-0 762.031312 134.509995)">−2</text>
     </g>
    </g>
    <g id="ytick_5">
     <g id="line2d_18">
      <g>
       <use xlink:href="#ma0aa23d5ca" x="769.031312" y="92.323077" style="stroke: #000000; stroke-width: 0.8"/>
      </g>
     </g>
     <g id="text_20">
      <text style="font: 10px 'Helvetica', sans-serif; text-anchor: end" x="762.031312" y="95.909796" transform="rotate(-0 762.031312 95.909796)">0</text>
     </g>
    </g>
    <g id="ytick_6">
     <g id="line2d_19">
      <g>
       <use xlink:href="#ma0aa23d5ca" x="769.031312" y="53.722878" style="stroke: #000000; stroke-width: 0.8"/>
      </g>
     </g>
     <g id="text_21">
      <text style="font: 10px 'Helvetica', sans-serif; text-anchor: end" x="762.031312" y="57.309597" transform="rotate(-0 762.031312 57.309597)">2</text>
     </g>
    </g>
   </g>
   <g id="line2d_20">
    <path d="M 775.952858 144.914103 
L 776.414294 147.191667 
L 776.645012 146.15641 
L 776.875731 148.067653 
L 777.106449 146.474951 
L 777.337167 148.8669 
L 777.567885 149.339824 
L 777.798603 152.575 
L 778.029322 151.539744 
L 778.26004 151.539744 
L 778.490758 153.355424 
L 778.721476 152.081262 
L 778.952194 153.610256 
L 779.182912 152.669114 
L 779.413631 154.645513 
L 779.644349 154.645513 
L 779.875067 154.080828 
L 780.105785 154.024359 
L 780.336503 157.171538 
L 780.567222 156.923077 
L 780.79794 156.508974 
L 781.028658 155.304312 
L 781.259376 155.680769 
L 781.720812 157.544231 
L 781.951531 156.979545 
L 782.182249 157.544231 
L 782.412967 156.603089 
L 782.643685 157.440705 
L 782.874403 156.681517 
L 783.33584 160.070256 
L 783.566558 159.200641 
L 783.797276 157.544231 
L 784.027994 157.254359 
L 784.258712 160.120869 
L 784.489431 159.105079 
L 784.720149 158.627268 
L 784.950867 157.544231 
L 785.412303 157.578739 
L 785.643022 157.923825 
L 785.87374 157.958333 
L 786.104458 155.680769 
L 786.335176 157.668462 
L 786.565894 156.508974 
L 786.796612 156.508974 
L 787.027331 155.111378 
L 787.258049 156.276042 
L 787.488767 155.680769 
L 787.719485 154.59375 
L 787.950203 154.076122 
L 788.180922 155.040793 
L 788.41164 157.088718 
L 788.642358 156.992094 
L 788.873076 155.432308 
L 789.103794 154.852564 
L 789.334512 156.923077 
L 789.565231 155.417249 
L 789.795949 155.266667 
L 790.026667 154.024359 
L 790.257385 156.339569 
L 790.488103 154.645513 
L 790.718822 154.645513 
L 791.180258 153.702279 
L 791.410976 154.406607 
L 791.641694 156.31785 
L 791.872412 154.984324 
L 792.103131 156.923077 
L 792.333849 155.592033 
L 792.564567 155.296245 
L 792.795285 157.864219 
L 793.026003 156.923077 
L 793.256722 156.508974 
L 793.48744 156.508974 
L 793.718158 160.65 
L 793.948876 156.885431 
L 794.179594 155.784295 
L 794.410312 156.819551 
L 794.641031 156.923077 
L 794.871749 156.604536 
L 795.102467 154.707628 
L 795.333185 155.07687 
L 795.563903 153.1789 
L 795.794622 153.920833 
L 796.02534 151.539744 
L 796.256058 150.975058 
L 796.486776 150.91859 
L 796.717494 149.563345 
L 796.948212 149.262179 
L 797.178931 149.717692 
L 797.409649 148.330449 
L 797.640367 149.158654 
L 797.871085 148.364957 
L 798.101803 149.745299 
L 798.332522 148.848077 
L 798.56324 148.753963 
L 799.255394 145.535256 
L 799.486112 145.535256 
L 799.716831 146.052885 
L 799.947549 144.5 
L 800.178267 145.411026 
L 800.639703 143.314161 
L 800.870422 143.878846 
L 801.10114 142.749476 
L 801.331858 142.222436 
L 801.562576 142.222436 
L 801.793294 143.178057 
L 802.254731 141.670299 
L 802.485449 141.601282 
L 802.716167 141.042244 
L 803.177603 143.257692 
L 803.408322 143.257692 
L 803.63904 144.198834 
L 803.869758 143.257692 
L 804.100476 143.144755 
L 804.331194 142.688301 
L 804.561912 143.205929 
L 804.792631 141.766923 
L 805.023349 141.601282 
L 805.254067 141.036597 
L 805.484785 141.996562 
L 805.946222 138.702564 
L 806.17694 138.288462 
L 806.407658 137.253205 
L 806.638376 139.13549 
L 806.869094 138.702564 
L 807.099812 137.19109 
L 807.330531 136.632051 
L 807.561249 136.632051 
L 807.791967 134.975641 
L 808.022685 136.217949 
L 808.253403 133.876677 
L 808.484122 133.558136 
L 809.406994 130.891084 
L 809.637712 128.47078 
L 809.868431 127.608066 
L 810.329867 123.099771 
L 810.560585 123.543452 
L 810.791303 121.93141 
L 811.022022 122.311004 
L 811.25274 121.965919 
L 811.714176 120.337115 
L 811.944894 119.860897 
L 812.175612 120.80204 
L 812.406331 119.964423 
L 812.637049 119.860897 
L 812.867767 119.343269 
L 813.098485 118.204487 
L 813.329203 117.639802 
L 813.559922 116.736305 
L 813.79064 113.85641 
L 814.021358 113.235256 
L 814.252076 111.212525 
L 814.944231 109.197756 
L 815.174949 108.680128 
L 815.405667 108.532234 
L 815.867103 107.023718 
L 816.32854 104.953205 
L 816.559258 104.915559 
L 816.789976 104.539103 
L 817.020694 103.221503 
L 817.251412 102.882692 
L 817.482131 102.882692 
L 817.712849 102.323654 
L 817.943567 101.226282 
L 818.174285 101.226282 
L 819.097158 96.05 
L 820.250749 96.012354 
L 820.481467 95.635897 
L 820.712185 95.635897 
L 820.942903 95.428846 
L 821.173622 94.39359 
L 821.40434 94.39359 
L 821.635058 93.584207 
L 821.865776 89.63141 
L 822.096494 91.681218 
L 822.327212 89.781993 
L 822.557931 91.287821 
L 823.019367 89.593765 
L 823.250085 89.217308 
L 823.480803 89.217308 
L 823.94224 88.093315 
L 824.172958 87.649634 
L 824.634394 85.490385 
L 824.865112 85.522239 
L 825.095831 85.840779 
L 825.557267 87.498782 
L 826.018703 87.617366 
L 826.249422 88.182051 
L 826.48014 87.560897 
L 826.710858 87.560897 
L 826.941576 86.619755 
L 827.172294 89.879872 
L 827.403012 90.252564 
L 827.633731 90.252564 
L 827.864449 90.629021 
L 828.556603 89.286325 
L 829.01804 88.182051 
L 829.479476 86.836218 
L 829.940912 84.831585 
L 830.171631 84.455128 
L 830.633067 83.212821 
L 830.863785 81.763462 
L 831.094503 81.349359 
L 831.55594 76.196083 
L 831.786658 80.314103 
L 832.248094 79.071795 
L 832.478812 77.754196 
L 832.709531 77.967521 
L 832.940249 77.622436 
L 834.09384 74.27197 
L 834.324558 73.895513 
L 834.555276 73.895513 
L 834.785994 73.336474 
L 835.478149 70.582692 
L 835.708867 69.622727 
L 836.170303 59.522703 
L 836.401022 66.942041 
L 836.63174 67.683974 
L 836.862458 67.175758 
L 837.093176 66.234615 
L 837.323894 66.533689 
L 837.554612 65.544444 
L 837.785331 65.199359 
L 838.016049 64.634674 
L 838.246767 63.542949 
L 838.477485 63.542949 
L 838.938922 60.500888 
L 839.16964 60.819428 
L 839.400358 59.816026 
L 839.631076 59.816026 
L 839.861794 59.627797 
L 840.092512 58.550712 
L 840.323231 53.77703 
L 840.553949 39.110897 
L 840.784667 41.802564 
L 841.015385 56.710256 
L 841.246103 56.825285 
L 841.476822 57.745513 
L 841.70754 57.745513 
L 842.168976 56.751667 
L 842.399694 57.082949 
L 842.861131 56.089103 
L 843.091849 55.467949 
L 843.322567 55.467949 
L 843.784003 54.01859 
L 844.014722 54.432692 
L 844.24544 52.983333 
L 844.476158 52.569231 
L 844.706876 52.569231 
L 844.937594 50.167436 
L 845.399031 31.45 
L 845.629749 37.661538 
L 845.860467 50.442249 
L 846.091185 51.948077 
L 846.321903 52.569231 
L 846.552622 54.01859 
L 846.78334 54.01859 
L 847.244776 54.997378 
L 847.706212 55.99354 
L 847.936931 56.089103 
L 848.167649 57.124359 
L 848.398367 57.049068 
L 848.629085 56.751667 
L 848.859803 57.030245 
L 849.090522 56.089103 
L 849.32124 57.124359 
L 849.551958 55.599709 
L 849.782676 44.494231 
L 850.013394 40.146154 
L 850.244112 56.089103 
L 850.474831 56.232446 
L 850.705549 56.710256 
L 851.166985 55.329915 
L 851.397703 56.710256 
L 851.628422 55.421937 
L 851.85914 55.213116 
L 852.089858 56.009467 
L 852.320576 55.053846 
L 852.551294 56.710256 
L 852.782012 55.467949 
L 853.012731 56.002831 
L 853.243449 55.140118 
L 853.474167 55.985577 
L 853.704885 56.273148 
L 853.935603 57.641987 
L 854.166322 57.124359 
L 854.627758 40.415321 
L 855.089194 54.726015 
L 855.319912 57.641987 
L 855.550631 57.124359 
L 855.781349 57.186474 
L 856.012067 57.745513 
L 856.242785 57.676496 
L 856.473503 57.227885 
L 856.704222 57.745513 
L 857.165658 57.745513 
L 857.396376 57.227885 
L 857.627094 58.159615 
L 858.549967 58.159615 
L 858.780685 57.124359 
L 859.011403 45.069373 
L 859.242122 42.818998 
L 859.703558 57.97557 
L 859.934276 59.643483 
L 860.164994 58.780769 
L 860.626431 59.747009 
L 860.857149 59.307809 
L 861.087867 59.816026 
L 861.780022 59.867788 
L 862.241458 60.851282 
L 862.472176 60.437179 
L 862.702894 60.598219 
L 862.933612 61.886538 
L 863.164331 61.623019 
L 863.395049 59.138403 
L 863.625767 46.150641 
L 863.856485 45.633013 
L 864.087203 58.780769 
L 864.317922 63.373543 
L 864.54864 64.681731 
L 865.932949 67.683974 
L 866.163667 69.547436 
L 866.625103 70.582692 
L 867.08654 72.936942 
L 867.547976 73.703799 
L 867.778694 75.252849 
L 868.009412 73.84375 
L 868.470849 66.05057 
L 868.932285 73.561045 
L 869.163003 74.879006 
L 869.393722 74.361378 
L 869.62444 74.309615 
L 869.855158 73.941524 
L 870.085876 74.309615 
L 870.547312 74.309615 
L 871.008749 75.344872 
L 871.239467 75.29886 
L 871.470185 74.930769 
L 872.16234 74.968415 
L 872.623776 75.531218 
L 872.854494 71.497169 
L 873.085212 70.28937 
L 873.315931 77.622436 
L 873.546649 78.657692 
L 873.777367 78.695338 
L 874.008085 79.071795 
L 874.238803 78.657692 
L 874.70024 78.657692 
L 874.930958 78.036538 
L 875.161676 78.036538 
L 875.392394 78.568956 
L 875.623112 78.125275 
L 875.853831 78.657692 
L 876.084549 78.699103 
L 876.315267 79.034149 
L 876.545985 78.657692 
L 877.007422 79.523543 
L 877.23814 78.450641 
L 877.468858 75.344872 
L 877.699576 74.027273 
L 877.930294 79.410606 
L 878.161012 80.389394 
L 878.853167 81.47359 
L 879.545322 84.455128 
L 879.77604 84.869231 
L 880.006758 84.982168 
L 880.237476 85.490385 
L 881.160349 85.52803 
L 881.391067 85.904487 
L 881.621785 86.700838 
L 881.852503 86.194359 
L 882.083222 84.537949 
L 882.31394 84.116317 
L 882.544658 88.182051 
L 884.390403 88.182051 
L 884.621122 88.596154 
L 884.85184 88.751442 
L 885.082558 89.155192 
L 885.313276 88.658269 
L 885.543994 89.217308 
L 886.005431 89.217308 
L 886.236149 89.63141 
L 886.466867 89.36789 
L 886.697585 88.182051 
L 886.928303 88.29708 
L 887.38974 90.139627 
L 887.620458 89.693526 
L 887.851176 90.252564 
L 888.312612 90.252564 
L 888.543331 90.128333 
L 888.774049 89.734936 
L 889.235485 90.666667 
L 889.466203 90.892541 
L 889.92764 92.944231 
L 890.158358 93.358333 
L 890.619794 93.358333 
L 890.850512 93.979487 
L 891.081231 93.91047 
L 891.311949 93.358333 
L 891.542667 93.358333 
L 891.773385 95.014744 
L 892.004103 95.014744 
L 893.157694 97.913462 
L 893.849849 102.008476 
L 894.542003 106.091987 
L 894.772722 107.268415 
L 895.234158 112.614103 
L 895.464876 116.27891 
L 895.695594 117.81109 
L 896.157031 123.081695 
L 896.618467 127.774858 
L 897.310622 133.567692 
L 897.54134 134.090967 
L 898.002776 136.393146 
L 898.464212 138.702564 
L 898.694931 139.022552 
L 898.925649 140.980128 
L 899.387085 140.980128 
L 899.617803 141.488345 
L 899.848522 141.036597 
L 900.07924 141.601282 
L 900.771394 145.411026 
L 901.002112 144.525881 
L 901.232831 146.15641 
L 901.694267 146.197821 
L 901.924985 146.570513 
L 902.155703 146.68345 
L 902.61714 147.985363 
L 902.847858 148.848077 
L 903.078576 147.474009 
L 903.309294 150.297436 
L 903.540012 148.589263 
L 903.770731 150.803561 
L 904.001449 149.883333 
L 904.232167 149.805689 
L 904.462885 149.405523 
L 904.924322 150.159402 
L 905.15504 151.539744 
L 905.385758 151.539744 
L 905.616476 151.348619 
L 905.847194 150.987607 
L 906.077912 151.539744 
L 906.539349 151.539744 
L 906.770067 150.297436 
L 907.231503 150.228419 
L 907.462222 149.883333 
L 907.69294 149.924744 
L 907.923658 150.256026 
L 908.154376 150.11339 
L 908.385094 151.476036 
L 908.615812 149.086982 
L 909.307967 152.010315 
L 909.538685 152.575 
L 909.769403 151.069172 
L 910.000122 150.91859 
L 910.23084 150.91859 
L 910.461558 149.071055 
L 910.922994 150.91859 
L 911.153712 150.980705 
L 911.384431 151.539744 
L 911.615149 151.291282 
L 911.845867 150.222145 
L 912.307303 149.624519 
L 912.538022 148.979837 
L 912.76874 150.297436 
L 912.999458 150.184499 
L 913.230176 149.883333 
L 913.460894 150.184499 
L 913.691612 151.539744 
L 913.922331 151.635306 
L 914.383767 152.292657 
L 914.383767 152.292657 
" clip-path="url(#p6ae4e4af97)" style="fill: none; stroke: #1f77b4; stroke-linecap: square"/>
   </g>
   <g id="line2d_21">
    <path d="M 769.031312 92.323077 
L 921.305312 92.323077 
" clip-path="url(#p6ae4e4af97)" style="fill: none; stroke-dasharray: 3.7,1.6; stroke-dashoffset: 0; stroke: #808080"/>
   </g>
   <g id="patch_6">
    <path d="M 769.031312 167.11 
L 769.031312 24.99 
" style="fill: none; stroke: #000000; stroke-width: 0.8; stroke-linejoin: miter; stroke-linecap: square"/>
   </g>
   <g id="patch_7">
    <path d="M 769.031312 167.11 
L 921.305312 167.11 
" style="fill: none; stroke: #000000; stroke-width: 0.8; stroke-linejoin: miter; stroke-linecap: square"/>
   </g>
   <g id="text_22">
    <text style="font: 16px 'Helvetica', sans-serif; text-anchor: middle" x="845.168312" y="18.99" transform="rotate(-0 845.168312 18.99)">Single cycle</text>
   </g>
  </g>
 </g>
 <defs>
  <clipPath id="p6aed99d789">
   <rect x="43.015313" y="24.99" width="696.786" height="142.12"/>
  </clipPath>
  <clipPath id="p6ae4e4af97">
   <rect x="769.031312" y="24.99" width="152.274" height="142.12"/>
  </clipPath>
 </defs>
</svg>
