<?xml version="1.0" encoding="utf-8" standalone="no"?>
<!DOCTYPE svg PUBLIC "-//W3C//DTD SVG 1.1//EN"
  "http://www.w3.org/Graphics/SVG/1.1/DTD/svg11.dtd">
<svg xmlns:xlink="http://www.w3.org/1999/xlink" width="712.755312pt" height="204.375937pt" viewBox="0 0 712.755312 204.375937" xmlns="http://www.w3.org/2000/svg" version="1.1">
 <metadata>
  <rdf:RDF xmlns:dc="http://purl.org/dc/elements/1.1/" xmlns:cc="http://creativecommons.org/ns#" xmlns:rdf="http://www.w3.org/1999/02/22-rdf-syntax-ns#">
   <cc:Work>
    <dc:type rdf:resource="http://purl.org/dc/dcmitype/StillImage"/>
    <dc:date>2024-10-01T10:40:29.538413</dc:date>
    <dc:format>image/svg+xml</dc:format>
    <dc:creator>
     <cc:Agent>
      <dc:title>Matplotlib v3.9.2, https://matplotlib.org/</dc:title>
     </cc:Agent>
    </dc:creator>
   </cc:Work>
  </rdf:RDF>
 </metadata>
 <defs>
  <style type="text/css">*{stroke-linejoin: round; stroke-linecap: butt}</style>
 </defs>
 <g id="figure_1">
  <g id="patch_1">
   <path d="M 0 204.375937 
L 712.755312 204.375937 
L 712.755312 0 
L 0 0 
z
" style="fill: #ffffff"/>
  </g>
  <g id="axes_1">
   <g id="patch_2">
    <path d="M 11.092656 157.695 
L 345.105156 157.695 
L 345.105156 24.715 
L 11.092656 24.715 
z
" style="fill: #ffffff"/>
   </g>
   <g id="matplotlib.axis_1">
    <g id="xtick_1">
     <g id="line2d_1">
      <defs>
       <path id="m83d352200a" d="M 0 0 
L 0 3.5 
" style="stroke: #000000; stroke-width: 0.8"/>
      </defs>
      <g>
       <use xlink:href="#m83d352200a" x="11.092656" y="157.695" style="stroke: #000000; stroke-width: 0.8"/>
      </g>
     </g>
     <g id="text_1">
      <text style="font: 14px 'Helvetica', sans-serif; text-anchor: middle" x="11.092656" y="174.737812" transform="rotate(-0 11.092656 174.737812)">0</text>
     </g>
    </g>
    <g id="xtick_2">
     <g id="line2d_2">
      <g>
       <use xlink:href="#m83d352200a" x="77.895156" y="157.695" style="stroke: #000000; stroke-width: 0.8"/>
      </g>
     </g>
     <g id="text_2">
      <text style="font: 14px 'Helvetica', sans-serif; text-anchor: middle" x="77.895156" y="174.737812" transform="rotate(-0 77.895156 174.737812)">2</text>
     </g>
    </g>
    <g id="xtick_3">
     <g id="line2d_3">
      <g>
       <use xlink:href="#m83d352200a" x="144.697656" y="157.695" style="stroke: #000000; stroke-width: 0.8"/>
      </g>
     </g>
     <g id="text_3">
      <text style="font: 14px 'Helvetica', sans-serif; text-anchor: middle" x="144.697656" y="174.737812" transform="rotate(-0 144.697656 174.737812)">4</text>
     </g>
    </g>
    <g id="xtick_4">
     <g id="line2d_4">
      <g>
       <use xlink:href="#m83d352200a" x="211.500156" y="157.695" style="stroke: #000000; stroke-width: 0.8"/>
      </g>
     </g>
     <g id="text_4">
      <text style="font: 14px 'Helvetica', sans-serif; text-anchor: middle" x="211.500156" y="174.737812" transform="rotate(-0 211.500156 174.737812)">6</text>
     </g>
    </g>
    <g id="xtick_5">
     <g id="line2d_5">
      <g>
       <use xlink:href="#m83d352200a" x="278.302656" y="157.695" style="stroke: #000000; stroke-width: 0.8"/>
      </g>
     </g>
     <g id="text_5">
      <text style="font: 14px 'Helvetica', sans-serif; text-anchor: middle" x="278.302656" y="174.737812" transform="rotate(-0 278.302656 174.737812)">8</text>
     </g>
    </g>
    <g id="xtick_6">
     <g id="line2d_6">
      <g>
       <use xlink:href="#m83d352200a" x="345.105156" y="157.695" style="stroke: #000000; stroke-width: 0.8"/>
      </g>
     </g>
     <g id="text_6">
      <text style="font: 14px 'Helvetica', sans-serif; text-anchor: middle" x="345.105156" y="174.737812" transform="rotate(-0 345.105156 174.737812)">10</text>
     </g>
    </g>
    <g id="text_7">
     <!-- $t$ (sec) -->
     <g transform="translate(154.898906 193.335937)">
      <text>
       <tspan style="font: oblique 16px 'DejaVu Sans'" x="0" y="-0.328125">t</tspan>
       <tspan style="font: 16px 'Helvetica'" x="6.273438 10.71875 16.046875 24.046875 32.945312 40.945312" y="-0.328125"> (sec)</tspan>
      </text>
     </g>
    </g>
   </g>
   <g id="matplotlib.axis_2"/>
   <g id="line2d_7">
    <path d="M 11.092656 91.205 
L 15.100806 68.953544 
L 17.438894 57.229615 
L 19.108956 49.827239 
L 20.779019 43.443721 
L 22.115069 39.177057 
L 23.451119 35.730904 
L 24.453156 33.717957 
L 25.455194 32.215268 
L 26.123219 31.503729 
L 26.791244 31.027805 
L 27.459269 30.789372 
L 28.127294 30.789372 
L 28.795319 31.027805 
L 29.463344 31.503729 
L 30.131369 32.215268 
L 31.133406 33.717957 
L 32.135444 35.730904 
L 33.137481 38.236244 
L 34.473531 42.3036 
L 35.809581 47.14216 
L 37.479644 54.157555 
L 39.483719 63.763338 
L 41.821806 76.172827 
L 50.506131 123.593294 
L 52.510206 132.582761 
L 54.180269 138.966279 
L 55.516319 143.232943 
L 56.852369 146.679096 
L 57.854406 148.692043 
L 58.856444 150.194732 
L 59.524469 150.906271 
L 60.192494 151.382195 
L 60.860519 151.620628 
L 61.528544 151.620628 
L 62.196569 151.382195 
L 62.864594 150.906271 
L 63.532619 150.194732 
L 64.534656 148.692043 
L 65.536694 146.679096 
L 66.538731 144.173756 
L 67.874781 140.1064 
L 69.210831 135.26784 
L 70.880894 128.252445 
L 72.884969 118.646662 
L 75.223056 106.237173 
L 83.907381 58.816706 
L 85.911456 49.827239 
L 87.581519 43.443721 
L 88.917569 39.177057 
L 90.253619 35.730904 
L 91.255656 33.717957 
L 92.257694 32.215268 
L 92.925719 31.503729 
L 93.593744 31.027805 
L 94.261769 30.789372 
L 94.929794 30.789372 
L 95.597819 31.027805 
L 96.265844 31.503729 
L 96.933869 32.215268 
L 97.935906 33.717957 
L 98.937944 35.730904 
L 99.939981 38.236244 
L 101.276031 42.3036 
L 102.612081 47.14216 
L 104.282144 54.157555 
L 106.286219 63.763338 
L 108.624306 76.172827 
L 117.308631 123.593294 
L 119.312706 132.582761 
L 120.982769 138.966279 
L 122.318819 143.232943 
L 123.654869 146.679096 
L 124.656906 148.692043 
L 125.658944 150.194732 
L 126.326969 150.906271 
L 126.994994 151.382195 
L 127.663019 151.620628 
L 128.331044 151.620628 
L 128.999069 151.382195 
L 129.667094 150.906271 
L 130.335119 150.194732 
L 131.337156 148.692043 
L 132.339194 146.679096 
L 133.341231 144.173756 
L 134.677281 140.1064 
L 136.013331 135.26784 
L 137.683394 128.252445 
L 139.687469 118.646662 
L 142.025556 106.237173 
L 150.709881 58.816706 
L 152.713956 49.827239 
L 154.384019 43.443721 
L 155.720069 39.177057 
L 157.056119 35.730904 
L 158.058156 33.717957 
L 159.060194 32.215268 
L 159.728219 31.503729 
L 160.396244 31.027805 
L 161.064269 30.789372 
L 161.732294 30.789372 
L 162.400319 31.027805 
L 163.068344 31.503729 
L 163.736369 32.215268 
L 164.738406 33.717957 
L 165.740444 35.730904 
L 166.742481 38.236244 
L 168.078531 42.3036 
L 169.414581 47.14216 
L 171.084644 54.157555 
L 173.088719 63.763338 
L 175.426806 76.172827 
L 184.111131 123.593294 
L 186.115206 132.582761 
L 187.785269 138.966279 
L 189.121319 143.232943 
L 190.457369 146.679096 
L 191.459406 148.692043 
L 192.461444 150.194732 
L 193.129469 150.906271 
L 193.797494 151.382195 
L 194.465519 151.620628 
L 195.133544 151.620628 
L 195.801569 151.382195 
L 196.469594 150.906271 
L 197.137619 150.194732 
L 198.139656 148.692043 
L 199.141694 146.679096 
L 200.143731 144.173756 
L 201.479781 140.1064 
L 202.815831 135.26784 
L 204.485894 128.252445 
L 206.489969 118.646662 
L 208.828056 106.237173 
L 217.512381 58.816706 
L 219.516456 49.827239 
L 221.186519 43.443721 
L 222.522569 39.177057 
L 223.858619 35.730904 
L 224.860656 33.717957 
L 225.862694 32.215268 
L 226.530719 31.503729 
L 227.198744 31.027805 
L 227.866769 30.789372 
L 228.534794 30.789372 
L 229.202819 31.027805 
L 229.870844 31.503729 
L 230.538869 32.215268 
L 231.540906 33.717957 
L 232.542944 35.730904 
L 233.544981 38.236244 
L 234.881031 42.3036 
L 236.217081 47.14216 
L 237.887144 54.157555 
L 239.891219 63.763338 
L 242.229306 76.172827 
L 250.913631 123.593294 
L 252.917706 132.582761 
L 254.587769 138.966279 
L 255.923819 143.232943 
L 257.259869 146.679096 
L 258.261906 148.692043 
L 259.263944 150.194732 
L 259.931969 150.906271 
L 260.599994 151.382195 
L 261.268019 151.620628 
L 261.936044 151.620628 
L 262.604069 151.382195 
L 263.272094 150.906271 
L 263.940119 150.194732 
L 264.942156 148.692043 
L 265.944194 146.679096 
L 266.946231 144.173756 
L 268.282281 140.1064 
L 269.618331 135.26784 
L 271.288394 128.252445 
L 273.292469 118.646662 
L 275.630556 106.237173 
L 284.314881 58.816706 
L 286.318956 49.827239 
L 287.989019 43.443721 
L 289.325069 39.177057 
L 290.661119 35.730904 
L 291.663156 33.717957 
L 292.665194 32.215268 
L 293.333219 31.503729 
L 294.001244 31.027805 
L 294.669269 30.789372 
L 295.337294 30.789372 
L 296.005319 31.027805 
L 296.673344 31.503729 
L 297.341369 32.215268 
L 298.343406 33.717957 
L 299.345444 35.730904 
L 300.347481 38.236244 
L 301.683531 42.3036 
L 303.019581 47.14216 
L 304.689644 54.157555 
L 306.693719 63.763338 
L 309.031806 76.172827 
L 317.716131 123.593294 
L 319.720206 132.582761 
L 321.390269 138.966279 
L 322.726319 143.232943 
L 324.062369 146.679096 
L 325.064406 148.692043 
L 326.066444 150.194732 
L 326.734469 150.906271 
L 327.402494 151.382195 
L 328.070519 151.620628 
L 328.738544 151.620628 
L 329.406569 151.382195 
L 330.074594 150.906271 
L 330.742619 150.194732 
L 331.744656 148.692043 
L 332.746694 146.679096 
L 333.748731 144.173756 
L 335.084781 140.1064 
L 336.420831 135.26784 
L 338.090894 128.252445 
L 340.094969 118.646662 
L 342.433056 106.237173 
L 345.439169 89.306362 
L 345.439169 89.306362 
" clip-path="url(#p7e957fbe15)" style="fill: none; stroke: #1f77b4; stroke-linecap: square"/>
   </g>
   <g id="patch_3">
    <path d="M 11.092656 157.695 
L 345.105156 157.695 
" style="fill: none; stroke: #000000; stroke-width: 0.8; stroke-linejoin: miter; stroke-linecap: square"/>
   </g>
   <g id="text_8">
    <text style="font: 16px 'Helvetica', sans-serif; text-anchor: middle" x="178.098906" y="18.715" transform="rotate(-0 178.098906 18.715)">Time-domain signal</text>
   </g>
  </g>
  <g id="axes_2">
   <g id="patch_4">
    <path d="M 367.650156 157.695 
L 701.662656 157.695 
L 701.662656 24.715 
L 367.650156 24.715 
z
" style="fill: #ffffff"/>
   </g>
   <g id="matplotlib.axis_3">
    <g id="xtick_7">
     <g id="line2d_8">
      <g>
       <use xlink:href="#m83d352200a" x="367.650156" y="157.695" style="stroke: #000000; stroke-width: 0.8"/>
      </g>
     </g>
     <g id="text_9">
      <text style="font: 14px 'Helvetica', sans-serif; text-anchor: middle" x="367.650156" y="174.737812" transform="rotate(-0 367.650156 174.737812)">0</text>
     </g>
    </g>
    <g id="xtick_8">
     <g id="line2d_9">
      <g>
       <use xlink:href="#m83d352200a" x="451.153281" y="157.695" style="stroke: #000000; stroke-width: 0.8"/>
      </g>
     </g>
     <g id="text_10">
      <text style="font: 14px 'Helvetica', sans-serif; text-anchor: middle" x="451.153281" y="174.737812" transform="rotate(-0 451.153281 174.737812)">1</text>
     </g>
    </g>
    <g id="xtick_9">
     <g id="line2d_10">
      <g>
       <use xlink:href="#m83d352200a" x="534.656406" y="157.695" style="stroke: #000000; stroke-width: 0.8"/>
      </g>
     </g>
     <g id="text_11">
      <text style="font: 14px 'Helvetica', sans-serif; text-anchor: middle" x="534.656406" y="174.737812" transform="rotate(-0 534.656406 174.737812)">2</text>
     </g>
    </g>
    <g id="xtick_10">
     <g id="line2d_11">
      <g>
       <use xlink:href="#m83d352200a" x="618.159531" y="157.695" style="stroke: #000000; stroke-width: 0.8"/>
      </g>
     </g>
     <g id="text_12">
      <text style="font: 14px 'Helvetica', sans-serif; text-anchor: middle" x="618.159531" y="174.737812" transform="rotate(-0 618.159531 174.737812)">3</text>
     </g>
    </g>
    <g id="xtick_11">
     <g id="line2d_12">
      <g>
       <use xlink:href="#m83d352200a" x="701.662656" y="157.695" style="stroke: #000000; stroke-width: 0.8"/>
      </g>
     </g>
     <g id="text_13">
      <text style="font: 14px 'Helvetica', sans-serif; text-anchor: middle" x="701.662656" y="174.737812" transform="rotate(-0 701.662656 174.737812)">4</text>
     </g>
    </g>
    <g id="text_14">
     <!-- $f$ (Hz) -->
     <g transform="translate(514.496406 193.815937)">
      <text>
       <tspan style="font: oblique 16px 'DejaVu Sans'" x="0" y="-0.84375">f</tspan>
       <tspan style="font: 16px 'Helvetica'" x="5.632812 10.078125 15.40625 26.960938 34.960938" y="-0.84375"> (Hz)</tspan>
      </text>
     </g>
    </g>
   </g>
   <g id="matplotlib.axis_4"/>
   <g id="line2d_13">
    <path d="M 367.650156 151.650455 
L 408.566688 151.650455 
L 409.401719 30.759545 
L 410.23675 151.650455 
L 702.497687 151.650455 
L 702.497687 151.650455 
" clip-path="url(#pfdb1d2fd46)" style="fill: none; stroke: #1f77b4; stroke-width: 1.5; stroke-linecap: square"/>
   </g>
   <g id="patch_5">
    <path d="M 367.650156 157.695 
L 701.662656 157.695 
" style="fill: none; stroke: #000000; stroke-width: 0.8; stroke-linejoin: miter; stroke-linecap: square"/>
   </g>
   <g id="text_15">
    <text style="font: 16px 'Helvetica', sans-serif; text-anchor: middle" x="534.656406" y="18.715" transform="rotate(-0 534.656406 18.715)">Frequency-domain representation</text>
   </g>
  </g>
 </g>
 <defs>
  <clipPath id="p7e957fbe15">
   <rect x="11.092656" y="24.715" width="334.0125" height="132.98"/>
  </clipPath>
  <clipPath id="pfdb1d2fd46">
   <rect x="367.650156" y="24.715" width="334.0125" height="132.98"/>
  </clipPath>
 </defs>
</svg>
