<?xml version="1.0" encoding="utf-8" standalone="no"?>
<!DOCTYPE svg PUBLIC "-//W3C//DTD SVG 1.1//EN"
  "http://www.w3.org/Graphics/SVG/1.1/DTD/svg11.dtd">
<svg xmlns:xlink="http://www.w3.org/1999/xlink" width="712.777656pt" height="203.6175pt" viewBox="0 0 712.777656 203.6175" xmlns="http://www.w3.org/2000/svg" version="1.1">
 <metadata>
  <rdf:RDF xmlns:dc="http://purl.org/dc/elements/1.1/" xmlns:cc="http://creativecommons.org/ns#" xmlns:rdf="http://www.w3.org/1999/02/22-rdf-syntax-ns#">
   <cc:Work>
    <dc:type rdf:resource="http://purl.org/dc/dcmitype/StillImage"/>
    <dc:date>2024-10-03T15:49:38.660491</dc:date>
    <dc:format>image/svg+xml</dc:format>
    <dc:creator>
     <cc:Agent>
      <dc:title>Matplotlib v3.9.2, https://matplotlib.org/</dc:title>
     </cc:Agent>
    </dc:creator>
   </cc:Work>
  </rdf:RDF>
 </metadata>
 <defs>
  <style type="text/css">*{stroke-linejoin: round; stroke-linecap: butt}</style>
 </defs>
 <g id="figure_1">
  <g id="patch_1">
   <path d="M 0 203.6175 
L 712.777656 203.6175 
L 712.777656 -0 
L 0 -0 
z
" style="fill: #ffffff"/>
  </g>
  <g id="axes_1">
   <g id="patch_2">
    <path d="M 11.092656 159.495625 
L 350.034957 159.495625 
L 350.034957 23.275625 
L 11.092656 23.275625 
z
" style="fill: #ffffff"/>
   </g>
   <g id="matplotlib.axis_1">
    <g id="xtick_1">
     <g id="line2d_1">
      <defs>
       <path id="m30abe5e0ea" d="M 0 0 
L 0 3.5 
" style="stroke: #000000; stroke-width: 0.8"/>
      </defs>
      <g>
       <use xlink:href="#m30abe5e0ea" x="11.092656" y="159.495625" style="stroke: #000000; stroke-width: 0.8"/>
      </g>
     </g>
     <g id="text_1">
      <text style="font: 14px 'Helvetica', sans-serif; text-anchor: middle" x="11.092656" y="176.538437" transform="rotate(-0 11.092656 176.538437)">0</text>
     </g>
    </g>
    <g id="xtick_2">
     <g id="line2d_2">
      <g>
       <use xlink:href="#m30abe5e0ea" x="77.292324" y="159.495625" style="stroke: #000000; stroke-width: 0.8"/>
      </g>
     </g>
     <g id="text_2">
      <text style="font: 14px 'Helvetica', sans-serif; text-anchor: middle" x="77.292324" y="176.538437" transform="rotate(-0 77.292324 176.538437)">50</text>
     </g>
    </g>
    <g id="xtick_3">
     <g id="line2d_3">
      <g>
       <use xlink:href="#m30abe5e0ea" x="143.491993" y="159.495625" style="stroke: #000000; stroke-width: 0.8"/>
      </g>
     </g>
     <g id="text_3">
      <text style="font: 14px 'Helvetica', sans-serif; text-anchor: middle" x="143.491993" y="176.538437" transform="rotate(-0 143.491993 176.538437)">100</text>
     </g>
    </g>
    <g id="xtick_4">
     <g id="line2d_4">
      <g>
       <use xlink:href="#m30abe5e0ea" x="209.691661" y="159.495625" style="stroke: #000000; stroke-width: 0.8"/>
      </g>
     </g>
     <g id="text_4">
      <text style="font: 14px 'Helvetica', sans-serif; text-anchor: middle" x="209.691661" y="176.538437" transform="rotate(-0 209.691661 176.538437)">150</text>
     </g>
    </g>
    <g id="xtick_5">
     <g id="line2d_5">
      <g>
       <use xlink:href="#m30abe5e0ea" x="275.891329" y="159.495625" style="stroke: #000000; stroke-width: 0.8"/>
      </g>
     </g>
     <g id="text_5">
      <text style="font: 14px 'Helvetica', sans-serif; text-anchor: middle" x="275.891329" y="176.538437" transform="rotate(-0 275.891329 176.538437)">200</text>
     </g>
    </g>
    <g id="xtick_6">
     <g id="line2d_6">
      <g>
       <use xlink:href="#m30abe5e0ea" x="342.090997" y="159.495625" style="stroke: #000000; stroke-width: 0.8"/>
      </g>
     </g>
     <g id="text_6">
      <text style="font: 14px 'Helvetica', sans-serif; text-anchor: middle" x="342.090997" y="176.538437" transform="rotate(-0 342.090997 176.538437)">250</text>
     </g>
    </g>
    <g id="text_7">
     <!-- $n$ -->
     <g transform="translate(176.083807 193.499375)">
      <text>
       <tspan style="font: oblique 14px 'DejaVu Sans'" x="0" y="-0.15625">n</tspan>
      </text>
     </g>
    </g>
   </g>
   <g id="matplotlib.axis_2"/>
   <g id="line2d_7">
    <path d="M 11.092656 66.395476 
L 12.41665 52.346431 
L 13.740643 57.543174 
L 15.064636 78.900396 
L 16.38863 96.125093 
L 17.712623 94.151272 
L 19.036616 79.495108 
L 20.36061 71.977327 
L 21.684603 81.44672 
L 23.008597 96.265912 
L 24.33259 96.78772 
L 25.656583 78.363791 
L 26.980577 57.444319 
L 28.30457 53.635979 
L 30.952557 82.794985 
L 32.27655 81.487965 
L 33.600543 68.154714 
L 34.924537 61.993795 
L 36.24853 74.679555 
L 37.572524 96.109 
L 38.896517 105.119717 
L 40.22051 93.071024 
L 41.544504 73.414845 
L 42.868497 66.36051 
L 44.19249 76.177953 
L 45.516484 87.04004 
L 46.840477 82.02374 
L 48.16447 63.34676 
L 49.488464 50.505466 
L 50.812457 58.315984 
L 52.136451 79.929426 
L 53.460444 94.271157 
L 54.784437 89.464138 
L 56.108431 75.554538 
L 57.432424 72.137692 
L 58.756417 85.218806 
L 60.080411 99.935705 
L 61.404404 97.552444 
L 64.052391 57.826461 
L 65.376384 56.891231 
L 66.700378 71.730733 
L 68.024371 83.060542 
L 69.348364 77.566775 
L 70.672358 63.214784 
L 71.996351 59.807959 
L 73.320344 75.667541 
L 74.644338 97.256832 
L 75.968331 103.791931 
L 77.292324 90.281706 
L 78.616318 72.763794 
L 79.940311 69.833839 
L 81.264305 81.63596 
L 82.588298 90.314213 
L 83.912291 81.289781 
L 85.236285 60.843703 
L 86.560278 49.703644 
L 87.884271 59.827783 
L 89.208265 80.866853 
L 90.532258 91.774473 
L 91.856251 84.318986 
L 93.180245 71.69049 
L 94.504238 72.505885 
L 95.828232 88.696021 
L 97.152225 102.745066 
L 98.476218 97.548322 
L 99.800212 76.191101 
L 101.124205 58.966403 
L 102.448198 60.940224 
L 103.772192 75.596389 
L 105.096185 83.114169 
L 106.420178 73.644776 
L 107.744172 58.825585 
L 109.068165 58.303777 
L 110.392159 76.727706 
L 111.716152 97.647177 
L 113.040145 101.455518 
L 115.688132 72.296512 
L 117.012125 73.603532 
L 118.336119 86.936782 
L 119.660112 93.097702 
L 120.984105 80.411941 
L 122.308099 58.982496 
L 123.632092 49.971779 
L 124.956086 62.020473 
L 126.280079 81.676652 
L 127.604072 88.730987 
L 128.928066 78.913543 
L 130.252059 68.051457 
L 131.576052 73.067757 
L 132.900046 91.744737 
L 134.224039 104.58603 
L 135.548032 96.775512 
L 136.872026 75.16207 
L 138.196019 60.820339 
L 139.520013 65.627359 
L 140.844006 79.536958 
L 142.167999 82.953805 
L 143.491993 69.87269 
L 144.815986 55.155791 
L 146.139979 57.539052 
L 148.787966 97.265036 
L 150.111959 98.200266 
L 151.435953 83.360764 
L 152.759946 72.030954 
L 154.08394 77.524722 
L 155.407933 91.876712 
L 156.731926 95.283537 
L 158.05592 79.423955 
L 159.379913 57.834665 
L 160.703906 51.299566 
L 162.0279 64.80979 
L 163.351893 82.327702 
L 164.675886 85.257658 
L 165.99988 73.455536 
L 167.323873 64.777283 
L 168.647867 73.801715 
L 169.97186 94.247794 
L 171.295853 105.387852 
L 172.619847 95.263714 
L 173.94384 74.224643 
L 175.267833 63.317024 
L 176.591827 70.77251 
L 177.91582 83.401006 
L 179.239813 82.585612 
L 180.563807 66.395476 
L 181.8878 52.346431 
L 183.211794 57.543174 
L 184.535787 78.900396 
L 185.85978 96.125093 
L 187.183774 94.151272 
L 188.507767 79.495108 
L 189.83176 71.977327 
L 191.155754 81.44672 
L 192.479747 96.265912 
L 193.80374 96.78772 
L 195.127734 78.363791 
L 196.451727 57.444319 
L 197.775721 53.635979 
L 200.423707 82.794985 
L 201.747701 81.487965 
L 203.071694 68.154714 
L 204.395687 61.993795 
L 205.719681 74.679555 
L 207.043674 96.109 
L 208.367667 105.119717 
L 209.691661 93.071024 
L 211.015654 73.414845 
L 212.339648 66.36051 
L 213.663641 76.177953 
L 214.987634 87.04004 
L 216.311628 82.02374 
L 217.635621 63.34676 
L 218.959614 50.505466 
L 220.283608 58.315984 
L 221.607601 79.929426 
L 222.931594 94.271157 
L 224.255588 89.464138 
L 225.579581 75.554538 
L 226.903575 72.137692 
L 228.227568 29.467443 
L 229.551561 44.184343 
L 230.875555 153.303807 
L 232.199548 133.023552 
L 233.523541 57.826461 
L 234.847535 56.891231 
L 236.171528 71.730733 
L 237.495521 83.060542 
L 238.819515 77.566775 
L 240.143508 63.214784 
L 241.467502 59.807959 
L 242.791495 75.667541 
L 244.115488 97.256832 
L 245.439482 103.791931 
L 246.763475 90.281706 
L 248.087468 72.763794 
L 249.411462 69.833839 
L 250.735455 81.63596 
L 252.059448 90.314213 
L 253.383442 81.289781 
L 254.707435 60.843703 
L 256.031429 49.703644 
L 257.355422 59.827783 
L 258.679415 80.866853 
L 260.003409 91.774473 
L 261.327402 84.318986 
L 262.651395 71.69049 
L 263.975389 72.505885 
L 265.299382 88.696021 
L 266.623375 102.745066 
L 267.947369 97.548322 
L 269.271362 76.191101 
L 270.595356 58.966403 
L 271.919349 60.940224 
L 273.243342 75.596389 
L 274.567336 83.114169 
L 275.891329 73.644776 
L 277.215322 58.825585 
L 278.539316 58.303777 
L 279.863309 76.727706 
L 281.187302 97.647177 
L 282.511296 101.455518 
L 285.159283 72.296512 
L 286.483276 73.603532 
L 287.807269 86.936782 
L 289.131263 93.097702 
L 290.455256 80.411941 
L 291.779249 58.982496 
L 293.103243 49.971779 
L 294.427236 62.020473 
L 295.751229 81.676652 
L 297.075223 88.730987 
L 298.399216 78.913543 
L 299.72321 68.051457 
L 301.047203 73.067757 
L 302.371196 91.744737 
L 303.69519 104.58603 
L 305.019183 96.775512 
L 306.343176 75.16207 
L 307.66717 60.820339 
L 308.991163 65.627359 
L 310.315156 79.536958 
L 311.63915 82.953805 
L 312.963143 69.87269 
L 314.287137 55.155791 
L 315.61113 57.539052 
L 318.259117 97.265036 
L 319.58311 98.200266 
L 320.907103 83.360764 
L 322.231097 72.030954 
L 323.55509 77.524722 
L 324.879083 91.876712 
L 326.203077 95.283537 
L 327.52707 79.423955 
L 328.851064 57.834665 
L 330.175057 51.299566 
L 331.49905 64.80979 
L 332.823044 82.327702 
L 334.147037 85.257658 
L 335.47103 73.455536 
L 336.795024 64.777283 
L 338.119017 73.801715 
L 339.44301 94.247794 
L 340.767004 105.387852 
L 342.090997 95.263714 
L 343.414991 74.224643 
L 344.738984 63.317024 
L 346.062977 70.77251 
L 347.386971 83.401006 
L 348.710964 82.585612 
L 348.710964 82.585612 
" clip-path="url(#p53ee7bf345)" style="fill: none; stroke: #1f77b4; stroke-linecap: square"/>
   </g>
   <g id="patch_3">
    <path d="M 11.092656 159.495625 
L 350.034957 159.495625 
" style="fill: none; stroke: #000000; stroke-width: 0.8; stroke-linejoin: miter; stroke-linecap: square"/>
   </g>
   <g id="text_8">
    <text style="font: 14px 'Helvetica', sans-serif; text-anchor: middle" x="180.563807" y="17.275625" transform="rotate(-0 180.563807 17.275625)">Time-domain signal</text>
   </g>
  </g>
  <g id="axes_2">
   <g id="patch_4">
    <path d="M 366.635355 159.495625 
L 705.577656 159.495625 
L 705.577656 23.275625 
L 366.635355 23.275625 
z
" style="fill: #ffffff"/>
   </g>
   <g id="matplotlib.axis_3">
    <g id="xtick_7">
     <g id="line2d_8">
      <g>
       <use xlink:href="#m30abe5e0ea" x="382.041823" y="159.495625" style="stroke: #000000; stroke-width: 0.8"/>
      </g>
     </g>
     <g id="text_9">
      <text style="font: 14px 'Helvetica', sans-serif; text-anchor: middle" x="382.041823" y="176.538437" transform="rotate(-0 382.041823 176.538437)">0</text>
     </g>
    </g>
    <g id="xtick_8">
     <g id="line2d_9">
      <g>
       <use xlink:href="#m30abe5e0ea" x="442.459346" y="159.495625" style="stroke: #000000; stroke-width: 0.8"/>
      </g>
     </g>
     <g id="text_10">
      <text style="font: 14px 'Helvetica', sans-serif; text-anchor: middle" x="442.459346" y="176.538437" transform="rotate(-0 442.459346 176.538437)">50</text>
     </g>
    </g>
    <g id="xtick_9">
     <g id="line2d_10">
      <g>
       <use xlink:href="#m30abe5e0ea" x="502.876868" y="159.495625" style="stroke: #000000; stroke-width: 0.8"/>
      </g>
     </g>
     <g id="text_11">
      <text style="font: 14px 'Helvetica', sans-serif; text-anchor: middle" x="502.876868" y="176.538437" transform="rotate(-0 502.876868 176.538437)">100</text>
     </g>
    </g>
    <g id="xtick_10">
     <g id="line2d_11">
      <g>
       <use xlink:href="#m30abe5e0ea" x="563.294391" y="159.495625" style="stroke: #000000; stroke-width: 0.8"/>
      </g>
     </g>
     <g id="text_12">
      <text style="font: 14px 'Helvetica', sans-serif; text-anchor: middle" x="563.294391" y="176.538437" transform="rotate(-0 563.294391 176.538437)">150</text>
     </g>
    </g>
    <g id="xtick_11">
     <g id="line2d_12">
      <g>
       <use xlink:href="#m30abe5e0ea" x="623.711913" y="159.495625" style="stroke: #000000; stroke-width: 0.8"/>
      </g>
     </g>
     <g id="text_13">
      <text style="font: 14px 'Helvetica', sans-serif; text-anchor: middle" x="623.711913" y="176.538437" transform="rotate(-0 623.711913 176.538437)">200</text>
     </g>
    </g>
    <g id="xtick_12">
     <g id="line2d_13">
      <g>
       <use xlink:href="#m30abe5e0ea" x="684.129436" y="159.495625" style="stroke: #000000; stroke-width: 0.8"/>
      </g>
     </g>
     <g id="text_14">
      <text style="font: 14px 'Helvetica', sans-serif; text-anchor: middle" x="684.129436" y="176.538437" transform="rotate(-0 684.129436 176.538437)">250</text>
     </g>
    </g>
    <g id="text_15">
     <!-- $k$ -->
     <g transform="translate(532.046506 193.499375)">
      <text>
       <tspan style="font: oblique 14px 'DejaVu Sans'" x="0" y="-0.359375">k</tspan>
      </text>
     </g>
    </g>
   </g>
   <g id="matplotlib.axis_4"/>
   <g id="line2d_14">
    <path d="M 382.041823 121.717349 
L 383.250174 121.717349 
L 384.458524 115.956869 
L 385.666875 115.956869 
L 386.875225 114.519141 
L 388.083576 128.915558 
L 389.291926 114.519141 
L 390.500276 128.915558 
L 391.708627 120.802078 
L 392.916977 118.416008 
L 394.125328 122.632621 
L 395.333678 125.018691 
L 396.542029 120.802078 
L 397.750379 118.416008 
L 398.95873 122.632621 
L 400.16708 125.018691 
L 401.375431 117.836576 
L 402.583781 141.308226 
L 403.792131 153.303807 
L 405.000482 146.796469 
L 406.208832 125.598123 
L 407.417183 102.126472 
L 408.625533 90.130892 
L 409.833884 96.63823 
L 411.042234 117.836576 
L 412.250585 141.308226 
L 413.458935 153.303807 
L 414.667285 146.796469 
L 415.875636 125.598123 
L 417.083986 102.126472 
L 418.292337 90.130892 
L 419.500687 96.63823 
L 420.709038 95.167183 
L 421.917388 149.597731 
L 423.125739 96.751288 
L 424.334089 139.968234 
L 425.54244 112.960174 
L 426.75079 119.647616 
L 427.95914 134.298894 
L 429.167491 100.53942 
L 430.375841 148.267516 
L 431.584192 93.836968 
L 432.792542 146.683411 
L 434.000893 103.466465 
L 435.209243 130.474525 
L 436.417594 123.787083 
L 437.625944 109.135805 
L 438.834294 142.895279 
L 440.042645 95.167183 
L 441.250995 149.597731 
L 442.459346 96.751288 
L 443.667696 139.968234 
L 444.876047 112.960174 
L 446.084397 119.647616 
L 447.292748 134.298894 
L 448.501098 100.53942 
L 449.709449 148.267516 
L 450.917799 93.836968 
L 452.126149 146.683411 
L 453.3345 103.466465 
L 454.54285 130.474525 
L 455.751201 123.787083 
L 456.959551 109.135805 
L 458.167902 142.895279 
L 459.376252 114.039097 
L 460.584603 138.548897 
L 461.792953 122.828258 
L 463.001303 104.452347 
L 464.209654 127.34291 
L 465.418004 136.787367 
L 466.626355 110.21176 
L 467.834705 111.136591 
L 469.043056 137.351347 
L 470.251406 126.198025 
L 471.459757 104.335079 
L 472.668107 124.018899 
L 473.876458 138.2016 
L 475.084808 112.983965 
L 476.293158 108.640697 
L 477.501509 135.552991 
L 478.709859 129.395602 
L 479.91821 104.885802 
L 481.12656 120.606441 
L 482.334911 138.982352 
L 483.543261 116.091789 
L 484.751612 106.647332 
L 485.959962 133.222939 
L 487.168312 132.298108 
L 488.376663 106.083352 
L 489.585013 117.236674 
L 490.793364 139.09962 
L 492.001714 119.4158 
L 493.210065 105.233099 
L 494.418415 130.450734 
L 495.626766 134.794002 
L 496.835116 107.881708 
L 498.043467 114.039097 
L 499.251817 138.548897 
L 500.460167 122.828258 
L 501.668518 104.452347 
L 502.876868 127.34291 
L 504.085219 136.787367 
L 505.293569 110.21176 
L 506.50192 111.136591 
L 507.71027 137.351347 
L 508.918621 29.467443 
L 510.126971 104.335079 
L 511.335321 124.018899 
L 512.543672 138.2016 
L 513.752022 112.983965 
L 514.960373 108.640697 
L 516.168723 135.552991 
L 517.377074 129.395602 
L 518.585424 104.885802 
L 519.793775 120.606441 
L 521.002125 138.982352 
L 522.210476 116.091789 
L 523.418826 106.647332 
L 524.627176 133.222939 
L 525.835527 132.298108 
L 527.043877 106.083352 
L 528.252228 117.236674 
L 529.460578 139.09962 
L 530.668929 119.4158 
L 531.877279 105.233099 
L 533.08563 130.450734 
L 534.29398 134.794002 
L 535.50233 107.881708 
L 536.710681 130.335422 
L 537.919031 108.61624 
L 539.127382 122.928146 
L 540.335732 126.328963 
L 541.544083 112.626848 
L 542.752433 133.019096 
L 543.960784 124.053491 
L 545.169134 112.696013 
L 546.377485 129.896334 
L 547.585835 113.935554 
L 548.794185 116.189927 
L 550.002536 133.774992 
L 551.210886 115.695059 
L 552.419237 124.794486 
L 553.627587 129.594553 
L 554.835938 108.459067 
L 556.044288 124.666108 
L 557.252639 123.813338 
L 558.460989 112.689597 
L 559.669339 134.157818 
L 560.87769 122.291045 
L 562.08604 114.767331 
L 563.294391 130.521257 
L 564.502741 111.988644 
L 565.711092 117.708539 
L 566.919442 132.46332 
L 568.127793 114.477602 
L 569.336143 127.253185 
L 570.544493 128.550969 
L 571.752844 108.811403 
L 572.961194 126.290751 
L 574.169545 121.217164 
L 575.377895 113.099277 
L 576.586246 134.818459 
L 577.794596 120.506553 
L 579.002947 117.105736 
L 580.211297 130.807851 
L 581.419648 110.415603 
L 582.627998 119.381208 
L 583.836348 130.738686 
L 585.044699 113.538365 
L 586.253049 129.499145 
L 587.4614 127.244772 
L 588.66975 109.659707 
L 589.878101 127.73964 
L 591.086451 118.640212 
L 592.294802 113.840145 
L 593.503152 134.975632 
L 594.711502 118.768591 
L 595.919853 119.621361 
L 597.128203 130.745102 
L 598.336554 109.276881 
L 599.544904 121.143654 
L 600.753255 128.667367 
L 601.961605 112.913442 
L 603.169956 131.446055 
L 604.378306 125.72616 
L 605.586657 110.971379 
L 606.795007 128.957097 
L 608.003357 116.181513 
L 609.211708 114.88373 
L 610.420058 134.623296 
L 611.628409 117.143948 
L 612.836759 122.217535 
L 614.04511 130.335422 
L 615.25346 108.61624 
L 616.461811 122.928146 
L 617.670161 126.328963 
L 618.878511 112.626848 
L 620.086862 133.019096 
L 621.295212 124.053491 
L 622.503563 112.696013 
L 623.711913 129.896334 
L 624.920264 113.935554 
L 626.128614 116.189927 
L 627.336965 133.774992 
L 628.545315 115.695059 
L 629.753666 124.794486 
L 630.962016 129.594553 
L 632.170366 108.459067 
L 633.378717 124.666108 
L 634.587067 123.813338 
L 635.795418 112.689597 
L 637.003768 134.157818 
L 638.212119 122.291045 
L 639.420469 114.767331 
L 640.62882 130.521257 
L 641.83717 111.988644 
L 643.04552 117.708539 
L 644.253871 132.46332 
L 645.462221 114.477602 
L 646.670572 127.253185 
L 647.878922 128.550969 
L 649.087273 108.811403 
L 650.295623 126.290751 
L 651.503974 121.217164 
L 652.712324 113.099277 
L 653.920675 134.818459 
L 655.129025 120.506553 
L 656.337375 117.105736 
L 657.545726 130.807851 
L 658.754076 110.415603 
L 659.962427 119.381208 
L 661.170777 130.738686 
L 662.379128 113.538365 
L 663.587478 129.499145 
L 664.795829 127.244772 
L 666.004179 109.659707 
L 667.212529 127.73964 
L 668.42088 118.640212 
L 669.62923 113.840145 
L 670.837581 134.975632 
L 672.045931 118.768591 
L 673.254282 119.621361 
L 674.462632 130.745102 
L 675.670983 109.276881 
L 676.879333 121.143654 
L 678.087684 128.667367 
L 679.296034 112.913442 
L 680.504384 131.446055 
L 681.712735 125.72616 
L 682.921085 110.971379 
L 684.129436 128.957097 
L 685.337786 116.181513 
L 686.546137 114.88373 
L 687.754487 134.623296 
L 688.962838 117.143948 
L 690.171188 122.217535 
L 690.171188 122.217535 
" clip-path="url(#p497d7cdb0c)" style="fill: none; stroke: #1f77b4; stroke-linecap: square"/>
   </g>
   <g id="patch_5">
    <path d="M 366.635355 159.495625 
L 705.577656 159.495625 
" style="fill: none; stroke: #000000; stroke-width: 0.8; stroke-linejoin: miter; stroke-linecap: square"/>
   </g>
   <g id="text_16">
    <text style="font: 14px 'Helvetica', sans-serif; text-anchor: middle" x="536.106506" y="17.275625" transform="rotate(-0 536.106506 17.275625)">Haar Decomposition</text>
   </g>
  </g>
 </g>
 <defs>
  <clipPath id="p53ee7bf345">
   <rect x="11.092656" y="23.275625" width="338.942301" height="136.22"/>
  </clipPath>
  <clipPath id="p497d7cdb0c">
   <rect x="366.635355" y="23.275625" width="338.942301" height="136.22"/>
  </clipPath>
 </defs>
</svg>
