<?xml version="1.0" encoding="utf-8" standalone="no"?>
<!DOCTYPE svg PUBLIC "-//W3C//DTD SVG 1.1//EN"
  "http://www.w3.org/Graphics/SVG/1.1/DTD/svg11.dtd">
<svg xmlns:xlink="http://www.w3.org/1999/xlink" width="712.777656pt" height="203.858125pt" viewBox="0 0 712.777656 203.858125" xmlns="http://www.w3.org/2000/svg" version="1.1">
 <metadata>
  <rdf:RDF xmlns:dc="http://purl.org/dc/elements/1.1/" xmlns:cc="http://creativecommons.org/ns#" xmlns:rdf="http://www.w3.org/1999/02/22-rdf-syntax-ns#">
   <cc:Work>
    <dc:type rdf:resource="http://purl.org/dc/dcmitype/StillImage"/>
    <dc:date>2024-10-03T15:49:40.309961</dc:date>
    <dc:format>image/svg+xml</dc:format>
    <dc:creator>
     <cc:Agent>
      <dc:title>Matplotlib v3.9.2, https://matplotlib.org/</dc:title>
     </cc:Agent>
    </dc:creator>
   </cc:Work>
  </rdf:RDF>
 </metadata>
 <defs>
  <style type="text/css">*{stroke-linejoin: round; stroke-linecap: butt}</style>
 </defs>
 <g id="figure_1">
  <g id="patch_1">
   <path d="M 0 203.858125 
L 712.777656 203.858125 
L 712.777656 0 
L 0 0 
z
" style="fill: #ffffff"/>
  </g>
  <g id="axes_1">
   <g id="patch_2">
    <path d="M 11.092656 159.73625 
L 350.034957 159.73625 
L 350.034957 23.51625 
L 11.092656 23.51625 
z
" style="fill: #ffffff"/>
   </g>
   <g id="matplotlib.axis_1">
    <g id="xtick_1">
     <g id="line2d_1">
      <defs>
       <path id="m8c93211c24" d="M 0 0 
L 0 3.5 
" style="stroke: #000000; stroke-width: 0.8"/>
      </defs>
      <g>
       <use xlink:href="#m8c93211c24" x="11.092656" y="159.73625" style="stroke: #000000; stroke-width: 0.8"/>
      </g>
     </g>
     <g id="text_1">
      <text style="font: 14px 'Helvetica', sans-serif; text-anchor: middle" x="11.092656" y="176.779062" transform="rotate(-0 11.092656 176.779062)">0</text>
     </g>
    </g>
    <g id="xtick_2">
     <g id="line2d_2">
      <g>
       <use xlink:href="#m8c93211c24" x="77.292324" y="159.73625" style="stroke: #000000; stroke-width: 0.8"/>
      </g>
     </g>
     <g id="text_2">
      <text style="font: 14px 'Helvetica', sans-serif; text-anchor: middle" x="77.292324" y="176.779062" transform="rotate(-0 77.292324 176.779062)">50</text>
     </g>
    </g>
    <g id="xtick_3">
     <g id="line2d_3">
      <g>
       <use xlink:href="#m8c93211c24" x="143.491993" y="159.73625" style="stroke: #000000; stroke-width: 0.8"/>
      </g>
     </g>
     <g id="text_3">
      <text style="font: 14px 'Helvetica', sans-serif; text-anchor: middle" x="143.491993" y="176.779062" transform="rotate(-0 143.491993 176.779062)">100</text>
     </g>
    </g>
    <g id="xtick_4">
     <g id="line2d_4">
      <g>
       <use xlink:href="#m8c93211c24" x="209.691661" y="159.73625" style="stroke: #000000; stroke-width: 0.8"/>
      </g>
     </g>
     <g id="text_4">
      <text style="font: 14px 'Helvetica', sans-serif; text-anchor: middle" x="209.691661" y="176.779062" transform="rotate(-0 209.691661 176.779062)">150</text>
     </g>
    </g>
    <g id="xtick_5">
     <g id="line2d_5">
      <g>
       <use xlink:href="#m8c93211c24" x="275.891329" y="159.73625" style="stroke: #000000; stroke-width: 0.8"/>
      </g>
     </g>
     <g id="text_5">
      <text style="font: 14px 'Helvetica', sans-serif; text-anchor: middle" x="275.891329" y="176.779062" transform="rotate(-0 275.891329 176.779062)">200</text>
     </g>
    </g>
    <g id="xtick_6">
     <g id="line2d_6">
      <g>
       <use xlink:href="#m8c93211c24" x="342.090997" y="159.73625" style="stroke: #000000; stroke-width: 0.8"/>
      </g>
     </g>
     <g id="text_6">
      <text style="font: 14px 'Helvetica', sans-serif; text-anchor: middle" x="342.090997" y="176.779062" transform="rotate(-0 342.090997 176.779062)">250</text>
     </g>
    </g>
    <g id="text_7">
     <!-- $n$ -->
     <g transform="translate(176.083807 193.74)">
      <text>
       <tspan style="font: oblique 14px 'DejaVu Sans'" x="0" y="-0.15625">n</tspan>
      </text>
     </g>
    </g>
   </g>
   <g id="matplotlib.axis_2"/>
   <g id="line2d_7">
    <path d="M 11.092656 66.636101 
L 12.41665 52.587056 
L 13.740643 57.783799 
L 15.064636 79.141021 
L 16.38863 96.365718 
L 17.712623 94.391897 
L 19.036616 79.735733 
L 20.36061 72.217952 
L 21.684603 81.687345 
L 23.008597 96.506537 
L 24.33259 97.028345 
L 25.656583 78.604416 
L 26.980577 57.684944 
L 28.30457 53.876604 
L 30.952557 83.03561 
L 32.27655 81.72859 
L 33.600543 68.395339 
L 34.924537 62.23442 
L 36.24853 74.92018 
L 37.572524 96.349625 
L 38.896517 105.360342 
L 40.22051 93.311649 
L 41.544504 73.65547 
L 42.868497 66.601135 
L 44.19249 76.418578 
L 45.516484 87.280665 
L 46.840477 82.264365 
L 48.16447 63.587385 
L 49.488464 50.746091 
L 50.812457 58.556609 
L 52.136451 80.170051 
L 53.460444 94.511782 
L 54.784437 89.704763 
L 56.108431 75.795163 
L 57.432424 72.378317 
L 58.756417 85.459431 
L 60.080411 100.17633 
L 61.404404 97.793069 
L 64.052391 58.067086 
L 65.376384 57.131856 
L 66.700378 71.971358 
L 68.024371 83.301167 
L 69.348364 77.8074 
L 70.672358 63.455409 
L 71.996351 60.048584 
L 73.320344 75.908166 
L 74.644338 97.497457 
L 75.968331 104.032556 
L 77.292324 90.522331 
L 78.616318 73.004419 
L 79.940311 70.074464 
L 81.264305 81.876585 
L 82.588298 90.554838 
L 83.912291 81.530406 
L 85.236285 61.084328 
L 86.560278 49.944269 
L 87.884271 60.068408 
L 89.208265 81.107478 
L 90.532258 92.015098 
L 91.856251 84.559611 
L 93.180245 71.931115 
L 94.504238 72.74651 
L 95.828232 88.936646 
L 97.152225 102.985691 
L 98.476218 97.788947 
L 99.800212 76.431726 
L 101.124205 59.207028 
L 102.448198 61.180849 
L 103.772192 75.837014 
L 105.096185 83.354794 
L 106.420178 73.885401 
L 107.744172 59.06621 
L 109.068165 58.544402 
L 110.392159 76.968331 
L 111.716152 97.887802 
L 113.040145 101.696143 
L 115.688132 72.537137 
L 117.012125 73.844157 
L 118.336119 87.177407 
L 119.660112 93.338327 
L 120.984105 80.652566 
L 122.308099 59.223121 
L 123.632092 50.212404 
L 124.956086 62.261098 
L 126.280079 81.917277 
L 127.604072 88.971612 
L 128.928066 79.154168 
L 130.252059 68.292082 
L 131.576052 73.308382 
L 132.900046 91.985362 
L 134.224039 104.826655 
L 135.548032 97.016137 
L 136.872026 75.402695 
L 138.196019 61.060964 
L 139.520013 65.867984 
L 140.844006 79.777583 
L 142.167999 83.19443 
L 143.491993 70.113315 
L 144.815986 55.396416 
L 146.139979 57.779677 
L 148.787966 97.505661 
L 150.111959 98.440891 
L 151.435953 83.601389 
L 152.759946 72.271579 
L 154.08394 77.765347 
L 155.407933 92.117337 
L 156.731926 95.524162 
L 158.05592 79.66458 
L 159.379913 58.07529 
L 160.703906 51.540191 
L 162.0279 65.050415 
L 163.351893 82.568327 
L 164.675886 85.498283 
L 165.99988 73.696161 
L 167.323873 65.017908 
L 168.647867 74.04234 
L 169.97186 94.488419 
L 171.295853 105.628477 
L 172.619847 95.504339 
L 173.94384 74.465268 
L 175.267833 63.557649 
L 176.591827 71.013135 
L 177.91582 83.641631 
L 179.239813 82.826237 
L 180.563807 66.636101 
L 181.8878 52.587056 
L 183.211794 57.783799 
L 184.535787 79.141021 
L 185.85978 96.365718 
L 187.183774 94.391897 
L 188.507767 79.735733 
L 189.83176 72.217952 
L 191.155754 81.687345 
L 192.479747 96.506537 
L 193.80374 97.028345 
L 195.127734 78.604416 
L 196.451727 57.684944 
L 197.775721 53.876604 
L 200.423707 83.03561 
L 201.747701 81.72859 
L 203.071694 68.395339 
L 204.395687 62.23442 
L 205.719681 74.92018 
L 207.043674 96.349625 
L 208.367667 105.360342 
L 209.691661 93.311649 
L 211.015654 73.65547 
L 212.339648 66.601135 
L 213.663641 76.418578 
L 214.987634 87.280665 
L 216.311628 82.264365 
L 217.635621 63.587385 
L 218.959614 50.746091 
L 220.283608 58.556609 
L 221.607601 80.170051 
L 222.931594 94.511782 
L 224.255588 89.704763 
L 225.579581 75.795163 
L 226.903575 72.378317 
L 228.227568 29.708068 
L 229.551561 44.424968 
L 230.875555 153.544432 
L 232.199548 133.264177 
L 233.523541 58.067086 
L 234.847535 57.131856 
L 236.171528 71.971358 
L 237.495521 83.301167 
L 238.819515 77.8074 
L 240.143508 63.455409 
L 241.467502 60.048584 
L 242.791495 75.908166 
L 244.115488 97.497457 
L 245.439482 104.032556 
L 246.763475 90.522331 
L 248.087468 73.004419 
L 249.411462 70.074464 
L 250.735455 81.876585 
L 252.059448 90.554838 
L 253.383442 81.530406 
L 254.707435 61.084328 
L 256.031429 49.944269 
L 257.355422 60.068408 
L 258.679415 81.107478 
L 260.003409 92.015098 
L 261.327402 84.559611 
L 262.651395 71.931115 
L 263.975389 72.74651 
L 265.299382 88.936646 
L 266.623375 102.985691 
L 267.947369 97.788947 
L 269.271362 76.431726 
L 270.595356 59.207028 
L 271.919349 61.180849 
L 273.243342 75.837014 
L 274.567336 83.354794 
L 275.891329 73.885401 
L 277.215322 59.06621 
L 278.539316 58.544402 
L 279.863309 76.968331 
L 281.187302 97.887802 
L 282.511296 101.696143 
L 285.159283 72.537137 
L 286.483276 73.844157 
L 287.807269 87.177407 
L 289.131263 93.338327 
L 290.455256 80.652566 
L 291.779249 59.223121 
L 293.103243 50.212404 
L 294.427236 62.261098 
L 295.751229 81.917277 
L 297.075223 88.971612 
L 298.399216 79.154168 
L 299.72321 68.292082 
L 301.047203 73.308382 
L 302.371196 91.985362 
L 303.69519 104.826655 
L 305.019183 97.016137 
L 306.343176 75.402695 
L 307.66717 61.060964 
L 308.991163 65.867984 
L 310.315156 79.777583 
L 311.63915 83.19443 
L 312.963143 70.113315 
L 314.287137 55.396416 
L 315.61113 57.779677 
L 318.259117 97.505661 
L 319.58311 98.440891 
L 320.907103 83.601389 
L 322.231097 72.271579 
L 323.55509 77.765347 
L 324.879083 92.117337 
L 326.203077 95.524162 
L 327.52707 79.66458 
L 328.851064 58.07529 
L 330.175057 51.540191 
L 331.49905 65.050415 
L 332.823044 82.568327 
L 334.147037 85.498283 
L 335.47103 73.696161 
L 336.795024 65.017908 
L 338.119017 74.04234 
L 339.44301 94.488419 
L 340.767004 105.628477 
L 342.090997 95.504339 
L 343.414991 74.465268 
L 344.738984 63.557649 
L 346.062977 71.013135 
L 347.386971 83.641631 
L 348.710964 82.826237 
L 348.710964 82.826237 
" clip-path="url(#pd37d5e8833)" style="fill: none; stroke: #1f77b4; stroke-linecap: square"/>
   </g>
   <g id="patch_3">
    <path d="M 11.092656 159.73625 
L 350.034957 159.73625 
" style="fill: none; stroke: #000000; stroke-width: 0.8; stroke-linejoin: miter; stroke-linecap: square"/>
   </g>
   <g id="text_8">
    <text style="font: 14px 'Helvetica', sans-serif; text-anchor: middle" x="180.563807" y="17.51625" transform="rotate(-0 180.563807 17.51625)">Time-domain signal</text>
   </g>
  </g>
  <g id="axes_2">
   <g id="patch_4">
    <path d="M 366.635355 159.73625 
L 705.577656 159.73625 
L 705.577656 23.51625 
L 366.635355 23.51625 
z
" style="fill: #ffffff"/>
   </g>
   <g id="matplotlib.axis_3">
    <g id="xtick_7">
     <g id="line2d_8">
      <g>
       <use xlink:href="#m8c93211c24" x="382.041823" y="159.73625" style="stroke: #000000; stroke-width: 0.8"/>
      </g>
     </g>
     <g id="text_9">
      <text style="font: 14px 'Helvetica', sans-serif; text-anchor: middle" x="382.041823" y="176.779062" transform="rotate(-0 382.041823 176.779062)">0</text>
     </g>
    </g>
    <g id="xtick_8">
     <g id="line2d_9">
      <g>
       <use xlink:href="#m8c93211c24" x="442.341112" y="159.73625" style="stroke: #000000; stroke-width: 0.8"/>
      </g>
     </g>
     <g id="text_10">
      <text style="font: 14px 'Helvetica', sans-serif; text-anchor: middle" x="442.341112" y="176.779062" transform="rotate(-0 442.341112 176.779062)">100</text>
     </g>
    </g>
    <g id="xtick_9">
     <g id="line2d_10">
      <g>
       <use xlink:href="#m8c93211c24" x="502.640401" y="159.73625" style="stroke: #000000; stroke-width: 0.8"/>
      </g>
     </g>
     <g id="text_11">
      <text style="font: 14px 'Helvetica', sans-serif; text-anchor: middle" x="502.640401" y="176.779062" transform="rotate(-0 502.640401 176.779062)">200</text>
     </g>
    </g>
    <g id="xtick_10">
     <g id="line2d_11">
      <g>
       <use xlink:href="#m8c93211c24" x="562.939689" y="159.73625" style="stroke: #000000; stroke-width: 0.8"/>
      </g>
     </g>
     <g id="text_12">
      <text style="font: 14px 'Helvetica', sans-serif; text-anchor: middle" x="562.939689" y="176.779062" transform="rotate(-0 562.939689 176.779062)">300</text>
     </g>
    </g>
    <g id="xtick_11">
     <g id="line2d_12">
      <g>
       <use xlink:href="#m8c93211c24" x="623.238978" y="159.73625" style="stroke: #000000; stroke-width: 0.8"/>
      </g>
     </g>
     <g id="text_13">
      <text style="font: 14px 'Helvetica', sans-serif; text-anchor: middle" x="623.238978" y="176.779062" transform="rotate(-0 623.238978 176.779062)">400</text>
     </g>
    </g>
    <g id="xtick_12">
     <g id="line2d_13">
      <g>
       <use xlink:href="#m8c93211c24" x="683.538266" y="159.73625" style="stroke: #000000; stroke-width: 0.8"/>
      </g>
     </g>
     <g id="text_14">
      <text style="font: 14px 'Helvetica', sans-serif; text-anchor: middle" x="683.538266" y="176.779062" transform="rotate(-0 683.538266 176.779062)">500</text>
     </g>
    </g>
    <g id="text_15">
     <!-- $k$ -->
     <g transform="translate(532.046506 193.74)">
      <text>
       <tspan style="font: oblique 14px 'DejaVu Sans'" x="0" y="-0.359375">k</tspan>
      </text>
     </g>
    </g>
   </g>
   <g id="matplotlib.axis_4"/>
   <g id="line2d_14">
    <path d="M 382.041823 153.497471 
L 392.292702 153.497471 
L 392.895695 140.603325 
L 393.498688 153.479945 
L 397.719638 153.523797 
L 400.734603 153.497471 
L 403.146574 153.52071 
L 403.749567 153.456724 
L 404.955553 153.502893 
L 405.558546 153.455414 
L 406.764532 153.497471 
L 408.57351 153.495215 
L 410.985482 153.497471 
L 411.588475 153.538232 
L 412.191468 153.457044 
L 413.397453 153.522778 
L 414.000446 153.450289 
L 415.206432 153.50066 
L 415.809425 153.4537 
L 417.015411 153.497471 
L 418.824389 153.492301 
L 427.869283 153.480438 
L 429.075268 153.496193 
L 479.726671 153.536548 
L 480.932657 153.497471 
L 482.741635 153.497471 
L 485.153607 153.497471 
L 485.7566 153.454871 
L 486.359593 153.533473 
L 486.962585 134.099392 
L 487.565578 153.467057 
L 488.168571 153.543704 
L 489.374557 153.487165 
L 489.97755 153.54398 
L 491.183536 153.497471 
L 491.786529 153.534236 
L 492.389521 153.454712 
L 493.595507 153.516203 
L 494.1985 153.451647 
L 495.404486 153.497471 
L 496.007479 153.458458 
L 497.213465 153.497471 
L 499.625436 153.494105 
L 500.831422 153.472419 
L 503.846386 153.505411 
L 505.655365 153.497471 
L 508.067336 153.488564 
L 510.479308 153.514089 
L 512.89128 153.48538 
L 518.921208 153.497471 
L 599.119262 153.497471 
L 599.722255 29.708068 
L 600.325248 153.497471 
L 690.171188 153.497471 
L 690.171188 153.497471 
" clip-path="url(#pad05127d71)" style="fill: none; stroke: #1f77b4; stroke-linecap: square"/>
   </g>
   <g id="patch_5">
    <path d="M 366.635355 159.73625 
L 705.577656 159.73625 
" style="fill: none; stroke: #000000; stroke-width: 0.8; stroke-linejoin: miter; stroke-linecap: square"/>
   </g>
   <g id="text_16">
    <text style="font: 14px 'Helvetica', sans-serif; text-anchor: middle" x="536.106506" y="17.51625" transform="rotate(-0 536.106506 17.51625)">Custom Decomposition</text>
   </g>
  </g>
 </g>
 <defs>
  <clipPath id="pd37d5e8833">
   <rect x="11.092656" y="23.51625" width="338.942301" height="136.22"/>
  </clipPath>
  <clipPath id="pad05127d71">
   <rect x="366.635355" y="23.51625" width="338.942301" height="136.22"/>
  </clipPath>
 </defs>
</svg>
