<?xml version="1.0" encoding="utf-8" standalone="no"?>
<!DOCTYPE svg PUBLIC "-//W3C//DTD SVG 1.1//EN"
  "http://www.w3.org/Graphics/SVG/1.1/DTD/svg11.dtd">
<svg xmlns:xlink="http://www.w3.org/1999/xlink" width="706.977259pt" height="203.6175pt" viewBox="0 0 706.977259 203.6175" xmlns="http://www.w3.org/2000/svg" version="1.1">
 <metadata>
  <rdf:RDF xmlns:dc="http://purl.org/dc/elements/1.1/" xmlns:cc="http://creativecommons.org/ns#" xmlns:rdf="http://www.w3.org/1999/02/22-rdf-syntax-ns#">
   <cc:Work>
    <dc:type rdf:resource="http://purl.org/dc/dcmitype/StillImage"/>
    <dc:date>2024-10-03T15:49:38.257825</dc:date>
    <dc:format>image/svg+xml</dc:format>
    <dc:creator>
     <cc:Agent>
      <dc:title>Matplotlib v3.9.2, https://matplotlib.org/</dc:title>
     </cc:Agent>
    </dc:creator>
   </cc:Work>
  </rdf:RDF>
 </metadata>
 <defs>
  <style type="text/css">*{stroke-linejoin: round; stroke-linecap: butt}</style>
 </defs>
 <g id="figure_1">
  <g id="patch_1">
   <path d="M 0 203.6175 
L 706.977259 203.6175 
L 706.977259 -0 
L 0 -0 
z
" style="fill: #ffffff"/>
  </g>
  <g id="axes_1">
   <g id="patch_2">
    <path d="M 11.092656 159.495625 
L 345.177259 159.495625 
L 345.177259 23.275625 
L 11.092656 23.275625 
z
" style="fill: #ffffff"/>
   </g>
   <g id="matplotlib.axis_1">
    <g id="xtick_1">
     <g id="line2d_1">
      <defs>
       <path id="m97cfd55bb8" d="M 0 0 
L 0 3.5 
" style="stroke: #000000; stroke-width: 0.8"/>
      </defs>
      <g>
       <use xlink:href="#m97cfd55bb8" x="11.092656" y="159.495625" style="stroke: #000000; stroke-width: 0.8"/>
      </g>
     </g>
     <g id="text_1">
      <text style="font: 14px 'Helvetica', sans-serif; text-anchor: middle" x="11.092656" y="176.538437" transform="rotate(-0 11.092656 176.538437)">0</text>
     </g>
    </g>
    <g id="xtick_2">
     <g id="line2d_2">
      <g>
       <use xlink:href="#m97cfd55bb8" x="76.343555" y="159.495625" style="stroke: #000000; stroke-width: 0.8"/>
      </g>
     </g>
     <g id="text_2">
      <text style="font: 14px 'Helvetica', sans-serif; text-anchor: middle" x="76.343555" y="176.538437" transform="rotate(-0 76.343555 176.538437)">50</text>
     </g>
    </g>
    <g id="xtick_3">
     <g id="line2d_3">
      <g>
       <use xlink:href="#m97cfd55bb8" x="141.594454" y="159.495625" style="stroke: #000000; stroke-width: 0.8"/>
      </g>
     </g>
     <g id="text_3">
      <text style="font: 14px 'Helvetica', sans-serif; text-anchor: middle" x="141.594454" y="176.538437" transform="rotate(-0 141.594454 176.538437)">100</text>
     </g>
    </g>
    <g id="xtick_4">
     <g id="line2d_4">
      <g>
       <use xlink:href="#m97cfd55bb8" x="206.845353" y="159.495625" style="stroke: #000000; stroke-width: 0.8"/>
      </g>
     </g>
     <g id="text_4">
      <text style="font: 14px 'Helvetica', sans-serif; text-anchor: middle" x="206.845353" y="176.538437" transform="rotate(-0 206.845353 176.538437)">150</text>
     </g>
    </g>
    <g id="xtick_5">
     <g id="line2d_5">
      <g>
       <use xlink:href="#m97cfd55bb8" x="272.096252" y="159.495625" style="stroke: #000000; stroke-width: 0.8"/>
      </g>
     </g>
     <g id="text_5">
      <text style="font: 14px 'Helvetica', sans-serif; text-anchor: middle" x="272.096252" y="176.538437" transform="rotate(-0 272.096252 176.538437)">200</text>
     </g>
    </g>
    <g id="xtick_6">
     <g id="line2d_6">
      <g>
       <use xlink:href="#m97cfd55bb8" x="337.347151" y="159.495625" style="stroke: #000000; stroke-width: 0.8"/>
      </g>
     </g>
     <g id="text_6">
      <text style="font: 14px 'Helvetica', sans-serif; text-anchor: middle" x="337.347151" y="176.538437" transform="rotate(-0 337.347151 176.538437)">250</text>
     </g>
    </g>
    <g id="text_7">
     <!-- $n$ -->
     <g transform="translate(173.654957 193.499375)">
      <text>
       <tspan style="font: oblique 14px 'DejaVu Sans'" x="0" y="-0.15625">n</tspan>
      </text>
     </g>
    </g>
   </g>
   <g id="matplotlib.axis_2"/>
   <g id="line2d_7">
    <path d="M 11.092656 66.395476 
L 12.397674 52.346431 
L 13.702692 57.543174 
L 15.00771 78.900396 
L 16.312728 96.125093 
L 17.617746 94.151272 
L 18.922764 79.495108 
L 20.227782 71.977327 
L 21.5328 81.44672 
L 22.837818 96.265912 
L 24.142836 96.78772 
L 25.447854 78.363791 
L 26.752872 57.444319 
L 28.05789 53.635979 
L 30.667926 82.794985 
L 31.972944 81.487965 
L 33.277962 68.154714 
L 34.58298 61.993795 
L 35.887998 74.679555 
L 37.193016 96.109 
L 38.498034 105.119717 
L 39.803052 93.071024 
L 41.10807 73.414845 
L 42.413088 66.36051 
L 43.718106 76.177953 
L 45.023124 87.04004 
L 46.328142 82.02374 
L 47.63316 63.34676 
L 48.938178 50.505466 
L 50.243196 58.315984 
L 51.548214 79.929426 
L 52.853232 94.271157 
L 54.15825 89.464138 
L 55.463267 75.554538 
L 56.768285 72.137692 
L 58.073303 85.218806 
L 59.378321 99.935705 
L 60.683339 97.552444 
L 63.293375 57.826461 
L 64.598393 56.891231 
L 65.903411 71.730733 
L 67.208429 83.060542 
L 68.513447 77.566775 
L 69.818465 63.214784 
L 71.123483 59.807959 
L 72.428501 75.667541 
L 73.733519 97.256832 
L 75.038537 103.791931 
L 76.343555 90.281706 
L 77.648573 72.763794 
L 78.953591 69.833839 
L 80.258609 81.63596 
L 81.563627 90.314213 
L 82.868645 81.289781 
L 84.173663 60.843703 
L 85.478681 49.703644 
L 86.783699 59.827783 
L 88.088717 80.866853 
L 89.393735 91.774473 
L 90.698753 84.318986 
L 92.003771 71.69049 
L 93.308789 72.505885 
L 94.613807 88.696021 
L 95.918825 102.745066 
L 97.223843 97.548322 
L 98.528861 76.191101 
L 99.833879 58.966403 
L 101.138897 60.940224 
L 102.443915 75.596389 
L 103.748933 83.114169 
L 105.053951 73.644776 
L 106.358969 58.825585 
L 107.663987 58.303777 
L 108.969005 76.727706 
L 110.274023 97.647177 
L 111.579041 101.455518 
L 114.189076 72.296512 
L 115.494094 73.603532 
L 116.799112 86.936782 
L 118.10413 93.097702 
L 119.409148 80.411941 
L 120.714166 58.982496 
L 122.019184 49.971779 
L 123.324202 62.020473 
L 124.62922 81.676652 
L 125.934238 88.730987 
L 127.239256 78.913543 
L 128.544274 68.051457 
L 129.849292 73.067757 
L 131.15431 91.744737 
L 132.459328 104.58603 
L 133.764346 96.775512 
L 135.069364 75.16207 
L 136.374382 60.820339 
L 137.6794 65.627359 
L 138.984418 79.536958 
L 140.289436 82.953805 
L 141.594454 69.87269 
L 142.899472 55.155791 
L 144.20449 57.539052 
L 146.814526 97.265036 
L 148.119544 98.200266 
L 149.424562 83.360764 
L 150.72958 72.030954 
L 152.034598 77.524722 
L 153.339616 91.876712 
L 154.644634 95.283537 
L 155.949652 79.423955 
L 157.25467 57.834665 
L 158.559688 51.299566 
L 159.864706 64.80979 
L 161.169724 82.327702 
L 162.474742 85.257658 
L 163.77976 73.455536 
L 165.084778 64.777283 
L 166.389796 73.801715 
L 167.694814 94.247794 
L 168.999832 105.387852 
L 170.30485 95.263714 
L 171.609867 74.224643 
L 172.914885 63.317024 
L 174.219903 70.77251 
L 175.524921 83.401006 
L 176.829939 82.585612 
L 178.134957 66.395476 
L 179.439975 52.346431 
L 180.744993 57.543174 
L 182.050011 78.900396 
L 183.355029 96.125093 
L 184.660047 94.151272 
L 185.965065 79.495108 
L 187.270083 71.977327 
L 188.575101 81.44672 
L 189.880119 96.265912 
L 191.185137 96.78772 
L 192.490155 78.363791 
L 193.795173 57.444319 
L 195.100191 53.635979 
L 197.710227 82.794985 
L 199.015245 81.487965 
L 200.320263 68.154714 
L 201.625281 61.993795 
L 202.930299 74.679555 
L 204.235317 96.109 
L 205.540335 105.119717 
L 206.845353 93.071024 
L 208.150371 73.414845 
L 209.455389 66.36051 
L 210.760407 76.177953 
L 212.065425 87.04004 
L 213.370443 82.02374 
L 214.675461 63.34676 
L 215.980479 50.505466 
L 217.285497 58.315984 
L 218.590515 79.929426 
L 219.895533 94.271157 
L 221.200551 89.464138 
L 222.505569 75.554538 
L 223.810587 72.137692 
L 225.115605 29.467443 
L 226.420623 44.184343 
L 227.725641 153.303807 
L 229.030659 133.023552 
L 230.335676 57.826461 
L 231.640694 56.891231 
L 232.945712 71.730733 
L 234.25073 83.060542 
L 235.555748 77.566775 
L 236.860766 63.214784 
L 238.165784 59.807959 
L 239.470802 75.667541 
L 240.77582 97.256832 
L 242.080838 103.791931 
L 243.385856 90.281706 
L 244.690874 72.763794 
L 245.995892 69.833839 
L 247.30091 81.63596 
L 248.605928 90.314213 
L 249.910946 81.289781 
L 251.215964 60.843703 
L 252.520982 49.703644 
L 253.826 59.827783 
L 255.131018 80.866853 
L 256.436036 91.774473 
L 257.741054 84.318986 
L 259.046072 71.69049 
L 260.35109 72.505885 
L 261.656108 88.696021 
L 262.961126 102.745066 
L 264.266144 97.548322 
L 265.571162 76.191101 
L 266.87618 58.966403 
L 268.181198 60.940224 
L 269.486216 75.596389 
L 270.791234 83.114169 
L 272.096252 73.644776 
L 273.40127 58.825585 
L 274.706288 58.303777 
L 276.011306 76.727706 
L 277.316324 97.647177 
L 278.621342 101.455518 
L 281.231378 72.296512 
L 282.536396 73.603532 
L 283.841414 86.936782 
L 285.146432 93.097702 
L 286.45145 80.411941 
L 287.756468 58.982496 
L 289.061485 49.971779 
L 290.366503 62.020473 
L 291.671521 81.676652 
L 292.976539 88.730987 
L 294.281557 78.913543 
L 295.586575 68.051457 
L 296.891593 73.067757 
L 298.196611 91.744737 
L 299.501629 104.58603 
L 300.806647 96.775512 
L 302.111665 75.16207 
L 303.416683 60.820339 
L 304.721701 65.627359 
L 306.026719 79.536958 
L 307.331737 82.953805 
L 308.636755 69.87269 
L 309.941773 55.155791 
L 311.246791 57.539052 
L 313.856827 97.265036 
L 315.161845 98.200266 
L 316.466863 83.360764 
L 317.771881 72.030954 
L 319.076899 77.524722 
L 320.381917 91.876712 
L 321.686935 95.283537 
L 322.991953 79.423955 
L 324.296971 57.834665 
L 325.601989 51.299566 
L 326.907007 64.80979 
L 328.212025 82.327702 
L 329.517043 85.257658 
L 330.822061 73.455536 
L 332.127079 64.777283 
L 333.432097 73.801715 
L 334.737115 94.247794 
L 336.042133 105.387852 
L 337.347151 95.263714 
L 338.652169 74.224643 
L 339.957187 63.317024 
L 341.262205 70.77251 
L 342.567223 83.401006 
L 343.872241 82.585612 
L 343.872241 82.585612 
" clip-path="url(#p6df3c359a4)" style="fill: none; stroke: #1f77b4; stroke-linecap: square"/>
   </g>
   <g id="patch_3">
    <path d="M 11.092656 159.495625 
L 345.177259 159.495625 
" style="fill: none; stroke: #000000; stroke-width: 0.8; stroke-linejoin: miter; stroke-linecap: square"/>
   </g>
   <g id="text_8">
    <text style="font: 14px 'Helvetica', sans-serif; text-anchor: middle" x="178.134957" y="17.275625" transform="rotate(-0 178.134957 17.275625)">Time-domain signal</text>
   </g>
  </g>
  <g id="axes_2">
   <g id="patch_4">
    <path d="M 365.692656 159.495625 
L 699.777259 159.495625 
L 699.777259 23.275625 
L 365.692656 23.275625 
z
" style="fill: #ffffff"/>
   </g>
   <g id="matplotlib.axis_3">
    <g id="xtick_7">
     <g id="line2d_8">
      <g>
       <use xlink:href="#m97cfd55bb8" x="365.692656" y="159.495625" style="stroke: #000000; stroke-width: 0.8"/>
      </g>
     </g>
     <g id="text_9">
      <text style="font: 14px 'Helvetica', sans-serif; text-anchor: middle" x="365.692656" y="176.538437" transform="rotate(-0 365.692656 176.538437)">0</text>
     </g>
    </g>
    <g id="xtick_8">
     <g id="line2d_9">
      <g>
       <use xlink:href="#m97cfd55bb8" x="417.893375" y="159.495625" style="stroke: #000000; stroke-width: 0.8"/>
      </g>
     </g>
     <g id="text_10">
      <text style="font: 14px 'Helvetica', sans-serif; text-anchor: middle" x="417.893375" y="176.538437" transform="rotate(-0 417.893375 176.538437)">20</text>
     </g>
    </g>
    <g id="xtick_9">
     <g id="line2d_10">
      <g>
       <use xlink:href="#m97cfd55bb8" x="470.094094" y="159.495625" style="stroke: #000000; stroke-width: 0.8"/>
      </g>
     </g>
     <g id="text_11">
      <text style="font: 14px 'Helvetica', sans-serif; text-anchor: middle" x="470.094094" y="176.538437" transform="rotate(-0 470.094094 176.538437)">40</text>
     </g>
    </g>
    <g id="xtick_10">
     <g id="line2d_11">
      <g>
       <use xlink:href="#m97cfd55bb8" x="522.294814" y="159.495625" style="stroke: #000000; stroke-width: 0.8"/>
      </g>
     </g>
     <g id="text_12">
      <text style="font: 14px 'Helvetica', sans-serif; text-anchor: middle" x="522.294814" y="176.538437" transform="rotate(-0 522.294814 176.538437)">60</text>
     </g>
    </g>
    <g id="xtick_11">
     <g id="line2d_12">
      <g>
       <use xlink:href="#m97cfd55bb8" x="574.495533" y="159.495625" style="stroke: #000000; stroke-width: 0.8"/>
      </g>
     </g>
     <g id="text_13">
      <text style="font: 14px 'Helvetica', sans-serif; text-anchor: middle" x="574.495533" y="176.538437" transform="rotate(-0 574.495533 176.538437)">80</text>
     </g>
    </g>
    <g id="xtick_12">
     <g id="line2d_13">
      <g>
       <use xlink:href="#m97cfd55bb8" x="626.696252" y="159.495625" style="stroke: #000000; stroke-width: 0.8"/>
      </g>
     </g>
     <g id="text_14">
      <text style="font: 14px 'Helvetica', sans-serif; text-anchor: middle" x="626.696252" y="176.538437" transform="rotate(-0 626.696252 176.538437)">100</text>
     </g>
    </g>
    <g id="xtick_13">
     <g id="line2d_14">
      <g>
       <use xlink:href="#m97cfd55bb8" x="678.896971" y="159.495625" style="stroke: #000000; stroke-width: 0.8"/>
      </g>
     </g>
     <g id="text_15">
      <text style="font: 14px 'Helvetica', sans-serif; text-anchor: middle" x="678.896971" y="176.538437" transform="rotate(-0 678.896971 176.538437)">120</text>
     </g>
    </g>
    <g id="text_16">
     <!-- $k$ -->
     <g transform="translate(528.674957 193.499375)">
      <text>
       <tspan style="font: oblique 14px 'DejaVu Sans'" x="0" y="-0.359375">k</tspan>
      </text>
     </g>
    </g>
   </g>
   <g id="matplotlib.axis_4"/>
   <g id="line2d_15">
    <path d="M 365.692656 153.303807 
L 397.013088 149.632728 
L 410.063267 148.235192 
L 412.673303 75.441278 
L 415.283339 147.711139 
L 430.943555 146.285926 
L 443.993735 145.293333 
L 457.043915 144.502329 
L 470.094094 143.928792 
L 483.144274 143.58155 
L 485.75431 29.467443 
L 488.364346 143.506604 
L 501.414526 143.477091 
L 514.464706 143.665277 
L 527.514885 144.055567 
L 543.175101 144.759366 
L 561.445353 145.842859 
L 584.935676 147.507178 
L 631.916324 150.914829 
L 650.186575 151.975635 
L 665.846791 152.666726 
L 681.507007 153.116278 
L 694.557187 153.288412 
L 707.977259 153.265381 
L 707.977259 153.265381 
" clip-path="url(#pe3637a57d3)" style="fill: none; stroke: #1f77b4; stroke-linecap: square"/>
   </g>
   <g id="patch_5">
    <path d="M 365.692656 159.495625 
L 699.777259 159.495625 
" style="fill: none; stroke: #000000; stroke-width: 0.8; stroke-linejoin: miter; stroke-linecap: square"/>
   </g>
   <g id="text_17">
    <text style="font: 14px 'Helvetica', sans-serif; text-anchor: middle" x="532.734957" y="17.275625" transform="rotate(-0 532.734957 17.275625)">Foruier Decomposition</text>
   </g>
  </g>
 </g>
 <defs>
  <clipPath id="p6df3c359a4">
   <rect x="11.092656" y="23.275625" width="334.084602" height="136.22"/>
  </clipPath>
  <clipPath id="pe3637a57d3">
   <rect x="365.692656" y="23.275625" width="334.084602" height="136.22"/>
  </clipPath>
 </defs>
</svg>
