<?xml version="1.0" encoding="utf-8" standalone="no"?>
<!DOCTYPE svg PUBLIC "-//W3C//DTD SVG 1.1//EN"
  "http://www.w3.org/Graphics/SVG/1.1/DTD/svg11.dtd">
<svg xmlns:xlink="http://www.w3.org/1999/xlink" width="712.755312pt" height="204.375937pt" viewBox="0 0 712.755312 204.375937" xmlns="http://www.w3.org/2000/svg" version="1.1">
 <metadata>
  <rdf:RDF xmlns:dc="http://purl.org/dc/elements/1.1/" xmlns:cc="http://creativecommons.org/ns#" xmlns:rdf="http://www.w3.org/1999/02/22-rdf-syntax-ns#">
   <cc:Work>
    <dc:type rdf:resource="http://purl.org/dc/dcmitype/StillImage"/>
    <dc:date>2024-10-01T10:40:48.660191</dc:date>
    <dc:format>image/svg+xml</dc:format>
    <dc:creator>
     <cc:Agent>
      <dc:title>Matplotlib v3.9.2, https://matplotlib.org/</dc:title>
     </cc:Agent>
    </dc:creator>
   </cc:Work>
  </rdf:RDF>
 </metadata>
 <defs>
  <style type="text/css">*{stroke-linejoin: round; stroke-linecap: butt}</style>
 </defs>
 <g id="figure_1">
  <g id="patch_1">
   <path d="M 0 204.375937 
L 712.755312 204.375937 
L 712.755312 0 
L 0 0 
z
" style="fill: #ffffff"/>
  </g>
  <g id="axes_1">
   <g id="patch_2">
    <path d="M 11.092656 157.695 
L 345.105156 157.695 
L 345.105156 24.715 
L 11.092656 24.715 
z
" style="fill: #ffffff"/>
   </g>
   <g id="matplotlib.axis_1">
    <g id="xtick_1">
     <g id="line2d_1">
      <defs>
       <path id="m69d9c4d6cc" d="M 0 0 
L 0 3.5 
" style="stroke: #000000; stroke-width: 0.8"/>
      </defs>
      <g>
       <use xlink:href="#m69d9c4d6cc" x="11.092656" y="157.695" style="stroke: #000000; stroke-width: 0.8"/>
      </g>
     </g>
     <g id="text_1">
      <text style="font: 14px 'Helvetica', sans-serif; text-anchor: middle" x="11.092656" y="174.737812" transform="rotate(-0 11.092656 174.737812)">0</text>
     </g>
    </g>
    <g id="xtick_2">
     <g id="line2d_2">
      <g>
       <use xlink:href="#m69d9c4d6cc" x="77.895156" y="157.695" style="stroke: #000000; stroke-width: 0.8"/>
      </g>
     </g>
     <g id="text_2">
      <text style="font: 14px 'Helvetica', sans-serif; text-anchor: middle" x="77.895156" y="174.737812" transform="rotate(-0 77.895156 174.737812)">2</text>
     </g>
    </g>
    <g id="xtick_3">
     <g id="line2d_3">
      <g>
       <use xlink:href="#m69d9c4d6cc" x="144.697656" y="157.695" style="stroke: #000000; stroke-width: 0.8"/>
      </g>
     </g>
     <g id="text_3">
      <text style="font: 14px 'Helvetica', sans-serif; text-anchor: middle" x="144.697656" y="174.737812" transform="rotate(-0 144.697656 174.737812)">4</text>
     </g>
    </g>
    <g id="xtick_4">
     <g id="line2d_4">
      <g>
       <use xlink:href="#m69d9c4d6cc" x="211.500156" y="157.695" style="stroke: #000000; stroke-width: 0.8"/>
      </g>
     </g>
     <g id="text_4">
      <text style="font: 14px 'Helvetica', sans-serif; text-anchor: middle" x="211.500156" y="174.737812" transform="rotate(-0 211.500156 174.737812)">6</text>
     </g>
    </g>
    <g id="xtick_5">
     <g id="line2d_5">
      <g>
       <use xlink:href="#m69d9c4d6cc" x="278.302656" y="157.695" style="stroke: #000000; stroke-width: 0.8"/>
      </g>
     </g>
     <g id="text_5">
      <text style="font: 14px 'Helvetica', sans-serif; text-anchor: middle" x="278.302656" y="174.737812" transform="rotate(-0 278.302656 174.737812)">8</text>
     </g>
    </g>
    <g id="xtick_6">
     <g id="line2d_6">
      <g>
       <use xlink:href="#m69d9c4d6cc" x="345.105156" y="157.695" style="stroke: #000000; stroke-width: 0.8"/>
      </g>
     </g>
     <g id="text_6">
      <text style="font: 14px 'Helvetica', sans-serif; text-anchor: middle" x="345.105156" y="174.737812" transform="rotate(-0 345.105156 174.737812)">10</text>
     </g>
    </g>
    <g id="text_7">
     <!-- $t$ (sec) -->
     <g transform="translate(154.898906 193.335937)">
      <text>
       <tspan style="font: oblique 16px 'DejaVu Sans'" x="0" y="-0.328125">t</tspan>
       <tspan style="font: 16px 'Helvetica'" x="6.273438 10.71875 16.046875 24.046875 32.945312 40.945312" y="-0.328125"> (sec)</tspan>
      </text>
     </g>
    </g>
   </g>
   <g id="matplotlib.axis_2"/>
   <g id="line2d_7">
    <path d="M 11.092656 91.205 
L 13.096731 60.483888 
L 14.098769 47.855923 
L 15.100806 38.290194 
L 15.768831 33.958443 
L 16.436856 31.429941 
L 16.770869 30.869098 
L 17.104881 30.784336 
L 17.438894 31.176321 
L 17.772906 32.041963 
L 18.440931 35.163208 
L 19.108956 40.049753 
L 19.776981 46.547672 
L 20.779019 58.855815 
L 22.115069 78.646528 
L 25.121181 124.85604 
L 26.123219 136.8947 
L 26.791244 143.171045 
L 27.459269 147.810475 
L 28.127294 150.66685 
L 28.461306 151.395991 
L 28.795319 151.650195 
L 29.129331 151.427456 
L 29.463344 150.729533 
L 29.797356 149.561933 
L 30.465381 145.858183 
L 31.133406 140.432875 
L 32.135444 129.45436 
L 33.137481 115.773859 
L 35.141556 84.295137 
L 36.811619 59.155898 
L 37.813656 46.787399 
L 38.481681 40.239517 
L 39.149706 35.297033 
L 39.817731 32.115632 
L 40.151744 31.218921 
L 40.485756 30.79553 
L 40.819769 30.848798 
L 41.153781 31.378307 
L 41.487794 32.379877 
L 42.155819 35.76393 
L 42.823844 40.89436 
L 43.491869 47.609559 
L 44.493906 60.179049 
L 45.829956 80.170561 
L 48.502056 121.620215 
L 49.504094 134.306222 
L 50.506131 143.9475 
L 51.174156 148.33675 
L 51.842181 150.926367 
L 52.176194 151.518524 
L 52.510206 151.634778 
L 52.844219 151.274212 
L 53.178231 150.43967 
L 53.512244 149.137737 
L 54.180269 145.176399 
L 54.848294 139.514978 
L 55.850331 128.238587 
L 57.186381 109.299483 
L 60.860519 53.507379 
L 61.862556 42.392014 
L 62.530581 36.858499 
L 63.198606 33.036883 
L 63.532619 31.807878 
L 63.866631 31.047545 
L 64.200644 30.761885 
L 64.534656 30.953149 
L 64.868669 31.619831 
L 65.202681 32.756668 
L 65.870706 36.401292 
L 66.538731 41.772216 
L 67.540769 52.681739 
L 68.542806 66.312596 
L 70.546881 97.762489 
L 72.216944 122.952916 
L 73.218981 135.381345 
L 74.221019 144.689099 
L 74.889044 148.825267 
L 75.557069 151.146414 
L 75.891081 151.601197 
L 76.225094 151.579424 
L 76.559106 151.081268 
L 76.893119 150.110659 
L 77.561144 146.786382 
L 78.229169 141.711309 
L 78.897194 135.045303 
L 79.899231 122.534722 
L 81.235281 102.587869 
L 83.907381 61.096727 
L 84.909419 48.353116 
L 85.911456 38.636618 
L 86.579481 34.190021 
L 87.247506 31.539379 
L 87.581519 30.915927 
L 87.915531 30.768186 
L 88.249544 31.09732 
L 88.583556 31.900734 
L 88.917569 33.172087 
L 89.585594 37.074874 
L 90.253619 42.682742 
L 91.255656 53.891814 
L 92.591706 72.772509 
L 96.265844 128.6248 
L 97.267881 139.808017 
L 97.935906 145.39535 
L 98.603931 149.275703 
L 98.937944 150.535348 
L 99.271956 151.326846 
L 99.605969 151.643955 
L 99.939981 151.48417 
L 100.273994 150.848753 
L 100.608006 149.742717 
L 101.276031 146.157344 
L 101.944056 140.840989 
L 102.946094 130.000835 
L 103.948131 116.420091 
L 105.952206 85.000109 
L 107.622269 59.759362 
L 108.624306 47.271429 
L 109.626344 37.887022 
L 110.294369 33.69286 
L 110.962394 31.310312 
L 111.296406 30.824153 
L 111.630419 30.814429 
L 111.964431 31.281216 
L 112.298444 32.220831 
L 112.966469 35.485216 
L 113.634494 40.504758 
L 114.302519 47.121342 
L 115.304556 59.572584 
L 116.640606 79.474091 
L 119.646719 125.554505 
L 120.648756 137.443315 
L 121.316781 143.597452 
L 121.984806 148.101244 
L 122.652831 150.812821 
L 122.986844 151.467545 
L 123.320856 151.646769 
L 123.654869 151.349077 
L 123.988881 150.57682 
L 124.322894 149.336089 
L 124.990919 145.491989 
L 125.658944 139.937865 
L 126.660981 128.7965 
L 127.997031 109.974864 
L 131.671169 54.064308 
L 132.673206 42.813623 
L 133.341231 37.172664 
L 134.009256 33.233707 
L 134.343269 31.943467 
L 134.677281 31.120829 
L 135.011294 30.772284 
L 135.345306 30.900584 
L 135.679319 31.504714 
L 136.013331 32.579909 
L 136.681356 36.105908 
L 137.349381 41.367511 
L 138.351419 52.137924 
L 139.353456 65.668088 
L 141.357531 97.057077 
L 143.027594 122.347277 
L 144.029631 134.894283 
L 145.031669 144.35502 
L 145.699694 148.607033 
L 146.367719 151.050899 
L 146.701731 151.568417 
L 147.035744 151.609638 
L 147.369756 151.174236 
L 147.703769 150.265648 
L 148.371794 147.061266 
L 149.039819 142.097428 
L 149.707844 135.530494 
L 150.709881 123.13902 
L 152.045931 103.283544 
L 155.052044 57.147847 
L 156.054081 45.195857 
L 156.722106 38.990278 
L 157.390131 34.429447 
L 158.058156 31.657029 
L 158.392169 30.971054 
L 158.726181 30.760355 
L 159.060194 31.026593 
L 159.394206 31.767668 
L 159.728219 32.977733 
L 160.396244 36.763014 
L 161.064269 42.263202 
L 162.066306 53.336479 
L 163.402356 72.098408 
L 167.076494 128.065305 
L 168.078531 139.383071 
L 168.746556 145.077462 
L 169.414581 149.074886 
L 169.748594 150.395678 
L 170.082606 151.249427 
L 170.416619 151.629396 
L 170.750631 151.532586 
L 171.084644 150.959763 
L 171.418656 149.915445 
L 172.086681 146.448942 
L 172.754706 141.242271 
L 173.422731 134.459442 
L 174.424769 121.809223 
L 175.760819 101.757102 
L 178.432919 60.367154 
L 179.434956 47.761506 
L 180.436994 38.224765 
L 181.105019 33.915047 
L 181.773044 31.409947 
L 182.107056 30.861088 
L 182.441069 30.788372 
L 182.775081 31.192373 
L 183.109094 32.069903 
L 183.777119 35.214172 
L 184.445144 40.122135 
L 185.113169 46.639192 
L 186.115206 58.970473 
L 187.451256 78.779235 
L 190.457369 124.968628 
L 191.459406 136.983387 
L 192.127431 143.240193 
L 192.795456 147.857906 
L 193.463481 150.69107 
L 193.797494 151.408272 
L 194.131506 151.65044 
L 194.465519 151.415665 
L 194.799531 150.705797 
L 195.133544 149.52644 
L 195.801569 145.800107 
L 196.469594 140.354045 
L 197.471631 129.349238 
L 198.473669 115.649871 
L 200.477744 84.160408 
L 202.147806 59.040978 
L 203.149844 46.695517 
L 203.817869 40.16672 
L 204.485894 35.245614 
L 205.153919 32.087212 
L 205.487931 31.202382 
L 205.821944 30.791002 
L 206.155956 30.856318 
L 206.489969 31.397815 
L 206.823981 32.41122 
L 207.492006 35.818108 
L 208.160031 40.969666 
L 208.828056 47.703623 
L 209.830094 60.295532 
L 211.166144 80.303945 
L 213.838244 121.737352 
L 214.840281 134.401208 
L 215.842319 144.013626 
L 216.510344 148.380899 
L 217.178369 150.947148 
L 217.512381 151.527329 
L 217.846394 151.631537 
L 218.180406 151.25895 
L 218.514419 150.412509 
L 218.848431 149.098891 
L 219.516456 145.115191 
L 220.184481 139.433336 
L 221.186519 128.131297 
L 222.522569 109.170021 
L 226.196706 53.401448 
L 227.198744 42.31214 
L 227.866769 36.799263 
L 228.534794 33.00015 
L 228.868806 31.782876 
L 229.202819 31.034472 
L 229.536831 30.760843 
L 229.870844 30.964148 
L 230.204856 31.642783 
L 230.538869 32.791393 
L 231.206894 36.458649 
L 231.874919 41.850398 
L 232.876956 52.786356 
L 233.878994 66.436259 
L 235.883069 97.897307 
L 237.553131 123.068256 
L 238.555169 135.473811 
L 239.557206 144.752158 
L 240.225231 148.866104 
L 240.893256 151.163743 
L 241.227269 151.606519 
L 241.561281 151.572699 
L 241.895294 151.062547 
L 242.229306 150.080091 
L 242.897331 146.732935 
L 243.565356 141.636666 
L 244.233381 134.951814 
L 245.235419 122.418649 
L 246.571469 102.454632 
L 249.243569 60.979191 
L 250.245606 48.257563 
L 251.247644 38.569799 
L 251.915669 34.145121 
L 252.583694 31.517812 
L 252.917706 30.906329 
L 253.251719 30.770631 
L 253.585731 31.111791 
L 253.919744 31.927115 
L 254.253756 33.210171 
L 254.921781 37.135371 
L 255.589806 42.763747 
L 256.591844 53.998615 
L 257.927894 72.90173 
L 261.602031 128.731225 
L 262.604069 139.888533 
L 263.272094 145.455302 
L 263.940119 149.313202 
L 264.274131 150.561131 
L 264.608144 151.340711 
L 264.942156 151.645792 
L 265.276169 151.473964 
L 265.610181 150.826585 
L 265.944194 149.708763 
L 266.612219 146.10071 
L 267.280244 140.763459 
L 268.282281 129.896726 
L 269.284319 116.296757 
L 271.288394 84.865206 
L 272.958456 59.643605 
L 273.960494 47.178382 
L 274.962531 37.82326 
L 275.630556 33.651264 
L 276.298581 31.292194 
L 276.632594 30.818036 
L 276.966606 30.82036 
L 277.300619 31.299148 
L 277.634631 32.250623 
L 278.302656 35.537931 
L 278.970681 40.578736 
L 279.638706 47.214252 
L 280.640744 59.688243 
L 281.976794 79.607177 
L 284.982906 125.666025 
L 285.984944 137.530558 
L 286.652969 143.664963 
L 287.320994 148.146894 
L 287.989019 150.835173 
L 288.323031 151.477937 
L 288.657044 151.645119 
L 288.991056 151.335398 
L 289.325069 150.55122 
L 289.659081 149.29877 
L 290.327106 145.432205 
L 290.995131 139.8575 
L 291.997169 128.69019 
L 293.333219 109.845886 
L 297.007356 53.957391 
L 298.009394 42.732468 
L 298.677419 37.111999 
L 299.345444 33.195444 
L 299.679456 31.916902 
L 300.013469 31.106172 
L 300.347481 30.769652 
L 300.681494 30.909996 
L 301.015506 31.526097 
L 301.349519 32.613093 
L 302.017544 36.161818 
L 302.685569 41.444387 
L 303.687606 52.241522 
L 304.689644 65.791089 
L 306.693719 97.192061 
L 308.363781 122.463447 
L 309.365819 134.987907 
L 310.367856 144.419484 
L 311.035881 148.649385 
L 311.703906 151.069805 
L 312.037919 151.575329 
L 312.371931 151.604502 
L 312.705944 151.157093 
L 313.039956 150.236633 
L 313.707981 147.009285 
L 314.376006 142.024119 
L 315.044031 135.438165 
L 316.046069 123.023778 
L 317.382119 103.150613 
L 320.388231 57.035876 
L 321.390269 45.108005 
L 322.058294 38.922079 
L 322.726319 34.383049 
L 323.394344 31.633893 
L 323.728356 30.959869 
L 324.062369 30.761209 
L 324.396381 31.03948 
L 324.730394 31.792486 
L 325.064406 33.014286 
L 325.732431 36.822083 
L 326.400456 42.342925 
L 327.402494 53.442292 
L 328.738544 72.227137 
L 332.412681 128.17271 
L 333.414719 139.464861 
L 334.082744 145.138836 
L 334.750769 149.113912 
L 335.084781 150.423022 
L 335.418794 151.264874 
L 335.752806 151.632823 
L 336.086819 151.523968 
L 336.420831 150.939166 
L 336.754844 149.883033 
L 337.422869 146.393757 
L 338.090894 141.166052 
L 338.758919 134.364589 
L 339.760956 121.69218 
L 341.097006 101.623522 
L 343.769106 60.250576 
L 344.771144 47.667308 
L 345.439169 40.940584 
L 345.439169 40.940584 
" clip-path="url(#p5ec72ef957)" style="fill: none; stroke: #1f77b4; stroke-linecap: square"/>
   </g>
   <g id="patch_3">
    <path d="M 11.092656 157.695 
L 345.105156 157.695 
" style="fill: none; stroke: #000000; stroke-width: 0.8; stroke-linejoin: miter; stroke-linecap: square"/>
   </g>
   <g id="text_8">
    <text style="font: 16px 'Helvetica', sans-serif; text-anchor: middle" x="178.098906" y="18.715" transform="rotate(-0 178.098906 18.715)">Time-domain signal</text>
   </g>
  </g>
  <g id="axes_2">
   <g id="patch_4">
    <path d="M 367.650156 157.695 
L 701.662656 157.695 
L 701.662656 24.715 
L 367.650156 24.715 
z
" style="fill: #ffffff"/>
   </g>
   <g id="matplotlib.axis_3">
    <g id="xtick_7">
     <g id="line2d_8">
      <g>
       <use xlink:href="#m69d9c4d6cc" x="367.650156" y="157.695" style="stroke: #000000; stroke-width: 0.8"/>
      </g>
     </g>
     <g id="text_9">
      <text style="font: 14px 'Helvetica', sans-serif; text-anchor: middle" x="367.650156" y="174.737812" transform="rotate(-0 367.650156 174.737812)">0</text>
     </g>
    </g>
    <g id="xtick_8">
     <g id="line2d_9">
      <g>
       <use xlink:href="#m69d9c4d6cc" x="451.153281" y="157.695" style="stroke: #000000; stroke-width: 0.8"/>
      </g>
     </g>
     <g id="text_10">
      <text style="font: 14px 'Helvetica', sans-serif; text-anchor: middle" x="451.153281" y="174.737812" transform="rotate(-0 451.153281 174.737812)">1</text>
     </g>
    </g>
    <g id="xtick_9">
     <g id="line2d_10">
      <g>
       <use xlink:href="#m69d9c4d6cc" x="534.656406" y="157.695" style="stroke: #000000; stroke-width: 0.8"/>
      </g>
     </g>
     <g id="text_11">
      <text style="font: 14px 'Helvetica', sans-serif; text-anchor: middle" x="534.656406" y="174.737812" transform="rotate(-0 534.656406 174.737812)">2</text>
     </g>
    </g>
    <g id="xtick_10">
     <g id="line2d_11">
      <g>
       <use xlink:href="#m69d9c4d6cc" x="618.159531" y="157.695" style="stroke: #000000; stroke-width: 0.8"/>
      </g>
     </g>
     <g id="text_12">
      <text style="font: 14px 'Helvetica', sans-serif; text-anchor: middle" x="618.159531" y="174.737812" transform="rotate(-0 618.159531 174.737812)">3</text>
     </g>
    </g>
    <g id="xtick_11">
     <g id="line2d_12">
      <g>
       <use xlink:href="#m69d9c4d6cc" x="701.662656" y="157.695" style="stroke: #000000; stroke-width: 0.8"/>
      </g>
     </g>
     <g id="text_13">
      <text style="font: 14px 'Helvetica', sans-serif; text-anchor: middle" x="701.662656" y="174.737812" transform="rotate(-0 701.662656 174.737812)">4</text>
     </g>
    </g>
    <g id="text_14">
     <!-- $f$ (Hz) -->
     <g transform="translate(514.496406 193.815937)">
      <text>
       <tspan style="font: oblique 16px 'DejaVu Sans'" x="0" y="-0.84375">f</tspan>
       <tspan style="font: 16px 'Helvetica'" x="5.632812 10.078125 15.40625 26.960938 34.960938" y="-0.84375"> (Hz)</tspan>
      </text>
     </g>
    </g>
   </g>
   <g id="matplotlib.axis_4"/>
   <g id="line2d_13">
    <path d="M 367.650156 150.970246 
L 411.071781 150.857671 
L 436.95775 150.591961 
L 451.153281 150.250403 
L 460.338625 149.815371 
L 466.183844 149.320909 
L 470.359 148.734963 
L 472.864094 148.199805 
L 475.369188 147.405066 
L 477.03925 146.620343 
L 478.709313 145.462222 
L 479.544344 144.648803 
L 480.379375 143.581824 
L 481.214406 142.120975 
L 482.049438 139.999011 
L 482.884469 136.636239 
L 483.7195 130.495334 
L 484.554531 115.712615 
L 485.389563 30.759545 
L 486.224594 63.882425 
L 487.059625 119.579758 
L 487.894656 132.077677 
L 488.729688 137.590531 
L 489.564719 140.695048 
L 490.39975 142.686351 
L 491.234781 144.072089 
L 492.069813 145.091978 
L 492.904844 145.873958 
L 494.574906 146.994071 
L 496.244969 147.757632 
L 498.750063 148.534847 
L 501.255156 149.060543 
L 504.595281 149.543527 
L 509.605469 150.013467 
L 516.285719 150.398817 
L 526.306094 150.736764 
L 542.171687 151.023111 
L 568.892687 151.253276 
L 618.994563 151.428119 
L 702.497687 151.53117 
L 702.497687 151.53117 
" clip-path="url(#p19184b96de)" style="fill: none; stroke: #1f77b4; stroke-linecap: square"/>
   </g>
   <g id="patch_5">
    <path d="M 367.650156 157.695 
L 701.662656 157.695 
" style="fill: none; stroke: #000000; stroke-width: 0.8; stroke-linejoin: miter; stroke-linecap: square"/>
   </g>
   <g id="text_15">
    <text style="font: 16px 'Helvetica', sans-serif; text-anchor: middle" x="534.656406" y="18.715" transform="rotate(-0 534.656406 18.715)">Frequency-domain representation</text>
   </g>
  </g>
 </g>
 <defs>
  <clipPath id="p5ec72ef957">
   <rect x="11.092656" y="24.715" width="334.0125" height="132.98"/>
  </clipPath>
  <clipPath id="p19184b96de">
   <rect x="367.650156" y="24.715" width="334.0125" height="132.98"/>
  </clipPath>
 </defs>
</svg>
