<?xml version="1.0" encoding="utf-8" standalone="no"?>
<!DOCTYPE svg PUBLIC "-//W3C//DTD SVG 1.1//EN"
  "http://www.w3.org/Graphics/SVG/1.1/DTD/svg11.dtd">
<svg xmlns:xlink="http://www.w3.org/1999/xlink" width="712.755312pt" height="204.375937pt" viewBox="0 0 712.755312 204.375937" xmlns="http://www.w3.org/2000/svg" version="1.1">
 <metadata>
  <rdf:RDF xmlns:dc="http://purl.org/dc/elements/1.1/" xmlns:cc="http://creativecommons.org/ns#" xmlns:rdf="http://www.w3.org/1999/02/22-rdf-syntax-ns#">
   <cc:Work>
    <dc:type rdf:resource="http://purl.org/dc/dcmitype/StillImage"/>
    <dc:date>2024-10-01T10:40:42.761003</dc:date>
    <dc:format>image/svg+xml</dc:format>
    <dc:creator>
     <cc:Agent>
      <dc:title>Matplotlib v3.9.2, https://matplotlib.org/</dc:title>
     </cc:Agent>
    </dc:creator>
   </cc:Work>
  </rdf:RDF>
 </metadata>
 <defs>
  <style type="text/css">*{stroke-linejoin: round; stroke-linecap: butt}</style>
 </defs>
 <g id="figure_1">
  <g id="patch_1">
   <path d="M 0 204.375937 
L 712.755312 204.375937 
L 712.755312 0 
L 0 0 
z
" style="fill: #ffffff"/>
  </g>
  <g id="axes_1">
   <g id="patch_2">
    <path d="M 11.092656 157.695 
L 345.105156 157.695 
L 345.105156 24.715 
L 11.092656 24.715 
z
" style="fill: #ffffff"/>
   </g>
   <g id="matplotlib.axis_1">
    <g id="xtick_1">
     <g id="line2d_1">
      <defs>
       <path id="m0d8836eda9" d="M 0 0 
L 0 3.5 
" style="stroke: #000000; stroke-width: 0.8"/>
      </defs>
      <g>
       <use xlink:href="#m0d8836eda9" x="11.092656" y="157.695" style="stroke: #000000; stroke-width: 0.8"/>
      </g>
     </g>
     <g id="text_1">
      <text style="font: 14px 'Helvetica', sans-serif; text-anchor: middle" x="11.092656" y="174.737812" transform="rotate(-0 11.092656 174.737812)">0</text>
     </g>
    </g>
    <g id="xtick_2">
     <g id="line2d_2">
      <g>
       <use xlink:href="#m0d8836eda9" x="77.895156" y="157.695" style="stroke: #000000; stroke-width: 0.8"/>
      </g>
     </g>
     <g id="text_2">
      <text style="font: 14px 'Helvetica', sans-serif; text-anchor: middle" x="77.895156" y="174.737812" transform="rotate(-0 77.895156 174.737812)">2</text>
     </g>
    </g>
    <g id="xtick_3">
     <g id="line2d_3">
      <g>
       <use xlink:href="#m0d8836eda9" x="144.697656" y="157.695" style="stroke: #000000; stroke-width: 0.8"/>
      </g>
     </g>
     <g id="text_3">
      <text style="font: 14px 'Helvetica', sans-serif; text-anchor: middle" x="144.697656" y="174.737812" transform="rotate(-0 144.697656 174.737812)">4</text>
     </g>
    </g>
    <g id="xtick_4">
     <g id="line2d_4">
      <g>
       <use xlink:href="#m0d8836eda9" x="211.500156" y="157.695" style="stroke: #000000; stroke-width: 0.8"/>
      </g>
     </g>
     <g id="text_4">
      <text style="font: 14px 'Helvetica', sans-serif; text-anchor: middle" x="211.500156" y="174.737812" transform="rotate(-0 211.500156 174.737812)">6</text>
     </g>
    </g>
    <g id="xtick_5">
     <g id="line2d_5">
      <g>
       <use xlink:href="#m0d8836eda9" x="278.302656" y="157.695" style="stroke: #000000; stroke-width: 0.8"/>
      </g>
     </g>
     <g id="text_5">
      <text style="font: 14px 'Helvetica', sans-serif; text-anchor: middle" x="278.302656" y="174.737812" transform="rotate(-0 278.302656 174.737812)">8</text>
     </g>
    </g>
    <g id="xtick_6">
     <g id="line2d_6">
      <g>
       <use xlink:href="#m0d8836eda9" x="345.105156" y="157.695" style="stroke: #000000; stroke-width: 0.8"/>
      </g>
     </g>
     <g id="text_6">
      <text style="font: 14px 'Helvetica', sans-serif; text-anchor: middle" x="345.105156" y="174.737812" transform="rotate(-0 345.105156 174.737812)">10</text>
     </g>
    </g>
    <g id="text_7">
     <!-- $t$ (sec) -->
     <g transform="translate(154.898906 193.335937)">
      <text>
       <tspan style="font: oblique 16px 'DejaVu Sans'" x="0" y="-0.328125">t</tspan>
       <tspan style="font: 16px 'Helvetica'" x="6.273438 10.71875 16.046875 24.046875 32.945312 40.945312" y="-0.328125"> (sec)</tspan>
      </text>
     </g>
    </g>
   </g>
   <g id="matplotlib.axis_2"/>
   <g id="line2d_7">
    <path d="M 11.092656 131.099 
L 12.094694 114.552942 
L 12.762719 106.310518 
L 13.096731 103.503308 
L 13.430744 101.693905 
L 13.764756 100.914849 
L 14.098769 101.149339 
L 14.432781 102.332078 
L 14.766794 104.352458 
L 15.434819 110.271289 
L 16.770869 123.873204 
L 17.438894 128.162389 
L 17.772906 129.074303 
L 18.106919 129.027819 
L 18.440931 127.978027 
L 18.774944 125.929144 
L 19.442969 119.093222 
L 20.445006 104.070529 
L 21.781056 83.614754 
L 22.449081 76.923832 
L 22.783094 74.991407 
L 23.117106 74.096008 
L 23.451119 74.24863 
L 23.785131 75.410979 
L 24.119144 77.497333 
L 24.787169 83.889 
L 26.791244 106.447679 
L 27.125256 108.53402 
L 27.459269 109.72114 
L 27.793281 109.936253 
L 28.127294 109.154724 
L 28.461306 107.401249 
L 29.129331 101.31449 
L 30.131369 88.034999 
L 31.133406 74.724678 
L 31.801431 68.631565 
L 32.135444 66.907588 
L 32.469456 66.194133 
L 32.803469 66.529554 
L 33.137481 67.902917 
L 33.471494 70.25451 
L 34.139519 77.429005 
L 36.477606 108.386193 
L 36.811619 110.835894 
L 37.145631 112.341293 
L 37.479644 112.849272 
L 37.813656 112.355671 
L 38.147669 110.905453 
L 38.815694 105.545232 
L 39.817731 93.859749 
L 40.819769 82.859789 
L 41.487794 78.619309 
L 41.821806 77.869657 
L 42.155819 78.135961 
L 42.489831 79.435074 
L 42.823844 81.734503 
L 43.491869 88.969082 
L 44.493906 104.023368 
L 45.495944 119.102734 
L 46.163969 126.381878 
L 46.497981 128.711929 
L 46.831994 130.047215 
L 47.166006 130.355235 
L 47.500019 129.652831 
L 47.834031 128.005338 
L 48.502056 122.357606 
L 50.506131 100.35359 
L 50.840144 98.140413 
L 51.174156 96.797296 
L 51.508169 96.416112 
L 51.842181 97.041798 
L 52.176194 98.670168 
L 52.844219 104.675945 
L 53.512244 113.481755 
L 55.182306 137.365817 
L 55.850331 143.294141 
L 56.184344 144.851058 
L 56.518356 145.374831 
L 56.852369 144.854483 
L 57.186381 143.328323 
L 57.854406 137.64479 
L 58.856444 124.982981 
L 59.858481 112.391762 
L 60.526506 106.785235 
L 60.860519 105.278126 
L 61.194531 104.747053 
L 61.528544 105.216655 
L 61.862556 106.662237 
L 62.530581 112.145324 
L 63.532619 124.549583 
L 64.534656 137.020952 
L 65.202681 142.574861 
L 65.536694 144.035245 
L 65.870706 144.489103 
L 66.204719 143.898071 
L 66.538731 142.273072 
L 67.206756 136.205904 
L 67.874781 127.283845 
L 69.544844 102.996359 
L 70.212869 96.830753 
L 70.546881 95.120322 
L 70.880894 94.411075 
L 71.214906 94.707152 
L 71.548919 95.963563 
L 71.882931 98.088389 
L 72.550956 104.369738 
L 74.221019 122.589643 
L 74.555031 124.968357 
L 74.889044 126.510563 
L 75.223056 127.105571 
L 75.557069 126.688002 
L 75.891081 125.240972 
L 76.225094 122.79694 
L 76.893119 115.282956 
L 77.895156 99.833527 
L 78.897194 84.386875 
L 79.565219 76.877828 
L 79.899231 74.43719 
L 80.233244 72.994171 
L 80.567256 72.581231 
L 80.901269 73.181484 
L 81.235281 74.729552 
L 81.903306 80.186432 
L 83.907381 101.678617 
L 84.241394 103.814854 
L 84.575406 105.083292 
L 84.909419 105.392012 
L 85.243431 104.696024 
L 85.577444 102.999467 
L 86.245469 96.863456 
L 87.247506 82.877621 
L 88.583556 63.776868 
L 89.251581 57.750358 
L 89.585594 56.14661 
L 89.919606 55.577442 
L 90.253619 56.053776 
L 90.587631 57.53725 
L 91.255656 63.139177 
L 92.257694 75.687164 
L 93.259731 88.173545 
L 93.927756 93.714434 
L 94.261769 95.189832 
L 94.595781 95.689861 
L 94.929794 95.189823 
L 95.263806 93.714359 
L 95.931831 88.172948 
L 96.933869 75.683966 
L 97.935906 63.129859 
L 98.603931 57.521158 
L 98.937944 56.033323 
L 99.271956 55.551905 
L 99.605969 56.115213 
L 99.939981 57.712269 
L 100.273994 60.283316 
L 100.942019 67.883844 
L 103.280106 100.192874 
L 103.614119 102.81754 
L 103.948131 104.493268 
L 104.282144 105.166911 
L 104.616156 104.834282 
L 104.950169 103.540318 
L 105.284181 101.376892 
L 105.952206 95.015 
L 107.622269 76.572016 
L 107.956281 74.144589 
L 108.290294 72.552199 
L 108.624306 71.90549 
L 108.958319 72.269797 
L 109.292331 73.661961 
L 109.626344 76.04948 
L 110.294369 83.44533 
L 111.296406 98.704168 
L 112.298444 113.943209 
L 112.966469 121.303884 
L 113.300481 123.667237 
L 113.634494 125.030858 
L 113.968506 125.362253 
L 114.302519 124.678272 
L 114.636531 123.044263 
L 115.304556 117.408725 
L 117.308631 95.324194 
L 117.642644 93.080713 
L 117.976656 91.702526 
L 118.310669 91.281528 
L 118.644681 91.862684 
L 118.978694 93.441832 
L 119.646719 99.335207 
L 120.314744 108.010201 
L 121.984806 131.488404 
L 122.652831 137.223614 
L 122.986844 138.677536 
L 123.320856 139.094079 
L 123.654869 138.462308 
L 123.988881 136.820575 
L 124.656906 130.89363 
L 125.658944 117.836747 
L 126.660981 104.815698 
L 127.329006 98.904001 
L 127.663019 97.238886 
L 127.997031 96.546266 
L 128.331044 96.850839 
L 128.665056 98.127968 
L 128.999069 100.304866 
L 129.667094 106.849299 
L 131.671169 129.99929 
L 132.005181 132.181094 
L 132.339194 133.43943 
L 132.673206 133.688578 
L 133.007219 132.890242 
L 133.341231 131.055416 
L 134.009256 124.561297 
L 135.011294 109.913206 
L 136.347344 89.788382 
L 137.015369 83.158797 
L 137.349381 81.213869 
L 137.683394 80.268556 
L 138.017406 80.327073 
L 138.351419 81.344509 
L 138.685431 83.229022 
L 139.353456 89.026046 
L 141.023519 106.017247 
L 141.357531 108.147791 
L 141.691544 109.441204 
L 142.025556 109.786878 
L 142.359569 109.119515 
L 142.693581 107.42231 
L 143.027594 104.727805 
L 143.695619 96.712306 
L 144.697656 80.510402 
L 145.699694 64.312991 
L 146.367719 56.30548 
L 146.701731 53.616467 
L 147.035744 51.925753 
L 147.369756 51.265878 
L 147.703769 51.620039 
L 148.037781 52.922937 
L 148.705806 57.89257 
L 150.709881 77.953508 
L 151.043894 79.856484 
L 151.377906 80.893381 
L 151.711919 80.972355 
L 152.045931 80.048494 
L 152.379944 78.126015 
L 153.047969 71.544317 
L 154.050006 56.906476 
L 155.386056 36.970348 
L 156.054081 30.542018 
L 156.388094 28.741575 
L 156.722106 27.978615 
L 157.056119 28.264131 
L 157.390131 29.559828 
L 157.724144 31.779983 
L 158.392169 38.440604 
L 160.396244 61.816866 
L 160.730256 64.041021 
L 161.064269 65.366393 
L 161.398281 65.720197 
L 161.732294 65.077794 
L 162.066306 63.463882 
L 162.734331 57.657546 
L 163.736369 44.801917 
L 164.738406 31.9193 
L 165.406431 26.113437 
L 165.740444 24.533715 
L 166.074456 23.964934 
L 166.408469 24.445445 
L 166.742481 25.964314 
L 167.076494 28.461825 
L 167.744519 35.929396 
L 170.082606 67.925171 
L 170.416619 70.524852 
L 170.750631 72.180627 
L 171.084644 72.839379 
L 171.418656 72.496945 
L 171.752669 71.19829 
L 172.086681 69.035307 
L 172.754706 62.6898 
L 174.424769 44.379097 
L 174.758781 41.993915 
L 175.092794 40.449064 
L 175.426806 39.8552 
L 175.760819 40.277669 
L 176.094831 41.733319 
L 176.428844 44.189658 
L 177.096869 51.739167 
L 178.098906 67.2686 
L 179.100944 82.826378 
L 179.768969 90.426255 
L 180.102981 92.917207 
L 180.436994 94.413746 
L 180.771006 94.883371 
L 181.105019 94.342922 
L 181.439031 92.857732 
L 182.107056 87.535647 
L 184.111131 66.516766 
L 184.445144 64.468957 
L 184.779156 63.29154 
L 185.113169 63.076386 
L 185.447181 63.868432 
L 185.781194 65.663489 
L 186.449219 72.003616 
L 187.451256 86.312629 
L 188.787306 105.873782 
L 189.455331 112.142155 
L 189.789344 113.869559 
L 190.123356 114.564124 
L 190.457369 114.214873 
L 190.791381 112.860112 
L 191.125394 110.585575 
L 191.793419 103.830281 
L 193.797494 80.283297 
L 194.131506 78.047271 
L 194.465519 76.714776 
L 194.799531 76.358597 
L 195.133544 77.003374 
L 195.467556 78.62441 
L 196.135581 84.459232 
L 197.137619 97.39314 
L 198.139656 110.39657 
L 198.807681 116.306503 
L 199.141694 117.945289 
L 199.475706 118.577806 
L 199.809719 118.165688 
L 200.143731 116.719859 
L 200.477744 114.300018 
L 201.145769 107.001621 
L 203.483856 75.741327 
L 203.817869 73.264652 
L 204.151881 71.736299 
L 204.485894 71.209361 
L 204.819906 71.687975 
L 205.153919 73.127152 
L 205.821944 78.477028 
L 206.823981 90.175922 
L 207.826019 101.223312 
L 208.494044 105.513897 
L 208.828056 106.29405 
L 209.162069 106.061831 
L 209.496081 104.800354 
L 209.830094 102.542077 
L 210.498119 95.400202 
L 211.500156 80.510402 
L 212.502194 65.625095 
L 213.170219 58.491208 
L 213.504231 56.238423 
L 213.838244 54.983437 
L 214.172256 54.758707 
L 214.506269 55.547346 
L 214.840281 57.283974 
L 215.508306 63.118489 
L 217.512381 85.747563 
L 217.846394 88.073842 
L 218.180406 89.532478 
L 218.514419 90.031549 
L 218.848431 89.526065 
L 219.182444 88.020161 
L 219.516456 85.566931 
L 220.184481 78.25824 
L 222.522569 47.264025 
L 222.856581 44.877574 
L 223.190594 43.466129 
L 223.524606 43.089388 
L 223.858619 43.758273 
L 224.192631 45.434419 
L 224.860656 51.422046 
L 225.862694 64.549446 
L 226.864731 77.61623 
L 227.532756 83.544578 
L 227.866769 85.213858 
L 228.200781 85.907866 
L 228.534794 85.601904 
L 228.868806 84.320611 
L 229.202819 82.136774 
L 229.870844 75.570147 
L 231.874919 52.287405 
L 232.208931 50.0739 
L 232.542944 48.78115 
L 232.876956 48.494889 
L 233.210969 49.253423 
L 233.544981 51.045772 
L 234.213006 57.446969 
L 235.215044 71.935991 
L 236.551094 91.812722 
L 237.219119 98.303195 
L 237.553131 100.174879 
L 237.887144 101.044521 
L 238.221156 100.907931 
L 238.555169 99.810046 
L 238.889181 97.842734 
L 239.557206 91.873175 
L 241.227269 74.411532 
L 241.561281 72.180445 
L 241.895294 70.784414 
L 242.229306 70.334081 
L 242.563319 70.89478 
L 242.897331 72.48335 
L 243.231344 75.067287 
L 243.899369 82.855998 
L 244.901406 98.704168 
L 245.903444 114.532541 
L 246.571469 122.286078 
L 246.905481 124.845848 
L 247.239494 126.405875 
L 247.573506 126.933661 
L 247.907519 126.446057 
L 248.241531 125.008407 
L 248.909556 119.765528 
L 250.913631 98.858351 
L 251.247644 96.810986 
L 251.581656 95.628877 
L 251.915669 95.403918 
L 252.249681 96.181072 
L 252.583694 97.956177 
L 253.251719 104.241328 
L 254.253756 118.430653 
L 255.589806 137.764117 
L 256.257831 143.89011 
L 256.591844 145.539327 
L 256.925856 146.151096 
L 257.259869 145.714481 
L 257.593881 144.267833 
L 258.261906 138.730836 
L 259.263944 126.258289 
L 260.265981 113.820828 
L 260.934006 108.297749 
L 261.268019 106.826805 
L 261.602031 106.328261 
L 261.936044 106.826814 
L 262.270056 108.297823 
L 262.938081 113.821425 
L 263.940119 126.261488 
L 264.942156 138.740153 
L 265.610181 144.283925 
L 265.944194 145.734934 
L 266.278206 146.176632 
L 266.612219 145.570724 
L 266.946231 143.9282 
L 267.614256 137.818302 
L 268.282281 128.843741 
L 269.952344 104.385941 
L 270.620369 98.138104 
L 270.954381 96.383829 
L 271.288394 95.629018 
L 271.622406 95.877887 
L 271.956419 97.085521 
L 272.290431 99.160077 
L 272.958456 105.336712 
L 274.628519 123.274093 
L 274.962531 125.593369 
L 275.296544 127.075342 
L 275.630556 127.609402 
L 275.964569 127.130249 
L 276.298581 125.621077 
L 276.632594 123.114425 
L 277.300619 115.474086 
L 278.302656 99.833527 
L 279.304694 84.195745 
L 279.972719 76.560343 
L 280.306731 74.057085 
L 280.640744 72.551924 
L 280.974756 72.077399 
L 281.308769 72.616705 
L 281.642781 74.10454 
L 282.310806 79.443418 
L 284.314881 100.60693 
L 284.648894 102.692896 
L 284.982906 103.912557 
L 285.316919 104.174069 
L 285.650931 103.432517 
L 285.984944 101.692116 
L 286.652969 95.473875 
L 287.655006 81.379442 
L 288.991056 62.164469 
L 289.659081 56.095231 
L 289.993094 54.473957 
L 290.327106 53.889912 
L 290.661119 54.354088 
L 290.995131 55.828186 
L 291.663156 61.419976 
L 292.665194 73.975259 
L 293.667231 86.497444 
L 294.335256 92.078847 
L 294.669269 93.579673 
L 295.003281 94.108653 
L 295.337294 93.641145 
L 295.671306 92.201845 
L 296.339331 86.743883 
L 297.341369 74.408657 
L 298.343406 62.043813 
L 299.011431 56.581649 
L 299.345444 55.173326 
L 299.679456 54.775641 
L 300.013469 55.426944 
L 300.347481 57.1163 
L 301.015506 63.324383 
L 301.683531 72.403517 
L 303.353594 97.15346 
L 304.021619 103.531531 
L 304.355631 105.353994 
L 304.689644 106.179105 
L 305.023656 106.002702 
L 305.357669 104.869746 
L 305.691681 102.872131 
L 306.359706 96.856356 
L 308.029769 79.364052 
L 308.363781 77.14152 
L 308.697794 75.758973 
L 309.031806 75.327064 
L 309.365819 75.911138 
L 309.699831 77.528042 
L 310.033844 80.145281 
L 310.701869 88.015523 
L 311.703906 104.023368 
L 312.705944 120.056293 
L 313.373969 127.9711 
L 313.707981 130.618961 
L 314.041994 132.272039 
L 314.376006 132.897828 
L 314.710019 132.513168 
L 315.044031 131.18339 
L 315.712056 126.170993 
L 317.716131 106.071977 
L 318.050144 104.176121 
L 318.384156 103.150265 
L 318.718169 103.086279 
L 319.052181 104.029098 
L 319.386194 105.974531 
L 320.054219 112.614217 
L 321.056256 127.369558 
L 322.392306 147.520134 
L 323.060331 154.080759 
L 323.394344 155.953668 
L 323.728356 156.793324 
L 324.062369 156.588746 
L 324.396381 155.37824 
L 324.730394 153.247539 
L 325.398419 146.778652 
L 327.402494 124.080669 
L 327.736506 121.984639 
L 328.070519 120.791705 
L 328.404531 120.574653 
L 328.738544 121.358121 
L 329.072556 123.117409 
L 329.740581 129.227418 
L 330.742619 142.570789 
L 331.744656 155.979668 
L 332.412681 162.157653 
L 332.746694 163.929787 
L 333.080706 164.695199 
L 333.414719 164.415521 
L 333.748731 163.101674 
L 334.082744 160.813358 
L 334.750769 153.776632 
L 337.088856 123.417579 
L 337.422869 121.067781 
L 337.756881 119.665832 
L 338.090894 119.264826 
L 338.424906 119.868898 
L 338.758919 121.433056 
L 339.426944 127.031464 
L 340.428981 139.09956 
L 341.431019 150.511806 
L 342.099044 155.043197 
L 342.433056 155.943021 
L 342.767069 155.829982 
L 343.101081 154.687196 
L 343.435094 152.547116 
L 344.103119 145.640153 
L 345.105156 131.099 
L 345.439169 125.956417 
L 345.439169 125.956417 
" clip-path="url(#pafe4956675)" style="fill: none; stroke: #1f77b4; stroke-linecap: square"/>
   </g>
   <g id="patch_3">
    <path d="M 11.092656 157.695 
L 345.105156 157.695 
" style="fill: none; stroke: #000000; stroke-width: 0.8; stroke-linejoin: miter; stroke-linecap: square"/>
   </g>
   <g id="text_8">
    <text style="font: 16px 'Helvetica', sans-serif; text-anchor: middle" x="178.098906" y="18.715" transform="rotate(-0 178.098906 18.715)">Time-domain signal</text>
   </g>
  </g>
  <g id="axes_2">
   <g id="patch_4">
    <path d="M 367.650156 157.695 
L 701.662656 157.695 
L 701.662656 24.715 
L 367.650156 24.715 
z
" style="fill: #ffffff"/>
   </g>
   <g id="matplotlib.axis_3">
    <g id="xtick_7">
     <g id="line2d_8">
      <g>
       <use xlink:href="#m0d8836eda9" x="367.650156" y="157.695" style="stroke: #000000; stroke-width: 0.8"/>
      </g>
     </g>
     <g id="text_9">
      <text style="font: 14px 'Helvetica', sans-serif; text-anchor: middle" x="367.650156" y="174.737812" transform="rotate(-0 367.650156 174.737812)">0</text>
     </g>
    </g>
    <g id="xtick_8">
     <g id="line2d_9">
      <g>
       <use xlink:href="#m0d8836eda9" x="451.153281" y="157.695" style="stroke: #000000; stroke-width: 0.8"/>
      </g>
     </g>
     <g id="text_10">
      <text style="font: 14px 'Helvetica', sans-serif; text-anchor: middle" x="451.153281" y="174.737812" transform="rotate(-0 451.153281 174.737812)">1</text>
     </g>
    </g>
    <g id="xtick_9">
     <g id="line2d_10">
      <g>
       <use xlink:href="#m0d8836eda9" x="534.656406" y="157.695" style="stroke: #000000; stroke-width: 0.8"/>
      </g>
     </g>
     <g id="text_11">
      <text style="font: 14px 'Helvetica', sans-serif; text-anchor: middle" x="534.656406" y="174.737812" transform="rotate(-0 534.656406 174.737812)">2</text>
     </g>
    </g>
    <g id="xtick_10">
     <g id="line2d_11">
      <g>
       <use xlink:href="#m0d8836eda9" x="618.159531" y="157.695" style="stroke: #000000; stroke-width: 0.8"/>
      </g>
     </g>
     <g id="text_12">
      <text style="font: 14px 'Helvetica', sans-serif; text-anchor: middle" x="618.159531" y="174.737812" transform="rotate(-0 618.159531 174.737812)">3</text>
     </g>
    </g>
    <g id="xtick_11">
     <g id="line2d_12">
      <g>
       <use xlink:href="#m0d8836eda9" x="701.662656" y="157.695" style="stroke: #000000; stroke-width: 0.8"/>
      </g>
     </g>
     <g id="text_13">
      <text style="font: 14px 'Helvetica', sans-serif; text-anchor: middle" x="701.662656" y="174.737812" transform="rotate(-0 701.662656 174.737812)">4</text>
     </g>
    </g>
    <g id="text_14">
     <!-- $f$ (Hz) -->
     <g transform="translate(514.496406 193.815937)">
      <text>
       <tspan style="font: oblique 16px 'DejaVu Sans'" x="0" y="-0.84375">f</tspan>
       <tspan style="font: 16px 'Helvetica'" x="5.632812 10.078125 15.40625 26.960938 34.960938" y="-0.84375"> (Hz)</tspan>
      </text>
     </g>
    </g>
   </g>
   <g id="matplotlib.axis_4"/>
   <g id="line2d_13">
    <path d="M 367.650156 151.650455 
L 370.990281 151.650455 
L 371.825313 30.759545 
L 372.660344 151.650455 
L 387.690906 151.650455 
L 388.525938 127.472273 
L 389.360969 151.650455 
L 408.566688 151.650455 
L 409.401719 91.205 
L 410.23675 151.650455 
L 659.076063 151.650455 
L 659.911094 103.294091 
L 660.746125 151.650455 
L 702.497687 151.650455 
L 702.497687 151.650455 
" clip-path="url(#pb5b364abab)" style="fill: none; stroke: #1f77b4; stroke-linecap: square"/>
   </g>
   <g id="patch_5">
    <path d="M 367.650156 157.695 
L 701.662656 157.695 
" style="fill: none; stroke: #000000; stroke-width: 0.8; stroke-linejoin: miter; stroke-linecap: square"/>
   </g>
   <g id="text_15">
    <text style="font: 16px 'Helvetica', sans-serif; text-anchor: middle" x="534.656406" y="18.715" transform="rotate(-0 534.656406 18.715)">Frequency-domain representation</text>
   </g>
  </g>
 </g>
 <defs>
  <clipPath id="pafe4956675">
   <rect x="11.092656" y="24.715" width="334.0125" height="132.98"/>
  </clipPath>
  <clipPath id="pb5b364abab">
   <rect x="367.650156" y="24.715" width="334.0125" height="132.98"/>
  </clipPath>
 </defs>
</svg>
