<?xml version="1.0" encoding="utf-8" standalone="no"?>
<!DOCTYPE svg PUBLIC "-//W3C//DTD SVG 1.1//EN"
  "http://www.w3.org/Graphics/SVG/1.1/DTD/svg11.dtd">
<svg xmlns:xlink="http://www.w3.org/1999/xlink" width="712.777656pt" height="203.858125pt" viewBox="0 0 712.777656 203.858125" xmlns="http://www.w3.org/2000/svg" version="1.1">
 <metadata>
  <rdf:RDF xmlns:dc="http://purl.org/dc/elements/1.1/" xmlns:cc="http://creativecommons.org/ns#" xmlns:rdf="http://www.w3.org/1999/02/22-rdf-syntax-ns#">
   <cc:Work>
    <dc:type rdf:resource="http://purl.org/dc/dcmitype/StillImage"/>
    <dc:date>2024-10-03T15:49:40.882378</dc:date>
    <dc:format>image/svg+xml</dc:format>
    <dc:creator>
     <cc:Agent>
      <dc:title>Matplotlib v3.9.2, https://matplotlib.org/</dc:title>
     </cc:Agent>
    </dc:creator>
   </cc:Work>
  </rdf:RDF>
 </metadata>
 <defs>
  <style type="text/css">*{stroke-linejoin: round; stroke-linecap: butt}</style>
 </defs>
 <g id="figure_1">
  <g id="patch_1">
   <path d="M 0 203.858125 
L 712.777656 203.858125 
L 712.777656 0 
L 0 0 
z
" style="fill: #ffffff"/>
  </g>
  <g id="axes_1">
   <g id="patch_2">
    <path d="M 11.092656 159.73625 
L 350.034957 159.73625 
L 350.034957 23.51625 
L 11.092656 23.51625 
z
" style="fill: #ffffff"/>
   </g>
   <g id="matplotlib.axis_1">
    <g id="xtick_1">
     <g id="line2d_1">
      <defs>
       <path id="m39cc61a4b0" d="M 0 0 
L 0 3.5 
" style="stroke: #000000; stroke-width: 0.8"/>
      </defs>
      <g>
       <use xlink:href="#m39cc61a4b0" x="11.092656" y="159.73625" style="stroke: #000000; stroke-width: 0.8"/>
      </g>
     </g>
     <g id="text_1">
      <text style="font: 14px 'Helvetica', sans-serif; text-anchor: middle" x="11.092656" y="176.779062" transform="rotate(-0 11.092656 176.779062)">0</text>
     </g>
    </g>
    <g id="xtick_2">
     <g id="line2d_2">
      <g>
       <use xlink:href="#m39cc61a4b0" x="77.292324" y="159.73625" style="stroke: #000000; stroke-width: 0.8"/>
      </g>
     </g>
     <g id="text_2">
      <text style="font: 14px 'Helvetica', sans-serif; text-anchor: middle" x="77.292324" y="176.779062" transform="rotate(-0 77.292324 176.779062)">50</text>
     </g>
    </g>
    <g id="xtick_3">
     <g id="line2d_3">
      <g>
       <use xlink:href="#m39cc61a4b0" x="143.491993" y="159.73625" style="stroke: #000000; stroke-width: 0.8"/>
      </g>
     </g>
     <g id="text_3">
      <text style="font: 14px 'Helvetica', sans-serif; text-anchor: middle" x="143.491993" y="176.779062" transform="rotate(-0 143.491993 176.779062)">100</text>
     </g>
    </g>
    <g id="xtick_4">
     <g id="line2d_4">
      <g>
       <use xlink:href="#m39cc61a4b0" x="209.691661" y="159.73625" style="stroke: #000000; stroke-width: 0.8"/>
      </g>
     </g>
     <g id="text_4">
      <text style="font: 14px 'Helvetica', sans-serif; text-anchor: middle" x="209.691661" y="176.779062" transform="rotate(-0 209.691661 176.779062)">150</text>
     </g>
    </g>
    <g id="xtick_5">
     <g id="line2d_5">
      <g>
       <use xlink:href="#m39cc61a4b0" x="275.891329" y="159.73625" style="stroke: #000000; stroke-width: 0.8"/>
      </g>
     </g>
     <g id="text_5">
      <text style="font: 14px 'Helvetica', sans-serif; text-anchor: middle" x="275.891329" y="176.779062" transform="rotate(-0 275.891329 176.779062)">200</text>
     </g>
    </g>
    <g id="xtick_6">
     <g id="line2d_6">
      <g>
       <use xlink:href="#m39cc61a4b0" x="342.090997" y="159.73625" style="stroke: #000000; stroke-width: 0.8"/>
      </g>
     </g>
     <g id="text_6">
      <text style="font: 14px 'Helvetica', sans-serif; text-anchor: middle" x="342.090997" y="176.779062" transform="rotate(-0 342.090997 176.779062)">250</text>
     </g>
    </g>
    <g id="text_7">
     <!-- $n$ -->
     <g transform="translate(176.083807 193.74)">
      <text>
       <tspan style="font: oblique 14px 'DejaVu Sans'" x="0" y="-0.15625">n</tspan>
      </text>
     </g>
    </g>
   </g>
   <g id="matplotlib.axis_2"/>
   <g id="line2d_7">
    <path d="M 11.092656 66.636101 
L 12.41665 52.587056 
L 13.740643 57.783799 
L 15.064636 79.141021 
L 16.38863 96.365718 
L 17.712623 94.391897 
L 19.036616 79.735733 
L 20.36061 72.217952 
L 21.684603 81.687345 
L 23.008597 96.506537 
L 24.33259 97.028345 
L 25.656583 78.604416 
L 26.980577 57.684944 
L 28.30457 53.876604 
L 30.952557 83.03561 
L 32.27655 81.72859 
L 33.600543 68.395339 
L 34.924537 62.23442 
L 36.24853 74.92018 
L 37.572524 96.349625 
L 38.896517 105.360342 
L 40.22051 93.311649 
L 41.544504 73.65547 
L 42.868497 66.601135 
L 44.19249 76.418578 
L 45.516484 87.280665 
L 46.840477 82.264365 
L 48.16447 63.587385 
L 49.488464 50.746091 
L 50.812457 58.556609 
L 52.136451 80.170051 
L 53.460444 94.511782 
L 54.784437 89.704763 
L 56.108431 75.795163 
L 57.432424 72.378317 
L 58.756417 85.459431 
L 60.080411 100.17633 
L 61.404404 97.793069 
L 64.052391 58.067086 
L 65.376384 57.131856 
L 66.700378 71.971358 
L 68.024371 83.301167 
L 69.348364 77.8074 
L 70.672358 63.455409 
L 71.996351 60.048584 
L 73.320344 75.908166 
L 74.644338 97.497457 
L 75.968331 104.032556 
L 77.292324 90.522331 
L 78.616318 73.004419 
L 79.940311 70.074464 
L 81.264305 81.876585 
L 82.588298 90.554838 
L 83.912291 81.530406 
L 85.236285 61.084328 
L 86.560278 49.944269 
L 87.884271 60.068408 
L 89.208265 81.107478 
L 90.532258 92.015098 
L 91.856251 84.559611 
L 93.180245 71.931115 
L 94.504238 72.74651 
L 95.828232 88.936646 
L 97.152225 102.985691 
L 98.476218 97.788947 
L 99.800212 76.431726 
L 101.124205 59.207028 
L 102.448198 61.180849 
L 103.772192 75.837014 
L 105.096185 83.354794 
L 106.420178 73.885401 
L 107.744172 59.06621 
L 109.068165 58.544402 
L 110.392159 76.968331 
L 111.716152 97.887802 
L 113.040145 101.696143 
L 115.688132 72.537137 
L 117.012125 73.844157 
L 118.336119 87.177407 
L 119.660112 93.338327 
L 120.984105 80.652566 
L 122.308099 59.223121 
L 123.632092 50.212404 
L 124.956086 62.261098 
L 126.280079 81.917277 
L 127.604072 88.971612 
L 128.928066 79.154168 
L 130.252059 68.292082 
L 131.576052 73.308382 
L 132.900046 91.985362 
L 134.224039 104.826655 
L 135.548032 97.016137 
L 136.872026 75.402695 
L 138.196019 61.060964 
L 139.520013 65.867984 
L 140.844006 79.777583 
L 142.167999 83.19443 
L 143.491993 70.113315 
L 144.815986 55.396416 
L 146.139979 57.779677 
L 148.787966 97.505661 
L 150.111959 98.440891 
L 151.435953 83.601389 
L 152.759946 72.271579 
L 154.08394 77.765347 
L 155.407933 92.117337 
L 156.731926 95.524162 
L 158.05592 79.66458 
L 159.379913 58.07529 
L 160.703906 51.540191 
L 162.0279 65.050415 
L 163.351893 82.568327 
L 164.675886 85.498283 
L 165.99988 73.696161 
L 167.323873 65.017908 
L 168.647867 74.04234 
L 169.97186 94.488419 
L 171.295853 105.628477 
L 172.619847 95.504339 
L 173.94384 74.465268 
L 175.267833 63.557649 
L 176.591827 71.013135 
L 177.91582 83.641631 
L 179.239813 82.826237 
L 180.563807 66.636101 
L 181.8878 52.587056 
L 183.211794 57.783799 
L 184.535787 79.141021 
L 185.85978 96.365718 
L 187.183774 94.391897 
L 188.507767 79.735733 
L 189.83176 72.217952 
L 191.155754 81.687345 
L 192.479747 96.506537 
L 193.80374 97.028345 
L 195.127734 78.604416 
L 196.451727 57.684944 
L 197.775721 53.876604 
L 200.423707 83.03561 
L 201.747701 81.72859 
L 203.071694 68.395339 
L 204.395687 62.23442 
L 205.719681 74.92018 
L 207.043674 96.349625 
L 208.367667 105.360342 
L 209.691661 93.311649 
L 211.015654 73.65547 
L 212.339648 66.601135 
L 213.663641 76.418578 
L 214.987634 87.280665 
L 216.311628 82.264365 
L 217.635621 63.587385 
L 218.959614 50.746091 
L 220.283608 58.556609 
L 221.607601 80.170051 
L 222.931594 94.511782 
L 224.255588 89.704763 
L 225.579581 75.795163 
L 226.903575 72.378317 
L 228.227568 29.708068 
L 229.551561 44.424968 
L 230.875555 153.544432 
L 232.199548 133.264177 
L 233.523541 58.067086 
L 234.847535 57.131856 
L 236.171528 71.971358 
L 237.495521 83.301167 
L 238.819515 77.8074 
L 240.143508 63.455409 
L 241.467502 60.048584 
L 242.791495 75.908166 
L 244.115488 97.497457 
L 245.439482 104.032556 
L 246.763475 90.522331 
L 248.087468 73.004419 
L 249.411462 70.074464 
L 250.735455 81.876585 
L 252.059448 90.554838 
L 253.383442 81.530406 
L 254.707435 61.084328 
L 256.031429 49.944269 
L 257.355422 60.068408 
L 258.679415 81.107478 
L 260.003409 92.015098 
L 261.327402 84.559611 
L 262.651395 71.931115 
L 263.975389 72.74651 
L 265.299382 88.936646 
L 266.623375 102.985691 
L 267.947369 97.788947 
L 269.271362 76.431726 
L 270.595356 59.207028 
L 271.919349 61.180849 
L 273.243342 75.837014 
L 274.567336 83.354794 
L 275.891329 73.885401 
L 277.215322 59.06621 
L 278.539316 58.544402 
L 279.863309 76.968331 
L 281.187302 97.887802 
L 282.511296 101.696143 
L 285.159283 72.537137 
L 286.483276 73.844157 
L 287.807269 87.177407 
L 289.131263 93.338327 
L 290.455256 80.652566 
L 291.779249 59.223121 
L 293.103243 50.212404 
L 294.427236 62.261098 
L 295.751229 81.917277 
L 297.075223 88.971612 
L 298.399216 79.154168 
L 299.72321 68.292082 
L 301.047203 73.308382 
L 302.371196 91.985362 
L 303.69519 104.826655 
L 305.019183 97.016137 
L 306.343176 75.402695 
L 307.66717 61.060964 
L 308.991163 65.867984 
L 310.315156 79.777583 
L 311.63915 83.19443 
L 312.963143 70.113315 
L 314.287137 55.396416 
L 315.61113 57.779677 
L 318.259117 97.505661 
L 319.58311 98.440891 
L 320.907103 83.601389 
L 322.231097 72.271579 
L 323.55509 77.765347 
L 324.879083 92.117337 
L 326.203077 95.524162 
L 327.52707 79.66458 
L 328.851064 58.07529 
L 330.175057 51.540191 
L 331.49905 65.050415 
L 332.823044 82.568327 
L 334.147037 85.498283 
L 335.47103 73.696161 
L 336.795024 65.017908 
L 338.119017 74.04234 
L 339.44301 94.488419 
L 340.767004 105.628477 
L 342.090997 95.504339 
L 343.414991 74.465268 
L 344.738984 63.557649 
L 346.062977 71.013135 
L 347.386971 83.641631 
L 348.710964 82.826237 
L 348.710964 82.826237 
" clip-path="url(#p1a737f8087)" style="fill: none; stroke: #1f77b4; stroke-linecap: square"/>
   </g>
   <g id="patch_3">
    <path d="M 11.092656 159.73625 
L 350.034957 159.73625 
" style="fill: none; stroke: #000000; stroke-width: 0.8; stroke-linejoin: miter; stroke-linecap: square"/>
   </g>
   <g id="text_8">
    <text style="font: 14px 'Helvetica', sans-serif; text-anchor: middle" x="180.563807" y="17.51625" transform="rotate(-0 180.563807 17.51625)">Time-domain signal</text>
   </g>
  </g>
  <g id="axes_2">
   <g id="patch_4">
    <path d="M 366.635355 159.73625 
L 705.577656 159.73625 
L 705.577656 23.51625 
L 366.635355 23.51625 
z
" style="fill: #ffffff"/>
   </g>
   <g id="matplotlib.axis_3">
    <g id="xtick_7">
     <g id="line2d_8">
      <g>
       <use xlink:href="#m39cc61a4b0" x="382.041823" y="159.73625" style="stroke: #000000; stroke-width: 0.8"/>
      </g>
     </g>
     <g id="text_9">
      <text style="font: 14px 'Helvetica', sans-serif; text-anchor: middle" x="382.041823" y="176.779062" transform="rotate(-0 382.041823 176.779062)">0</text>
     </g>
    </g>
    <g id="xtick_8">
     <g id="line2d_9">
      <g>
       <use xlink:href="#m39cc61a4b0" x="442.341112" y="159.73625" style="stroke: #000000; stroke-width: 0.8"/>
      </g>
     </g>
     <g id="text_10">
      <text style="font: 14px 'Helvetica', sans-serif; text-anchor: middle" x="442.341112" y="176.779062" transform="rotate(-0 442.341112 176.779062)">100</text>
     </g>
    </g>
    <g id="xtick_9">
     <g id="line2d_10">
      <g>
       <use xlink:href="#m39cc61a4b0" x="502.640401" y="159.73625" style="stroke: #000000; stroke-width: 0.8"/>
      </g>
     </g>
     <g id="text_11">
      <text style="font: 14px 'Helvetica', sans-serif; text-anchor: middle" x="502.640401" y="176.779062" transform="rotate(-0 502.640401 176.779062)">200</text>
     </g>
    </g>
    <g id="xtick_10">
     <g id="line2d_11">
      <g>
       <use xlink:href="#m39cc61a4b0" x="562.939689" y="159.73625" style="stroke: #000000; stroke-width: 0.8"/>
      </g>
     </g>
     <g id="text_12">
      <text style="font: 14px 'Helvetica', sans-serif; text-anchor: middle" x="562.939689" y="176.779062" transform="rotate(-0 562.939689 176.779062)">300</text>
     </g>
    </g>
    <g id="xtick_11">
     <g id="line2d_12">
      <g>
       <use xlink:href="#m39cc61a4b0" x="623.238978" y="159.73625" style="stroke: #000000; stroke-width: 0.8"/>
      </g>
     </g>
     <g id="text_13">
      <text style="font: 14px 'Helvetica', sans-serif; text-anchor: middle" x="623.238978" y="176.779062" transform="rotate(-0 623.238978 176.779062)">400</text>
     </g>
    </g>
    <g id="xtick_12">
     <g id="line2d_13">
      <g>
       <use xlink:href="#m39cc61a4b0" x="683.538266" y="159.73625" style="stroke: #000000; stroke-width: 0.8"/>
      </g>
     </g>
     <g id="text_14">
      <text style="font: 14px 'Helvetica', sans-serif; text-anchor: middle" x="683.538266" y="176.779062" transform="rotate(-0 683.538266 176.779062)">500</text>
     </g>
    </g>
    <g id="text_15">
     <!-- $k$ -->
     <g transform="translate(532.046506 193.74)">
      <text>
       <tspan style="font: oblique 14px 'DejaVu Sans'" x="0" y="-0.359375">k</tspan>
      </text>
     </g>
    </g>
   </g>
   <g id="matplotlib.axis_4"/>
   <g id="line2d_14">
    <path d="M 382.041823 144.490518 
L 382.644816 144.722662 
L 383.247809 143.928551 
L 383.850802 144.814999 
L 384.453795 145.08879 
L 385.056788 143.047018 
L 385.659781 145.68994 
L 386.262774 144.812161 
L 386.865766 142.455168 
L 387.468759 146.843967 
L 388.071752 143.862449 
L 388.674745 142.467886 
L 389.277738 147.899655 
L 389.880731 142.407853 
L 390.483724 143.252846 
L 391.086717 148.467529 
L 391.68971 140.780894 
L 392.292702 144.7795 
L 392.895695 72.168993 
L 393.498688 139.403386 
L 394.101681 146.814509 
L 394.704674 147.099729 
L 395.307667 138.687491 
L 395.91066 148.965454 
L 396.513653 145.109953 
L 397.116645 138.93543 
L 397.719638 150.763632 
L 398.322631 142.564434 
L 398.925624 140.260948 
L 399.528617 151.767681 
L 400.13161 139.90835 
L 400.734603 142.550857 
L 401.337596 151.664919 
L 401.940589 137.654139 
L 402.543581 145.476173 
L 403.146574 150.347576 
L 403.749567 136.273913 
L 404.35256 148.551229 
L 404.955553 147.946504 
L 405.558546 136.097359 
L 406.161539 151.228526 
L 407.367525 137.237557 
L 407.970517 153.009056 
L 408.57351 141.461251 
L 409.176503 139.561089 
L 409.779496 153.544432 
L 410.382489 138.456496 
L 410.985482 142.709094 
L 411.588475 152.708938 
L 412.191468 136.317096 
L 412.794461 146.164897 
L 413.397453 150.626255 
L 414.000446 135.406755 
L 414.603439 149.353746 
L 415.206432 147.645476 
L 415.809425 135.866412 
L 416.412418 151.753502 
L 417.618404 137.590388 
L 418.221396 152.993063 
L 418.824389 141.068533 
L 419.427382 140.25223 
L 420.030375 152.918427 
L 420.633368 138.54705 
L 421.236361 143.373626 
L 421.839354 151.613617 
L 422.442347 137.074795 
L 423.04534 146.420835 
L 423.648332 149.373719 
L 424.251325 136.812643 
L 424.854318 148.907734 
L 425.457311 146.637491 
L 426.060304 137.697445 
L 426.663297 150.483953 
L 427.26629 143.895347 
L 427.869283 139.469735 
L 428.472276 150.990703 
L 429.075268 141.593003 
L 429.678261 141.738549 
L 430.281254 150.474609 
L 430.884247 140.051038 
L 431.48724 144.067603 
L 432.090233 149.159376 
L 432.693226 139.416052 
L 433.296219 146.063344 
L 433.899212 147.384228 
L 434.502204 139.651362 
L 435.105197 147.446226 
L 435.70819 145.524684 
L 436.311183 140.56605 
L 436.914176 148.091415 
L 437.517169 143.91406 
L 438.120162 141.872838 
L 438.723155 148.032895 
L 439.326148 142.782562 
L 439.92914 143.259586 
L 440.532133 147.433521 
L 441.135126 142.225629 
L 442.341112 146.531054 
L 442.944105 142.205591 
L 443.547098 145.289915 
L 444.150091 145.574902 
L 444.753083 142.582701 
L 445.356076 145.696027 
L 445.959069 144.769171 
L 446.562062 143.165032 
L 447.165055 145.721327 
L 447.768048 144.234758 
L 448.371041 143.763182 
L 448.974034 145.486312 
L 449.577027 143.997476 
L 450.180019 144.235783 
L 450.783012 145.140596 
L 451.386005 144.002084 
L 451.988998 144.515362 
L 452.591991 144.816996 
L 453.194984 144.145551 
L 453.797977 144.610062 
L 454.40097 144.597669 
L 455.003963 144.318374 
L 455.606955 144.583446 
L 456.812941 144.441482 
L 457.415934 144.520403 
L 460.430899 144.335001 
L 461.033891 145.301907 
L 461.636884 143.492362 
L 462.84287 145.75031 
L 463.445863 142.49151 
L 464.048856 145.578436 
L 464.651849 145.568477 
L 465.254842 141.693601 
L 465.857834 146.894334 
L 466.460827 144.657998 
L 467.06382 141.454904 
L 467.666813 148.237006 
L 468.269806 143.122337 
L 468.872799 142.011826 
L 469.475792 149.194281 
L 470.078785 141.251545 
L 470.681778 143.413564 
L 471.28477 149.404183 
L 471.887763 139.46154 
L 472.490756 145.497439 
L 473.093749 148.647521 
L 473.696742 138.201288 
L 474.299735 147.913463 
L 474.902728 146.910325 
L 475.505721 137.848725 
L 476.108714 150.193434 
L 477.314699 138.619012 
L 477.917692 151.849715 
L 478.520685 141.518784 
L 479.123678 140.506158 
L 479.726671 152.481993 
L 480.329664 138.775479 
L 480.932657 143.2717 
L 481.53565 151.868343 
L 482.138642 136.693939 
L 482.741635 146.483763 
L 483.344628 150.020258 
L 483.947621 135.698353 
L 484.550614 149.59863 
L 485.153607 147.189179 
L 485.7566 136.024283 
L 486.359593 152.067596 
L 486.962585 29.708068 
L 487.565578 137.666547 
L 488.168571 153.446344 
L 488.771564 140.479352 
L 489.374557 140.376363 
L 489.97755 153.483589 
L 490.580543 137.720776 
L 491.183536 143.708271 
L 491.786529 152.170395 
L 492.389521 136.002842 
L 492.992514 147.106612 
L 493.595507 149.740197 
L 494.1985 135.589727 
L 494.801493 150.013006 
L 495.404486 146.620295 
L 496.007479 136.507631 
L 496.610472 151.972143 
L 497.213465 143.345871 
L 497.816457 138.54705 
L 498.41945 152.714073 
L 499.022443 140.455332 
L 499.625436 141.311656 
L 500.228429 152.196776 
L 500.831422 138.389152 
L 502.037408 150.60178 
L 502.640401 137.412897 
L 503.243393 147.015574 
L 503.846386 148.285819 
L 504.449379 137.579154 
L 505.052372 149.041091 
L 505.655365 145.700758 
L 506.258358 138.734145 
L 506.861351 150.128988 
L 507.464344 143.300208 
L 508.067336 140.564956 
L 508.670329 150.223846 
L 509.273322 141.453093 
L 509.876315 142.674845 
L 510.479308 149.45527 
L 511.082301 140.381767 
L 511.685294 144.668755 
L 512.288287 148.092059 
L 512.89128 140.135851 
L 513.494272 146.230115 
L 514.097265 146.47243 
L 514.700258 140.604354 
L 515.303251 147.173248 
L 515.906244 144.927429 
L 516.509237 141.560001 
L 517.11223 147.462252 
L 517.715223 143.714832 
L 518.318216 142.722981 
L 518.921208 147.195515 
L 519.524201 142.977154 
L 520.127194 143.827902 
L 520.730187 146.562875 
L 521.33318 142.730675 
L 521.936173 144.678422 
L 522.539166 145.788226 
L 523.142159 142.884604 
L 523.745152 145.178227 
L 524.348144 145.072648 
L 524.951137 143.282404 
L 525.55413 145.333703 
L 526.760116 143.752628 
L 527.363109 145.23098 
L 527.966102 144.275762 
L 528.569095 144.155415 
L 529.172087 144.996216 
L 529.77508 144.215812 
L 530.378073 144.413053 
L 530.981066 144.751511 
L 531.584059 144.290054 
L 532.187052 144.518216 
L 532.790045 144.578993 
L 533.393038 144.401835 
L 533.996031 144.519909 
L 537.010995 144.490518 
L 537.613988 144.136574 
L 538.819974 144.048235 
L 539.422967 144.932802 
L 540.025959 144.048235 
L 540.628952 144.932802 
L 541.231945 144.434281 
L 541.834938 144.287672 
L 543.040924 144.693364 
L 544.24691 144.287672 
L 545.452895 144.693364 
L 546.055888 144.25207 
L 546.658881 145.694251 
L 547.261874 146.431302 
L 547.864867 146.031468 
L 549.070853 143.286786 
L 549.673846 142.549735 
L 550.276838 142.949569 
L 551.482824 145.694251 
L 552.085817 146.431302 
L 552.68881 146.031468 
L 553.894796 143.286786 
L 554.497789 142.549735 
L 555.100782 142.949569 
L 555.703774 142.859182 
L 556.306767 146.203587 
L 556.90976 142.956515 
L 557.512753 145.611917 
L 558.115746 143.952446 
L 558.718739 144.363347 
L 559.321732 145.263573 
L 559.924725 143.189272 
L 560.527718 146.121854 
L 561.13071 142.777449 
L 561.733703 146.024521 
L 562.336696 143.369119 
L 562.939689 145.02859 
L 563.542682 144.61769 
L 564.145675 143.717464 
L 564.748668 145.791765 
L 565.351661 142.859182 
L 565.954654 146.203587 
L 566.557646 142.956515 
L 567.160639 145.611917 
L 567.763632 143.952446 
L 568.366625 144.363347 
L 568.969618 145.263573 
L 569.572611 143.189272 
L 570.175604 146.121854 
L 570.778597 142.777449 
L 571.38159 146.024521 
L 571.984582 143.369119 
L 572.587575 145.02859 
L 573.190568 144.61769 
L 573.793561 143.717464 
L 574.396554 145.791765 
L 574.999547 144.018739 
L 575.60254 145.524708 
L 576.808525 143.429696 
L 577.411518 144.836173 
L 578.014511 145.416473 
L 578.617504 143.783574 
L 579.220497 143.840399 
L 579.82349 145.451126 
L 580.426483 144.765827 
L 581.029476 143.42249 
L 581.632469 144.631934 
L 582.235461 145.503369 
L 582.838454 143.953908 
L 583.441447 143.687043 
L 584.04444 145.340629 
L 584.647433 144.962297 
L 585.250426 143.456329 
L 586.456412 145.551341 
L 587.059405 144.144864 
L 587.662397 143.564563 
L 588.26539 145.197462 
L 588.868383 145.140637 
L 589.471376 143.52991 
L 590.074369 144.21521 
L 590.677362 145.558546 
L 591.280355 144.349103 
L 591.883348 143.477668 
L 592.486341 145.027128 
L 593.089333 145.293994 
L 593.692326 143.640408 
L 594.295319 144.018739 
L 594.898312 145.524708 
L 596.104298 143.429696 
L 596.707291 144.836173 
L 597.310284 145.416473 
L 597.913276 143.783574 
L 598.516269 143.840399 
L 599.119262 145.451126 
L 599.722255 138.822358 
L 600.325248 143.42249 
L 600.928241 144.631934 
L 601.531234 145.503369 
L 602.134227 143.953908 
L 602.73722 143.687043 
L 603.340212 145.340629 
L 603.943205 144.962297 
L 604.546198 143.456329 
L 605.752184 145.551341 
L 606.355177 144.144864 
L 606.95817 143.564563 
L 607.561163 145.197462 
L 608.164156 145.140637 
L 608.767148 143.52991 
L 609.370141 144.21521 
L 609.973134 145.558546 
L 610.576127 144.349103 
L 611.17912 143.477668 
L 611.782113 145.027128 
L 612.385106 145.293994 
L 612.988099 143.640408 
L 613.591092 145.020043 
L 614.194084 143.68554 
L 614.797077 144.564914 
L 615.40007 144.773872 
L 616.003063 143.931966 
L 616.606056 145.184937 
L 617.812042 143.936215 
L 618.415035 144.993064 
L 619.018027 144.012377 
L 619.62102 144.150894 
L 620.224013 145.231382 
L 620.827006 144.120487 
L 621.429999 144.679588 
L 622.032992 144.974521 
L 622.635985 143.675883 
L 623.238978 144.6717 
L 623.841971 144.619303 
L 624.444963 143.935821 
L 625.047956 145.254905 
L 625.650949 144.525768 
L 626.253942 144.063485 
L 626.856935 145.031461 
L 627.459928 143.892752 
L 628.062921 144.244203 
L 628.665914 145.150789 
L 629.268907 144.045683 
L 629.871899 144.83066 
L 630.474892 144.9104 
L 631.077885 143.697531 
L 631.680878 144.771524 
L 632.283871 144.459785 
L 632.886864 143.960993 
L 633.489857 145.295497 
L 634.09285 144.416123 
L 634.695843 144.207164 
L 635.298835 145.049071 
L 635.901828 143.796099 
L 637.107814 145.044821 
L 637.710807 143.987973 
L 638.3138 144.968659 
L 638.916793 144.830143 
L 639.519786 143.749654 
L 640.122778 144.860549 
L 640.725771 144.301448 
L 641.328764 144.006515 
L 641.931757 145.305154 
L 642.53475 144.309336 
L 643.137743 144.361733 
L 643.740736 145.045215 
L 644.343729 143.726132 
L 644.946722 144.455268 
L 645.549714 144.917552 
L 646.152707 143.949575 
L 646.7557 145.088284 
L 647.358693 144.736834 
L 647.961686 143.830248 
L 648.564679 144.935354 
L 649.167672 144.150377 
L 649.770665 144.070637 
L 650.373658 145.283505 
L 650.97665 144.209512 
L 651.579643 144.521251 
L 652.182636 145.020043 
L 652.785629 143.68554 
L 653.388622 144.564914 
L 653.991615 144.773872 
L 654.594608 143.931966 
L 655.197601 145.184937 
L 656.403586 143.936215 
L 657.006579 144.993064 
L 657.609572 144.012377 
L 658.212565 144.150894 
L 658.815558 145.231382 
L 659.418551 144.120487 
L 660.021544 144.679588 
L 660.624537 144.974521 
L 661.227529 143.675883 
L 661.830522 144.6717 
L 662.433515 144.619303 
L 663.036508 143.935821 
L 663.639501 145.254905 
L 664.242494 144.525768 
L 664.845487 144.063485 
L 665.44848 145.031461 
L 666.051473 143.892752 
L 666.654465 144.244203 
L 667.257458 145.150789 
L 667.860451 144.045683 
L 668.463444 144.83066 
L 669.066437 144.9104 
L 669.66943 143.697531 
L 670.272423 144.771524 
L 670.875416 144.459785 
L 671.478409 143.960993 
L 672.081401 145.295497 
L 672.684394 144.416123 
L 673.287387 144.207164 
L 673.89038 145.049071 
L 674.493373 143.796099 
L 675.699359 145.044821 
L 676.302352 143.987973 
L 676.905345 144.968659 
L 677.508337 144.830143 
L 678.11133 143.749654 
L 678.714323 144.860549 
L 679.317316 144.301448 
L 679.920309 144.006515 
L 680.523302 145.305154 
L 681.126295 144.309336 
L 681.729288 144.361733 
L 682.332281 145.045215 
L 682.935273 143.726132 
L 683.538266 144.455268 
L 684.141259 144.917552 
L 684.744252 143.949575 
L 685.347245 145.088284 
L 685.950238 144.736834 
L 686.553231 143.830248 
L 687.156224 144.935354 
L 687.759216 144.150377 
L 688.362209 144.070637 
L 688.965202 145.283505 
L 689.568195 144.209512 
L 690.171188 144.521251 
L 690.171188 144.521251 
" clip-path="url(#p4a71a961d5)" style="fill: none; stroke: #1f77b4; stroke-linecap: square"/>
   </g>
   <g id="patch_5">
    <path d="M 366.635355 159.73625 
L 705.577656 159.73625 
" style="fill: none; stroke: #000000; stroke-width: 0.8; stroke-linejoin: miter; stroke-linecap: square"/>
   </g>
   <g id="text_16">
    <text style="font: 14px 'Helvetica', sans-serif; text-anchor: middle" x="536.106506" y="17.51625" transform="rotate(-0 536.106506 17.51625)">Custom Decomposition</text>
   </g>
  </g>
 </g>
 <defs>
  <clipPath id="p1a737f8087">
   <rect x="11.092656" y="23.51625" width="338.942301" height="136.22"/>
  </clipPath>
  <clipPath id="p4a71a961d5">
   <rect x="366.635355" y="23.51625" width="338.942301" height="136.22"/>
  </clipPath>
 </defs>
</svg>
