<?xml version="1.0" encoding="UTF-8" standalone="no"?>
<!-- Created with matplotlib (http://matplotlib.org/) -->

<svg
   xmlns:dc="http://purl.org/dc/elements/1.1/"
   xmlns:cc="http://creativecommons.org/ns#"
   xmlns:rdf="http://www.w3.org/1999/02/22-rdf-syntax-ns#"
   xmlns:svg="http://www.w3.org/2000/svg"
   xmlns="http://www.w3.org/2000/svg"
   xmlns:xlink="http://www.w3.org/1999/xlink"
   xmlns:sodipodi="http://sodipodi.sourceforge.net/DTD/sodipodi-0.dtd"
   xmlns:inkscape="http://www.inkscape.org/namespaces/inkscape"
   height="540pt"
   version="1.1"
   viewBox="0 0 324 540"
   width="324pt"
   id="svg313"
   sodipodi:docname="trig_expt.svg"
   inkscape:version="0.92.3 (2405546, 2018-03-11)">
  <metadata
     id="metadata317">
    <rdf:RDF>
      <cc:Work
         rdf:about="">
        <dc:format>image/svg+xml</dc:format>
        <dc:type
           rdf:resource="http://purl.org/dc/dcmitype/StillImage" />
      </cc:Work>
    </rdf:RDF>
  </metadata>
  <sodipodi:namedview
     pagecolor="#ffffff"
     bordercolor="#666666"
     borderopacity="1"
     objecttolerance="10"
     gridtolerance="10"
     guidetolerance="10"
     inkscape:pageopacity="0"
     inkscape:pageshadow="2"
     inkscape:window-width="1920"
     inkscape:window-height="1052"
     id="namedview315"
     showgrid="false"
     inkscape:zoom="1.3111111"
     inkscape:cx="198.62239"
     inkscape:cy="333.99394"
     inkscape:window-x="0"
     inkscape:window-y="0"
     inkscape:window-maximized="1"
     inkscape:current-layer="figure_1" />
  <defs
     id="defs4">
    <style
       type="text/css"
       id="style2">
*{stroke-linecap:butt;stroke-linejoin:round;}
  </style>
  </defs>
  <g
     id="figure_1">
    <g
       id="axes_1">
      <g
         id="patch_2">
        <path
           d="M 40.5 472.5  L 291.6 472.5  L 291.6 64.8  L 40.5 64.8  z "
           style="fill:#ffffff;"
           id="path9" />
      </g>
      <g
         id="matplotlib.axis_1">
        <g
           id="xtick_1">
          <g
             id="line2d_1">
            <defs
               id="defs13">
              <path
                 d="M 0 0  L 0 3.5  "
                 id="m8b508bc2f1"
                 style="stroke:#000000;stroke-width:0.8;" />
            </defs>
            <g
               id="g17">
              <use
                 style="stroke:#000000;stroke-width:0.8;"
                 x="49.158621"
                 xlink:href="#m8b508bc2f1"
                 y="472.5"
                 id="use15" />
            </g>
          </g>
          <g
             id="text_1">
            <!-- 0 -->
            <defs
               id="defs21">
              <path
                 d="M 31.78125 66.40625  Q 24.171875 66.40625 20.328125 58.90625  Q 16.5 51.421875 16.5 36.375  Q 16.5 21.390625 20.328125 13.890625  Q 24.171875 6.390625 31.78125 6.390625  Q 39.453125 6.390625 43.28125 13.890625  Q 47.125 21.390625 47.125 36.375  Q 47.125 51.421875 43.28125 58.90625  Q 39.453125 66.40625 31.78125 66.40625  z M 31.78125 74.21875  Q 44.046875 74.21875 50.515625 64.515625  Q 56.984375 54.828125 56.984375 36.375  Q 56.984375 17.96875 50.515625 8.265625  Q 44.046875 -1.421875 31.78125 -1.421875  Q 19.53125 -1.421875 13.0625 8.265625  Q 6.59375 17.96875 6.59375 36.375  Q 6.59375 54.828125 13.0625 64.515625  Q 19.53125 74.21875 31.78125 74.21875  z "
                 id="DejaVuSans-30" />
            </defs>
            <g
               transform="translate(45.977371 487.098437)scale(0.1 -0.1)"
               id="g25">
              <use
                 xlink:href="#DejaVuSans-30"
                 id="use23" />
            </g>
          </g>
        </g>
        <g
           id="xtick_2">
          <g
             id="line2d_2">
            <g
               id="g31">
              <use
                 style="stroke:#000000;stroke-width:0.8;"
                 x="83.793103"
                 xlink:href="#m8b508bc2f1"
                 y="472.5"
                 id="use29" />
            </g>
          </g>
          <g
             id="text_2">
            <!-- 20 -->
            <defs
               id="defs35">
              <path
                 d="M 19.1875 8.296875  L 53.609375 8.296875  L 53.609375 0  L 7.328125 0  L 7.328125 8.296875  Q 12.9375 14.109375 22.625 23.890625  Q 32.328125 33.6875 34.8125 36.53125  Q 39.546875 41.84375 41.421875 45.53125  Q 43.3125 49.21875 43.3125 52.78125  Q 43.3125 58.59375 39.234375 62.25  Q 35.15625 65.921875 28.609375 65.921875  Q 23.96875 65.921875 18.8125 64.3125  Q 13.671875 62.703125 7.8125 59.421875  L 7.8125 69.390625  Q 13.765625 71.78125 18.9375 73  Q 24.125 74.21875 28.421875 74.21875  Q 39.75 74.21875 46.484375 68.546875  Q 53.21875 62.890625 53.21875 53.421875  Q 53.21875 48.921875 51.53125 44.890625  Q 49.859375 40.875 45.40625 35.40625  Q 44.1875 33.984375 37.640625 27.21875  Q 31.109375 20.453125 19.1875 8.296875  z "
                 id="DejaVuSans-32" />
            </defs>
            <g
               transform="translate(77.430603 487.098437)scale(0.1 -0.1)"
               id="g41">
              <use
                 xlink:href="#DejaVuSans-32"
                 id="use37" />
              <use
                 x="63.623047"
                 xlink:href="#DejaVuSans-30"
                 id="use39" />
            </g>
          </g>
        </g>
        <g
           id="xtick_3">
          <g
             id="line2d_3">
            <g
               id="g47">
              <use
                 style="stroke:#000000;stroke-width:0.8;"
                 x="118.427586"
                 xlink:href="#m8b508bc2f1"
                 y="472.5"
                 id="use45" />
            </g>
          </g>
          <g
             id="text_3">
            <!-- 40 -->
            <defs
               id="defs51">
              <path
                 d="M 37.796875 64.3125  L 12.890625 25.390625  L 37.796875 25.390625  z M 35.203125 72.90625  L 47.609375 72.90625  L 47.609375 25.390625  L 58.015625 25.390625  L 58.015625 17.1875  L 47.609375 17.1875  L 47.609375 0  L 37.796875 0  L 37.796875 17.1875  L 4.890625 17.1875  L 4.890625 26.703125  z "
                 id="DejaVuSans-34" />
            </defs>
            <g
               transform="translate(112.065086 487.098437)scale(0.1 -0.1)"
               id="g57">
              <use
                 xlink:href="#DejaVuSans-34"
                 id="use53" />
              <use
                 x="63.623047"
                 xlink:href="#DejaVuSans-30"
                 id="use55" />
            </g>
          </g>
        </g>
        <g
           id="xtick_4">
          <g
             id="line2d_4">
            <g
               id="g63">
              <use
                 style="stroke:#000000;stroke-width:0.8;"
                 x="153.062069"
                 xlink:href="#m8b508bc2f1"
                 y="472.5"
                 id="use61" />
            </g>
          </g>
          <g
             id="text_4">
            <!-- 60 -->
            <defs
               id="defs67">
              <path
                 d="M 33.015625 40.375  Q 26.375 40.375 22.484375 35.828125  Q 18.609375 31.296875 18.609375 23.390625  Q 18.609375 15.53125 22.484375 10.953125  Q 26.375 6.390625 33.015625 6.390625  Q 39.65625 6.390625 43.53125 10.953125  Q 47.40625 15.53125 47.40625 23.390625  Q 47.40625 31.296875 43.53125 35.828125  Q 39.65625 40.375 33.015625 40.375  z M 52.59375 71.296875  L 52.59375 62.3125  Q 48.875 64.0625 45.09375 64.984375  Q 41.3125 65.921875 37.59375 65.921875  Q 27.828125 65.921875 22.671875 59.328125  Q 17.53125 52.734375 16.796875 39.40625  Q 19.671875 43.65625 24.015625 45.921875  Q 28.375 48.1875 33.59375 48.1875  Q 44.578125 48.1875 50.953125 41.515625  Q 57.328125 34.859375 57.328125 23.390625  Q 57.328125 12.15625 50.6875 5.359375  Q 44.046875 -1.421875 33.015625 -1.421875  Q 20.359375 -1.421875 13.671875 8.265625  Q 6.984375 17.96875 6.984375 36.375  Q 6.984375 53.65625 15.1875 63.9375  Q 23.390625 74.21875 37.203125 74.21875  Q 40.921875 74.21875 44.703125 73.484375  Q 48.484375 72.75 52.59375 71.296875  z "
                 id="DejaVuSans-36" />
            </defs>
            <g
               transform="translate(146.699569 487.098437)scale(0.1 -0.1)"
               id="g73">
              <use
                 xlink:href="#DejaVuSans-36"
                 id="use69" />
              <use
                 x="63.623047"
                 xlink:href="#DejaVuSans-30"
                 id="use71" />
            </g>
          </g>
        </g>
        <g
           id="xtick_5">
          <g
             id="line2d_5">
            <g
               id="g79">
              <use
                 style="stroke:#000000;stroke-width:0.8;"
                 x="187.696552"
                 xlink:href="#m8b508bc2f1"
                 y="472.5"
                 id="use77" />
            </g>
          </g>
          <g
             id="text_5">
            <!-- 80 -->
            <defs
               id="defs83">
              <path
                 d="M 31.78125 34.625  Q 24.75 34.625 20.71875 30.859375  Q 16.703125 27.09375 16.703125 20.515625  Q 16.703125 13.921875 20.71875 10.15625  Q 24.75 6.390625 31.78125 6.390625  Q 38.8125 6.390625 42.859375 10.171875  Q 46.921875 13.96875 46.921875 20.515625  Q 46.921875 27.09375 42.890625 30.859375  Q 38.875 34.625 31.78125 34.625  z M 21.921875 38.8125  Q 15.578125 40.375 12.03125 44.71875  Q 8.5 49.078125 8.5 55.328125  Q 8.5 64.0625 14.71875 69.140625  Q 20.953125 74.21875 31.78125 74.21875  Q 42.671875 74.21875 48.875 69.140625  Q 55.078125 64.0625 55.078125 55.328125  Q 55.078125 49.078125 51.53125 44.71875  Q 48 40.375 41.703125 38.8125  Q 48.828125 37.15625 52.796875 32.3125  Q 56.78125 27.484375 56.78125 20.515625  Q 56.78125 9.90625 50.3125 4.234375  Q 43.84375 -1.421875 31.78125 -1.421875  Q 19.734375 -1.421875 13.25 4.234375  Q 6.78125 9.90625 6.78125 20.515625  Q 6.78125 27.484375 10.78125 32.3125  Q 14.796875 37.15625 21.921875 38.8125  z M 18.3125 54.390625  Q 18.3125 48.734375 21.84375 45.5625  Q 25.390625 42.390625 31.78125 42.390625  Q 38.140625 42.390625 41.71875 45.5625  Q 45.3125 48.734375 45.3125 54.390625  Q 45.3125 60.0625 41.71875 63.234375  Q 38.140625 66.40625 31.78125 66.40625  Q 25.390625 66.40625 21.84375 63.234375  Q 18.3125 60.0625 18.3125 54.390625  z "
                 id="DejaVuSans-38" />
            </defs>
            <g
               transform="translate(181.334052 487.098437)scale(0.1 -0.1)"
               id="g89">
              <use
                 xlink:href="#DejaVuSans-38"
                 id="use85" />
              <use
                 x="63.623047"
                 xlink:href="#DejaVuSans-30"
                 id="use87" />
            </g>
          </g>
        </g>
        <g
           id="xtick_6">
          <g
             id="line2d_6">
            <g
               id="g95">
              <use
                 style="stroke:#000000;stroke-width:0.8;"
                 x="222.331034"
                 xlink:href="#m8b508bc2f1"
                 y="472.5"
                 id="use93" />
            </g>
          </g>
          <g
             id="text_6">
            <!-- 100 -->
            <defs
               id="defs99">
              <path
                 d="M 12.40625 8.296875  L 28.515625 8.296875  L 28.515625 63.921875  L 10.984375 60.40625  L 10.984375 69.390625  L 28.421875 72.90625  L 38.28125 72.90625  L 38.28125 8.296875  L 54.390625 8.296875  L 54.390625 0  L 12.40625 0  z "
                 id="DejaVuSans-31" />
            </defs>
            <g
               transform="translate(212.787284 487.098437)scale(0.1 -0.1)"
               id="g107">
              <use
                 xlink:href="#DejaVuSans-31"
                 id="use101" />
              <use
                 x="63.623047"
                 xlink:href="#DejaVuSans-30"
                 id="use103" />
              <use
                 x="127.246094"
                 xlink:href="#DejaVuSans-30"
                 id="use105" />
            </g>
          </g>
        </g>
        <g
           id="xtick_7">
          <g
             id="line2d_7">
            <g
               id="g113">
              <use
                 style="stroke:#000000;stroke-width:0.8;"
                 x="256.965517"
                 xlink:href="#m8b508bc2f1"
                 y="472.5"
                 id="use111" />
            </g>
          </g>
          <g
             id="text_7">
            <!-- 120 -->
            <g
               transform="translate(247.421767 487.098437)scale(0.1 -0.1)"
               id="g122">
              <use
                 xlink:href="#DejaVuSans-31"
                 id="use116" />
              <use
                 x="63.623047"
                 xlink:href="#DejaVuSans-32"
                 id="use118" />
              <use
                 x="127.246094"
                 xlink:href="#DejaVuSans-30"
                 id="use120" />
            </g>
          </g>
        </g>
        <g
           id="xtick_8">
          <g
             id="line2d_8">
            <g
               id="g128">
              <use
                 style="stroke:#000000;stroke-width:0.8;"
                 x="291.6"
                 xlink:href="#m8b508bc2f1"
                 y="472.5"
                 id="use126" />
            </g>
          </g>
          <g
             id="text_8">
            <!-- 140 -->
            <g
               transform="translate(282.05625 487.098437)scale(0.1 -0.1)"
               id="g137">
              <use
                 xlink:href="#DejaVuSans-31"
                 id="use131" />
              <use
                 x="63.623047"
                 xlink:href="#DejaVuSans-34"
                 id="use133" />
              <use
                 x="127.246094"
                 xlink:href="#DejaVuSans-30"
                 id="use135" />
            </g>
          </g>
        </g>
        <g
           id="text_9">
          <!-- $n$ -->
          <defs
             id="defs142">
            <path
               d="M 55.71875 33.015625  L 49.3125 0  L 40.28125 0  L 46.6875 32.671875  Q 47.125 34.96875 47.359375 36.71875  Q 47.609375 38.484375 47.609375 39.5  Q 47.609375 43.609375 45.015625 45.890625  Q 42.4375 48.1875 37.796875 48.1875  Q 30.5625 48.1875 25.34375 43.375  Q 20.125 38.578125 18.5 30.328125  L 12.5 0  L 3.515625 0  L 14.109375 54.6875  L 23.09375 54.6875  L 21.296875 46.09375  Q 25.046875 50.828125 30.3125 53.40625  Q 35.59375 56 41.40625 56  Q 48.640625 56 52.609375 52.09375  Q 56.59375 48.1875 56.59375 41.109375  Q 56.59375 39.359375 56.375 37.359375  Q 56.15625 35.359375 55.71875 33.015625  z "
               id="DejaVuSans-Oblique-6e" />
          </defs>
          <g
             transform="translate(161.25 504.575781)scale(0.15 -0.15)"
             id="g146">
            <use
               xlink:href="#DejaVuSans-Oblique-6e"
               id="use144" />
          </g>
        </g>
      </g>
      <g
         id="matplotlib.axis_2">
        <g
           id="text_10">
          <!-- $y[n]$ -->
          <defs
             id="defs153">
            <path
               d="M 24.8125 -5.078125  Q 18.5625 -15.578125 14.625 -18.1875  Q 10.6875 -20.796875 4.59375 -20.796875  L -2.484375 -20.796875  L -0.984375 -13.28125  L 4.203125 -13.28125  Q 7.953125 -13.28125 10.59375 -11.234375  Q 13.234375 -9.1875 16.5 -3.21875  L 19.28125 2  L 7.171875 54.6875  L 16.703125 54.6875  L 25.78125 12.796875  L 50.875 54.6875  L 60.296875 54.6875  z "
               id="DejaVuSans-Oblique-79" />
            <path
               d="M 8.59375 75.984375  L 29.296875 75.984375  L 29.296875 69  L 17.578125 69  L 17.578125 -6.203125  L 29.296875 -6.203125  L 29.296875 -13.1875  L 8.59375 -13.1875  z "
               id="DejaVuSans-5b" />
            <path
               d="M 30.421875 75.984375  L 30.421875 -13.1875  L 9.71875 -13.1875  L 9.71875 -6.203125  L 21.390625 -6.203125  L 21.390625 69  L 9.71875 69  L 9.71875 75.984375  z "
               id="DejaVuSans-5d" />
          </defs>
          <g
             transform="translate(33.35 283.725)rotate(-90)scale(0.15 -0.15)"
             id="g163">
            <use
               transform="translate(0 0.015625)"
               xlink:href="#DejaVuSans-Oblique-79"
               id="use155" />
            <use
               transform="translate(59.179688 0.015625)"
               xlink:href="#DejaVuSans-5b"
               id="use157" />
            <use
               transform="translate(98.193359 0.015625)"
               xlink:href="#DejaVuSans-Oblique-6e"
               id="use159" />
            <use
               transform="translate(161.572266 0.015625)"
               xlink:href="#DejaVuSans-5d"
               id="use161" />
          </g>
        </g>
      </g>
      <g
         id="line2d_9">
        <path
           clip-path="url(#p2f872ccec4)"
           d="M 49.158621 155.290658  L 50.890345 143.529321  L 52.622069 148.569709  L 54.353793 146.857392  L 56.085517 144.668158  L 57.817241 138.928424  L 59.548966 137.717525  L 61.28069 134.493825  L 63.012414 132.101448  L 64.744138 130.875656  L 66.475862 126.020499  L 68.207586 118.29949  L 69.93931 118.920054  L 71.671034 122.238214  L 73.402759 120.966719  L 75.134483 109.245402  L 76.866207 105.95883  L 78.597931 108.145603  L 80.329655 108.310823  L 82.061379 105.274315  L 83.793103 87.381788  L 85.524828 87.668432  L 87.256552 86.625623  L 88.988276 88.16677  L 90.72 87.105241  L 92.451724 86.352784  L 94.183448 91.544712  L 95.915172 87.01852  L 97.646897 84.273762  L 99.378621 85.995701  L 101.110345 152.589972  L 102.842069 152.850173  L 104.573793 144.877358  L 106.305517 150.840933  L 108.037241 153.241056  L 109.768966 153.495354  L 111.50069 150.949181  L 113.232414 152.675677  L 114.964138 150.664258  L 116.695862 149.843269  L 118.427586 147.086829  L 120.15931 149.683783  L 121.891034 154.649863  L 123.622759 152.81462  L 125.354483 149.349124  L 127.086207 153.068622  L 128.817931 153.600747  L 130.549655 151.727737  L 132.281379 151.297239  L 134.013103 150.661249  L 135.744828 150.338998  L 137.476552 149.992472  L 139.208276 152.670391  L 140.94 147.539692  L 142.671724 154.313281  L 144.403448 152.794651  L 146.135172 156.445717  L 147.866897 153.411834  L 149.598621 150.86831  L 151.330345 147.653225  L 153.062069 154.318649  L 154.793793 154.035379  L 156.525517 152.366843  L 158.257241 154.591456  L 159.988966 149.090239  L 161.72069 158.085449  L 163.452414 153.915613  L 165.184138 154.89972  L 166.915862 154.761522  L 168.647586 149.330286  L 170.37931 152.987946  L 172.111034 155.246447  L 173.842759 154.759625  L 175.574483 152.857553  L 177.306207 152.621697  L 179.037931 154.084785  L 180.769655 150.649212  L 182.501379 153.475005  L 184.233103 149.367274  L 185.964828 150.287329  L 187.696552 152.707026  L 189.428276 153.887614  L 191.16 154.689631  L 192.891724 153.028522  L 194.623448 150.799311  L 196.355172 154.303156  L 198.086897 151.298909  L 199.818621 151.845969  L 201.550345 153.608001  L 203.282069 160.116739  L 205.013793 151.180575  L 206.745517 149.367384  L 208.477241 152.507368  L 210.208966 149.661968  L 211.94069 152.176412  L 213.672414 155.864535  L 215.404138 154.047351  L 217.135862 146.466958  L 218.867586 150.979698  L 220.59931 151.858752  "
           style="fill:none;stroke:#1f77b4;stroke-linecap:square;stroke-width:1.5;"
           id="path167" />
      </g>
      <g
         id="line2d_10">
        <path
           clip-path="url(#p2f872ccec4)"
           d="M 49.158621 209.018672  L 50.890345 205.143839  L 52.622069 204.291223  L 54.353793 196.75791  L 56.085517 186.972586  L 57.817241 178.749359  L 59.548966 178.802914  L 61.28069 177.798923  L 63.012414 169.82683  L 64.744138 157.488607  L 66.475862 163.670581  L 68.207586 155.595391  L 69.93931 154.011539  L 71.671034 142.913026  L 73.402759 139.439958  L 75.134483 136.605608  L 76.866207 129.805001  L 78.597931 120.832871  L 80.329655 120.369715  L 82.061379 115.75051  L 83.793103 201.448003  L 85.524828 197.058794  L 87.256552 195.730186  L 88.988276 200.872262  L 90.72 197.878517  L 92.451724 197.236223  L 94.183448 190.985505  L 95.915172 202.5806  L 97.646897 202.117427  L 99.378621 204.020208  L 101.110345 201.473786  L 102.842069 204.296191  L 104.573793 203.346776  L 106.305517 214.249675  L 108.037241 205.82688  L 109.768966 213.203373  L 111.50069 208.217049  L 113.232414 212.566854  L 114.964138 208.811054  L 116.695862 208.198759  L 118.427586 208.593411  L 120.15931 211.280091  L 121.891034 205.545186  L 123.622759 210.548742  L 125.354483 210.052552  L 127.086207 210.069263  L 128.817931 212.90321  L 130.549655 207.326212  L 132.281379 211.573992  L 134.013103 208.058321  L 135.744828 209.173995  L 137.476552 211.259885  L 139.208276 210.073031  L 140.94 204.104309  L 142.671724 201.250168  L 144.403448 209.450044  L 146.135172 206.7401  L 147.866897 206.689472  L 149.598621 209.000323  L 151.330345 207.283242  L 153.062069 213.133415  L 154.793793 212.767838  L 156.525517 213.294352  L 158.257241 211.282314  L 159.988966 204.003432  L 161.72069 211.930777  L 163.452414 209.13132  L 165.184138 208.080644  L 166.915862 214.29682  L 168.647586 211.476275  L 170.37931 210.268508  L 172.111034 214.121453  L 173.842759 213.954395  L 175.574483 207.105977  L 177.306207 211.979793  L 179.037931 205.321626  L 180.769655 210.698601  L 182.501379 214.646967  L 184.233103 210.434415  L 185.964828 211.932812  L 187.696552 211.987438  L 189.428276 208.954328  L 191.16 211.816032  L 192.891724 210.282681  L 194.623448 211.021164  L 196.355172 211.075753  L 198.086897 213.150142  L 199.818621 210.008935  L 201.550345 210.980218  L 203.282069 211.696722  L 205.013793 210.319256  L 206.745517 213.304838  L 208.477241 212.566909  L 210.208966 214.604251  L 211.94069 209.503994  L 213.672414 214.991815  L 215.404138 211.859211  L 217.135862 214.709875  L 218.867586 208.505503  L 220.59931 205.744127  "
           style="fill:none;stroke:#ff7f0e;stroke-linecap:square;stroke-width:1.5;"
           id="path170" />
      </g>
      <g
         id="line2d_11">
        <path
           clip-path="url(#p2f872ccec4)"
           d="M 49.158621 262.515373  L 50.890345 267.153898  L 52.622069 257.404311  L 54.353793 250.242486  L 56.085517 255.362828  L 57.817241 244.045141  L 59.548966 228.433674  L 61.28069 229.873138  L 63.012414 225.389826  L 64.744138 213.152234  L 66.475862 213.896655  L 68.207586 206.213989  L 69.93931 209.55952  L 71.671034 195.651101  L 73.402759 186.176893  L 75.134483 185.835066  L 76.866207 180.010588  L 78.597931 172.577236  L 80.329655 167.527556  L 82.061379 162.882786  L 83.793103 240.065757  L 85.524828 242.336645  L 87.256552 242.241946  L 88.988276 242.155952  L 90.72 235.1661  L 92.451724 237.979892  L 94.183448 236.929405  L 95.915172 242.313942  L 97.646897 243.295915  L 99.378621 240.241337  L 101.110345 244.165148  L 102.842069 251.025925  L 104.573793 254.767304  L 106.305517 247.863435  L 108.037241 253.275133  L 109.768966 254.067586  L 111.50069 257.578344  L 113.232414 256.078958  L 114.964138 260.847953  L 116.695862 262.997899  L 118.427586 259.432074  L 120.15931 261.387669  L 121.891034 264.933981  L 123.622759 265.861266  L 125.354483 265.453698  L 127.086207 263.126937  L 128.817931 258.295793  L 130.549655 262.794403  L 132.281379 263.455808  L 134.013103 265.866075  L 135.744828 268.411184  L 137.476552 268.206494  L 139.208276 261.915469  L 140.94 263.786384  L 142.671724 261.297305  L 144.403448 258.858985  L 146.135172 263.400108  L 147.866897 263.973126  L 149.598621 265.195389  L 151.330345 261.162146  L 153.062069 266.049001  L 154.793793 267.746354  L 156.525517 267.034937  L 158.257241 271.631861  L 159.988966 274.610794  L 161.72069 268.377302  L 163.452414 269.023162  L 165.184138 274.87556  L 166.915862 259.256229  L 168.647586 268.739292  L 170.37931 274.047856  L 172.111034 269.433492  L 173.842759 267.221809  L 175.574483 270.683052  L 177.306207 267.2533  L 179.037931 264.230204  L 180.769655 268.314948  L 182.501379 263.981607  L 184.233103 270.777768  L 185.964828 272.781141  L 187.696552 270.224806  L 189.428276 260.332495  L 191.16 270.37535  L 192.891724 262.907952  L 194.623448 272.127094  L 196.355172 267.720738  L 198.086897 268.964051  L 199.818621 266.859042  L 201.550345 269.656379  L 203.282069 264.006578  L 205.013793 274.381752  L 206.745517 270.506945  L 208.477241 261.797806  L 210.208966 265.18474  L 211.94069 270.282157  L 213.672414 267.43629  L 215.404138 269.708694  L 217.135862 264.493954  L 218.867586 265.977169  L 220.59931 271.842711  "
           style="fill:none;stroke:#2ca02c;stroke-linecap:square;stroke-width:1.5;"
           id="path173" />
      </g>
      <g
         id="line2d_12">
        <path
           clip-path="url(#p2f872ccec4)"
           d="M 49.158621 327.429463  L 50.890345 324.537673  L 52.622069 321.631189  L 54.353793 320.379865  L 56.085517 316.239744  L 57.817241 316.779182  L 59.548966 311.910905  L 61.28069 311.507725  L 63.012414 312.438994  L 64.744138 305.603846  L 66.475862 306.31836  L 68.207586 300.923772  L 69.93931 304.122689  L 71.671034 295.995249  L 73.402759 302.995467  L 75.134483 293.706453  L 76.866207 288.680425  L 78.597931 295.634657  L 80.329655 289.556073  L 82.061379 279.337543  L 83.793103 289.124899  L 85.524828 293.269669  L 87.256552 287.656078  L 88.988276 289.088651  L 90.72 286.474999  L 92.451724 286.427873  L 94.183448 289.383724  L 95.915172 292.93073  L 97.646897 288.979578  L 99.378621 293.704341  L 101.110345 300.216764  L 102.842069 303.03767  L 104.573793 305.426342  L 106.305517 317.371119  L 108.037241 307.037694  L 109.768966 311.003598  L 111.50069 315.339171  L 113.232414 314.985941  L 114.964138 310.576638  L 116.695862 315.586748  L 118.427586 318.066712  L 120.15931 314.404394  L 121.891034 322.075177  L 123.622759 313.927579  L 125.354483 321.151751  L 127.086207 313.792175  L 128.817931 322.976435  L 130.549655 323.816714  L 132.281379 317.502307  L 134.013103 321.523763  L 135.744828 327.077581  L 137.476552 317.87237  L 139.208276 326.886523  L 140.94 318.535353  L 142.671724 316.154658  L 144.403448 313.926638  L 146.135172 315.978368  L 147.866897 316.488791  L 149.598621 317.696814  L 151.330345 316.150947  L 153.062069 317.210894  L 154.793793 325.369177  L 156.525517 323.154887  L 158.257241 332.142251  L 159.988966 330.319892  L 161.72069 328.317083  L 163.452414 329.499293  L 165.184138 329.843297  L 166.915862 323.848723  L 168.647586 334.161512  L 170.37931 330.973143  L 172.111034 330.986315  L 173.842759 326.210165  L 175.574483 328.935831  L 177.306207 324.748985  L 179.037931 331.06716  L 180.769655 330.039516  L 182.501379 331.230534  L 184.233103 329.677942  L 185.964828 327.175477  L 187.696552 324.868754  L 189.428276 324.268226  L 191.16 322.009302  L 192.891724 322.078899  L 194.623448 330.581122  L 196.355172 323.365044  L 198.086897 321.497059  L 199.818621 329.074812  L 201.550345 330.674147  L 203.282069 327.494661  L 205.013793 328.962562  L 206.745517 329.277422  L 208.477241 325.256385  L 210.208966 327.828515  L 211.94069 329.615398  L 213.672414 329.02869  L 215.404138 328.614874  L 217.135862 323.300435  L 218.867586 328.345282  L 220.59931 329.974279  "
           style="fill:none;stroke:#d62728;stroke-linecap:square;stroke-width:1.5;"
           id="path176" />
      </g>
      <g
         id="line2d_13">
        <defs
           id="defs180">
          <path
             d="M 0 1.5  C 0.397805 1.5 0.77937 1.341951 1.06066 1.06066  C 1.341951 0.77937 1.5 0.397805 1.5 0  C 1.5 -0.397805 1.341951 -0.77937 1.06066 -1.06066  C 0.77937 -1.341951 0.397805 -1.5 0 -1.5  C -0.397805 -1.5 -0.77937 -1.341951 -1.06066 -1.06066  C -1.341951 -0.77937 -1.5 -0.397805 -1.5 0  C -1.5 0.397805 -1.341951 0.77937 -1.06066 1.06066  C -0.77937 1.341951 -0.397805 1.5 0 1.5  z "
             id="mdafd86ff97"
             style="stroke:#000000;" />
        </defs>
        <g
           clip-path="url(#p2f872ccec4)"
           id="g184">
          <use
             style="stroke:#000000;"
             x="135.744828"
             xlink:href="#mdafd86ff97"
             y="356.014286"
             id="use182" />
        </g>
      </g>
      <g
         id="line2d_14">
        <g
           clip-path="url(#p2f872ccec4)"
           id="g189">
          <use
             style="stroke:#000000;"
             x="135.744828"
             xlink:href="#mdafd86ff97"
             y="385.135714"
             id="use187" />
        </g>
      </g>
      <g
         id="line2d_15">
        <g
           clip-path="url(#p2f872ccec4)"
           id="g194">
          <use
             style="stroke:#000000;"
             x="135.744828"
             xlink:href="#mdafd86ff97"
             y="414.257143"
             id="use192" />
        </g>
      </g>
      <g
         id="line2d_16">
        <path
           clip-path="url(#p2f872ccec4)"
           d="M 49.158621 441.943397  L 50.890345 435.825105  L 52.622069 437.551661  L 54.353793 428.619941  L 56.085517 425.655218  L 57.817241 423.007328  L 59.548966 417.914712  L 61.28069 409.216643  L 63.012414 402.632333  L 64.744138 400.901602  L 66.475862 391.398178  L 68.207586 391.079664  L 69.93931 386.426175  L 71.671034 382.632916  L 73.402759 380.991225  L 75.134483 371.70983  L 76.866207 364.033913  L 78.597931 358.977712  L 80.329655 352.117379  L 82.061379 353.423654  L 83.793103 375.037533  L 85.524828 372.928875  L 87.256552 372.950242  L 88.988276 376.763881  L 90.72 375.01206  L 92.451724 379.38255  L 94.183448 379.638274  L 95.915172 378.895074  L 97.646897 374.035973  L 99.378621 370.55496  L 101.110345 441.915018  L 102.842069 442.737985  L 104.573793 445.580142  L 106.305517 445.85814  L 108.037241 444.570041  L 109.768966 438.996735  L 111.50069 442.590913  L 113.232414 443.117452  L 114.964138 443.234378  L 116.695862 445.451277  L 118.427586 444.323354  L 120.15931 439.008913  L 121.891034 441.333994  L 123.622759 447.844223  L 125.354483 443.729767  L 127.086207 450.539503  L 128.817931 442.397419  L 130.549655 443.652511  L 132.281379 440.497812  L 134.013103 440.916922  L 135.744828 446.881062  L 137.476552 441.484189  L 139.208276 433.360914  L 140.94 435.578059  L 142.671724 431.09626  L 144.403448 433.344977  L 146.135172 435.907752  L 147.866897 436.536876  L 149.598621 437.089154  L 151.330345 447.778289  L 153.062069 445.301362  L 154.793793 445.964138  L 156.525517 438.059424  L 158.257241 444.253932  L 159.988966 446.028722  L 161.72069 449.496167  L 163.452414 441.188839  L 165.184138 447.470191  L 166.915862 440.567676  L 168.647586 448.353452  L 170.37931 445.18232  L 172.111034 443.824093  L 173.842759 440.267197  L 175.574483 442.496908  L 177.306207 441.608895  L 179.037931 438.060498  L 180.769655 444.9465  L 182.501379 440.609208  L 184.233103 441.969304  L 185.964828 443.381858  L 187.696552 440.559221  L 189.428276 445.933217  L 191.16 440.055641  L 192.891724 446.023727  L 194.623448 438.154135  L 196.355172 439.200678  L 198.086897 445.407406  L 199.818621 442.488563  L 201.550345 441.743674  L 203.282069 442.795933  L 205.013793 449.061785  L 206.745517 441.094226  L 208.477241 445.433607  L 210.208966 440.619541  L 211.94069 441.698446  L 213.672414 443.420236  L 215.404138 442.761026  L 217.135862 443.002647  L 218.867586 448.401466  L 220.59931 445.589595  "
           style="fill:none;stroke:#9467bd;stroke-linecap:square;stroke-width:1.5;"
           id="path197" />
      </g>
      <g
         id="line2d_17">
        <path
           clip-path="url(#p2f872ccec4)"
           d="M 49.158621 501.621429  L 49.158621 64.8  "
           style="fill:none;stroke:#bfbfbf;stroke-dasharray:3.7,1.6;stroke-dashoffset:0;"
           id="path200" />
      </g>
      <g
         id="line2d_18">
        <path
           clip-path="url(#p2f872ccec4)"
           d="M 222.331034 501.621429  L 222.331034 64.8  "
           style="fill:none;stroke:#bfbfbf;stroke-dasharray:3.7,1.6;stroke-dashoffset:0;"
           id="path203" />
      </g>
      <g
         id="patch_3">
        <path
           d="M 40.5 472.5  L 40.5 64.8  "
           style="fill:none;stroke:#000000;stroke-linecap:square;stroke-linejoin:miter;stroke-width:0.8;"
           id="path206" />
      </g>
      <g
         id="patch_4">
        <path
           d="M 291.6 472.5  L 291.6 64.8  "
           style="fill:none;stroke:#000000;stroke-linecap:square;stroke-linejoin:miter;stroke-width:0.8;"
           id="path209" />
      </g>
      <g
         id="patch_5">
        <path
           d="M 40.5 472.5  L 291.6 472.5  "
           style="fill:none;stroke:#000000;stroke-linecap:square;stroke-linejoin:miter;stroke-width:0.8;"
           id="path212" />
      </g>
      <g
         id="patch_6">
        <path
           d="M 40.5 64.8  L 291.6 64.8  "
           style="fill:none;stroke:#000000;stroke-linecap:square;stroke-linejoin:miter;stroke-width:0.8;"
           id="path215" />
      </g>
      <g
         id="text_11">
        <!-- Expt 1 -->
        <defs
           id="defs223">
          <path
             d="M 9.8125 72.90625  L 55.90625 72.90625  L 55.90625 64.59375  L 19.671875 64.59375  L 19.671875 43.015625  L 54.390625 43.015625  L 54.390625 34.71875  L 19.671875 34.71875  L 19.671875 8.296875  L 56.78125 8.296875  L 56.78125 0  L 9.8125 0  z "
             id="DejaVuSans-45" />
          <path
             d="M 54.890625 54.6875  L 35.109375 28.078125  L 55.90625 0  L 45.3125 0  L 29.390625 21.484375  L 13.484375 0  L 2.875 0  L 24.125 28.609375  L 4.6875 54.6875  L 15.28125 54.6875  L 29.78125 35.203125  L 44.28125 54.6875  z "
             id="DejaVuSans-78" />
          <path
             d="M 18.109375 8.203125  L 18.109375 -20.796875  L 9.078125 -20.796875  L 9.078125 54.6875  L 18.109375 54.6875  L 18.109375 46.390625  Q 20.953125 51.265625 25.265625 53.625  Q 29.59375 56 35.59375 56  Q 45.5625 56 51.78125 48.09375  Q 58.015625 40.1875 58.015625 27.296875  Q 58.015625 14.40625 51.78125 6.484375  Q 45.5625 -1.421875 35.59375 -1.421875  Q 29.59375 -1.421875 25.265625 0.953125  Q 20.953125 3.328125 18.109375 8.203125  z M 48.6875 27.296875  Q 48.6875 37.203125 44.609375 42.84375  Q 40.53125 48.484375 33.40625 48.484375  Q 26.265625 48.484375 22.1875 42.84375  Q 18.109375 37.203125 18.109375 27.296875  Q 18.109375 17.390625 22.1875 11.75  Q 26.265625 6.109375 33.40625 6.109375  Q 40.53125 6.109375 44.609375 11.75  Q 48.6875 17.390625 48.6875 27.296875  z "
             id="DejaVuSans-70" />
          <path
             d="M 18.3125 70.21875  L 18.3125 54.6875  L 36.8125 54.6875  L 36.8125 47.703125  L 18.3125 47.703125  L 18.3125 18.015625  Q 18.3125 11.328125 20.140625 9.421875  Q 21.96875 7.515625 27.59375 7.515625  L 36.8125 7.515625  L 36.8125 0  L 27.59375 0  Q 17.1875 0 13.234375 3.875  Q 9.28125 7.765625 9.28125 18.015625  L 9.28125 47.703125  L 2.6875 47.703125  L 2.6875 54.6875  L 9.28125 54.6875  L 9.28125 70.21875  z "
             id="DejaVuSans-74" />
          <path
             id="DejaVuSans-20" />
        </defs>
        <g
           transform="translate(230.989655 152.164286)scale(0.15 -0.15)"
           id="g237">
          <use
             xlink:href="#DejaVuSans-45"
             id="use225" />
          <use
             x="63.183594"
             xlink:href="#DejaVuSans-78"
             id="use227" />
          <use
             x="122.363281"
             xlink:href="#DejaVuSans-70"
             id="use229" />
          <use
             x="185.839844"
             xlink:href="#DejaVuSans-74"
             id="use231" />
          <use
             x="225.048828"
             xlink:href="#DejaVuSans-20"
             id="use233" />
          <use
             x="256.835938"
             xlink:href="#DejaVuSans-31"
             id="use235" />
        </g>
      </g>
      <g
         id="text_12">
        <!-- Expt 2 -->
        <g
           transform="translate(230.989655 210.407143)scale(0.15 -0.15)"
           id="g252">
          <use
             xlink:href="#DejaVuSans-45"
             id="use240" />
          <use
             x="63.183594"
             xlink:href="#DejaVuSans-78"
             id="use242" />
          <use
             x="122.363281"
             xlink:href="#DejaVuSans-70"
             id="use244" />
          <use
             x="185.839844"
             xlink:href="#DejaVuSans-74"
             id="use246" />
          <use
             x="225.048828"
             xlink:href="#DejaVuSans-20"
             id="use248" />
          <use
             x="256.835938"
             xlink:href="#DejaVuSans-32"
             id="use250" />
        </g>
      </g>
      <g
         id="text_13">
        <!-- Expt 3 -->
        <defs
           id="defs256">
          <path
             d="M 40.578125 39.3125  Q 47.65625 37.796875 51.625 33  Q 55.609375 28.21875 55.609375 21.1875  Q 55.609375 10.40625 48.1875 4.484375  Q 40.765625 -1.421875 27.09375 -1.421875  Q 22.515625 -1.421875 17.65625 -0.515625  Q 12.796875 0.390625 7.625 2.203125  L 7.625 11.71875  Q 11.71875 9.328125 16.59375 8.109375  Q 21.484375 6.890625 26.8125 6.890625  Q 36.078125 6.890625 40.9375 10.546875  Q 45.796875 14.203125 45.796875 21.1875  Q 45.796875 27.640625 41.28125 31.265625  Q 36.765625 34.90625 28.71875 34.90625  L 20.21875 34.90625  L 20.21875 43.015625  L 29.109375 43.015625  Q 36.375 43.015625 40.234375 45.921875  Q 44.09375 48.828125 44.09375 54.296875  Q 44.09375 59.90625 40.109375 62.90625  Q 36.140625 65.921875 28.71875 65.921875  Q 24.65625 65.921875 20.015625 65.03125  Q 15.375 64.15625 9.8125 62.3125  L 9.8125 71.09375  Q 15.4375 72.65625 20.34375 73.4375  Q 25.25 74.21875 29.59375 74.21875  Q 40.828125 74.21875 47.359375 69.109375  Q 53.90625 64.015625 53.90625 55.328125  Q 53.90625 49.265625 50.4375 45.09375  Q 46.96875 40.921875 40.578125 39.3125  z "
             id="DejaVuSans-33" />
        </defs>
        <g
           transform="translate(230.989655 268.65)scale(0.15 -0.15)"
           id="g270">
          <use
             xlink:href="#DejaVuSans-45"
             id="use258" />
          <use
             x="63.183594"
             xlink:href="#DejaVuSans-78"
             id="use260" />
          <use
             x="122.363281"
             xlink:href="#DejaVuSans-70"
             id="use262" />
          <use
             x="185.839844"
             xlink:href="#DejaVuSans-74"
             id="use264" />
          <use
             x="225.048828"
             xlink:href="#DejaVuSans-20"
             id="use266" />
          <use
             x="256.835938"
             xlink:href="#DejaVuSans-33"
             id="use268" />
        </g>
      </g>
      <g
         id="text_14">
        <!-- Expt 4 -->
        <g
           transform="translate(230.989655 326.892857)scale(0.15 -0.15)"
           id="g285">
          <use
             xlink:href="#DejaVuSans-45"
             id="use273" />
          <use
             x="63.183594"
             xlink:href="#DejaVuSans-78"
             id="use275" />
          <use
             x="122.363281"
             xlink:href="#DejaVuSans-70"
             id="use277" />
          <use
             x="185.839844"
             xlink:href="#DejaVuSans-74"
             id="use279" />
          <use
             x="225.048828"
             xlink:href="#DejaVuSans-20"
             id="use281" />
          <use
             x="256.835938"
             xlink:href="#DejaVuSans-34"
             id="use283" />
        </g>
      </g>
      <g
         id="text_15">
        <!-- Expt M -->
        <defs
           id="defs289">
          <path
             d="M 9.8125 72.90625  L 24.515625 72.90625  L 43.109375 23.296875  L 61.8125 72.90625  L 76.515625 72.90625  L 76.515625 0  L 66.890625 0  L 66.890625 64.015625  L 48.09375 14.015625  L 38.1875 14.015625  L 19.390625 64.015625  L 19.390625 0  L 9.8125 0  z "
             id="DejaVuSans-4d" />
        </defs>
        <g
           transform="translate(230.989655 443.378571)scale(0.15 -0.15)"
           id="g303">
          <use
             xlink:href="#DejaVuSans-45"
             id="use291" />
          <use
             x="63.183594"
             xlink:href="#DejaVuSans-78"
             id="use293" />
          <use
             x="122.363281"
             xlink:href="#DejaVuSans-70"
             id="use295" />
          <use
             x="185.839844"
             xlink:href="#DejaVuSans-74"
             id="use297" />
          <use
             x="225.048828"
             xlink:href="#DejaVuSans-20"
             id="use299" />
          <use
             x="256.835938"
             xlink:href="#DejaVuSans-4d"
             id="use301" />
        </g>
      </g>
    </g>
  </g>
  <defs
     id="defs311">
    <clipPath
       id="p2f872ccec4">
      <rect
         height="407.7"
         width="251.1"
         x="40.5"
         y="64.8"
         id="rect308" />
    </clipPath>
  </defs>
</svg>
